<svg width="341" height="160" viewBox="0 0 341 160" fill="none" xmlns="http://www.w3.org/2000/svg">
<path d="M47.3042 0.638069C46.5531 1.01801 45.6768 1.96787 45.3639 2.66444C44.9883 3.42432 43.2357 4.75413 41.3579 5.70399C37.4772 7.6037 29.966 10.5799 29.0272 10.5799C28.7142 10.5799 27.6501 10.8965 26.7738 11.3398C24.896 12.163 24.9586 12.2263 31.3431 17.039C35.4742 20.2052 36.0375 20.2685 39.1046 17.9255C41.4205 16.2791 41.8587 16.9123 40.3564 19.8885C39.6679 21.2183 38.6038 23.9413 37.9779 25.9676C37.352 27.994 36.5383 29.5138 36.1627 29.3238C35.7872 29.1972 34.9735 29.4504 34.2849 29.957C33.659 30.4636 32.5323 30.8436 31.9064 30.8436C31.2179 30.8436 29.0897 31.6035 27.2746 32.49C25.3968 33.3765 23.7694 34.0098 23.6442 33.8831C23.5816 33.7565 23.832 32.3 24.2701 30.527C25.1464 27.1708 24.9586 24.1946 23.7694 22.5481C22.5175 20.965 17.5727 18.8754 13.8171 18.4321C9.68599 17.9255 7.80821 18.3688 8.8097 19.6352C9.56081 20.5218 9.56081 20.5851 11.1882 31.4135L12.2523 38.6957L15.2567 41.7353C16.9468 43.445 18.3238 45.0915 18.3238 45.3447C18.3238 45.598 17.4475 46.5479 16.446 47.4344C13.6919 49.7141 9.6234 53.8302 7.0571 56.8697C5.86784 58.3261 3.86487 60.4792 2.67561 61.6823C0.672639 63.772 0.547454 64.152 0.672639 67.8247C0.735232 69.9144 0.860418 75.8035 0.92301 80.8695L1.11079 90.0514L3.17635 93.0277C4.30302 94.7374 5.49228 96.0672 5.86784 96.0672C6.1808 96.0672 7.55784 95.3706 8.93488 94.4841L11.4386 92.901L11.0004 88.9116C10.4371 84.0357 10.4371 82.1359 10.9378 77.5766C11.5012 72.764 12.3775 71.1176 13.9423 72.0041C14.5682 72.3207 16.2582 72.6374 17.6979 72.6374C19.7634 72.6374 20.3268 72.3841 20.8275 71.1809C21.1405 70.421 21.9542 69.0912 22.7053 68.2047L23.9571 66.6216L23.3312 68.3313C23.0182 69.3445 22.8305 70.1044 23.0182 70.1044C23.1434 70.1044 22.5801 72.0041 21.7038 74.3471C20.8275 76.7534 19.826 79.4763 19.4505 80.5528C19.0749 81.566 18.3238 83.1491 17.7605 83.9723C16.6338 85.7454 16.6964 87.2019 18.0734 90.1781C19.1375 92.5844 19.7634 93.0277 21.0779 92.5211C22.8931 91.8245 35.2238 75.6769 35.2238 73.9672C35.2238 72.764 36.4757 69.0912 37.6024 67.1282C38.9168 64.7219 38.4161 64.9752 35.4116 68.3313C31.5935 72.5107 29.3401 74.5371 29.0897 74.0305C29.0272 73.7772 30.0286 70.8643 31.3431 67.5714C33.2835 62.8221 34.0972 61.4923 35.2238 61.2391C37.2268 60.7958 38.1657 57.8829 37.039 55.7299C35.7246 53.2602 34.4101 52.8803 30.1538 53.7668C26.9616 54.4001 25.8349 55.0333 23.0808 57.7562C18.3864 62.2522 12.6904 67.1915 11.9393 67.5081C11.2508 67.7614 8.43414 66.4316 7.30747 65.3551C5.99302 64.0886 7.0571 60.7325 9.18525 59.4027C10.2493 58.7061 11.5012 57.5663 11.9393 56.8697C12.3775 56.1098 13.1286 55.5399 13.6919 55.5399C14.1927 55.5399 15.5071 54.59 16.6338 53.3869C19.9512 49.7774 31.0301 43.1917 39.6053 39.6456C41.4831 38.8857 43.7364 37.5559 44.6127 36.7327C45.9272 35.4662 46.0524 35.0863 45.3639 34.0098C44.5502 32.6166 44.3624 30.8436 45.1135 30.8436C45.3639 30.8436 46.2402 29.8304 47.0539 28.5639C47.8676 27.3608 49.3698 25.461 50.3087 24.3212C51.3102 23.1814 52.6872 21.0284 53.5009 19.5086C54.252 17.9888 55.5039 16.5324 56.1924 16.2791C58.258 15.5192 59.8228 12.543 59.8228 9.56674C59.8228 6.08392 58.3831 3.86759 55.6917 3.361C54.565 3.17103 52.6246 2.28449 51.4979 1.39796C49.182 -0.31179 49.2446 -0.31179 47.3042 0.638069Z" fill="black"/>
<path d="M70.7764 47.7511C69.462 48.321 68.3979 48.9542 68.3979 49.2708C68.3979 49.9674 65.3935 53.0069 64.7049 53.0069C64.392 53.0069 63.1401 53.9568 61.8257 55.16L59.5097 57.313L61.7631 58.0728C63.4531 58.6428 64.5798 58.6428 66.0194 58.1362C67.0835 57.7562 68.085 57.5663 68.2101 57.6929C68.7109 58.1362 62.6394 72.1308 60.7616 74.917C58.7586 77.8932 58.5709 79.4763 59.9479 82.1359C61.0746 84.4156 61.5127 84.4789 71.8405 84.9855C83.1072 85.5554 84.672 85.5554 86.2994 84.6056C88.3024 83.5291 88.1772 82.9591 85.6109 80.6162C84.4217 79.4763 83.4202 78.0832 83.4202 77.5133C83.4202 74.9803 74.4068 72.8906 70.1505 74.4737C69.3368 74.727 67.8972 75.1703 66.9583 75.4236C65.4561 75.8035 65.2683 75.6769 65.769 74.7904C66.082 74.2204 68.7735 71.1176 71.7153 67.9514C83.9835 54.9067 83.4202 55.6665 83.4202 52.0571C83.4202 48.8909 83.3576 48.8276 81.1042 48.0043C77.7242 46.7379 73.4053 46.6745 70.7764 47.7511Z" fill="black"/>
<path d="M48.4936 54.0834C46.1777 54.2734 44.8006 54.7167 43.8617 55.6665L42.6099 56.933L44.738 58.7061L46.8036 60.4791L46.8662 70.1677C46.9288 79.7296 47.3043 82.0726 49.4951 85.1755C50.0584 85.9987 54.0643 87.3918 53.8766 86.6952C53.814 86.4419 54.2521 84.6689 54.8154 82.7692C56.0673 78.9064 56.568 66.8115 55.8169 59.5926C55.3788 55.4132 54.2521 53.4502 52.4995 53.7668C52.124 53.8301 50.3088 53.9568 48.4936 54.0834Z" fill="black"/>
<path d="M158.993 49.8371C157.904 50.185 156.242 50.7648 155.267 51.2287C154.35 51.6925 151.657 52.8522 149.364 53.8379C145.639 55.3455 142.028 57.4329 141.225 58.5346C141.054 58.7085 140.538 58.9984 140.079 59.1724C138.876 59.5782 143.002 61.6077 146.957 62.5934C148.676 62.9993 150.224 63.4052 150.338 63.5211C150.453 63.5791 150.682 64.6808 150.797 66.0144C151.083 68.5077 151.141 68.4497 146.097 70.3052C145.123 70.7111 145.352 70.943 147.702 72.1606C150.74 73.7842 150.969 74.6539 149.135 77.4371C147.53 79.7564 146.785 79.6405 146.326 76.9733C145.581 72.2186 142.142 67.5799 137.5 64.9127C135.781 63.927 134.29 63.1152 134.176 63.1152C134.061 63.1152 134.462 65.0287 135.036 67.29C135.666 69.6094 136.296 74.0161 136.468 77.0892C136.812 83.2355 137.844 85.2649 140.366 85.2649C141.168 85.2649 141.799 85.5548 141.799 85.9027C141.799 86.1926 142.314 85.7867 143.002 84.917C144.492 83.0035 144.894 83.0035 145.581 84.975C146.097 86.4825 145.753 87.1203 141.225 93.2666C133.947 103.066 134.176 102.66 135.208 105.269C136.182 107.588 138.245 109.502 139.965 109.676C141.168 109.734 146.384 107.646 146.384 107.009C146.384 106.777 146.728 106.603 147.129 106.603C147.931 106.603 154.178 100.804 154.006 100.167C153.949 99.9347 154.58 99.4708 155.497 99.1809C157.044 98.601 157.159 98.717 157.56 100.399C157.732 101.442 158.018 108.748 158.133 116.75C158.42 134.899 158.878 142.61 159.738 143.77C160.426 144.698 162.947 145.626 163.062 144.988C163.349 142.784 163.75 141.045 164.151 140.233C165.469 137.682 166.042 119.997 165.011 113.039C164.036 106.545 163.922 97.7313 164.724 96.1657C165.068 95.5279 165.813 94.7741 166.444 94.4262C168.048 93.5565 173.321 93.0926 174.697 93.7304C182.262 97.1515 186.962 96.7456 185.586 92.8607C185.013 91.2951 178.136 86.8884 176.875 87.3523C176.531 87.4682 176.187 87.2943 176.187 86.8884C176.187 86.5405 175.958 86.3666 175.671 86.5405C175.385 86.7724 174.983 86.5405 174.869 86.1926C174.697 85.7867 174.525 85.7287 174.525 86.0187C174.467 86.4245 172.691 86.5985 169.768 86.5405C165.584 86.4245 164.781 86.1926 163.119 84.801C161.515 83.5254 160.769 83.3514 158.821 83.5834C156.586 83.8733 156.471 83.8733 157.56 83.0615C158.19 82.5976 159.279 82.3657 159.967 82.5396C160.655 82.7136 161.285 82.5396 161.4 82.1338C161.572 81.6699 162.604 81.496 164.094 81.5539C165.87 81.6699 166.444 81.5539 166.1 81.0321C165.87 80.5682 165.928 80.5102 166.329 80.7422C166.73 80.9741 167.59 80.7422 168.278 80.2783C169.137 79.6405 169.309 79.3506 168.736 79.2926C168.22 79.2926 168.392 79.0027 169.195 78.6548C169.882 78.3069 170.456 77.785 170.456 77.4951C170.456 77.2052 170.169 77.1472 169.825 77.3791C168.908 77.901 170.284 75.4657 171.659 74.0741C172.232 73.4942 172.748 72.5665 172.748 72.1027C172.748 71.6388 173.035 71.2329 173.379 71.2329C173.665 71.2329 173.78 70.943 173.608 70.6531C173.379 70.3052 173.493 70.1312 173.837 70.1892C174.639 70.4211 178.479 66.0144 178.479 64.8547C178.479 64.3329 179.225 62.8833 180.142 61.6656C182.033 59.1144 181.918 58.0127 179.568 54.9396C178.308 53.316 176.875 52.4463 172.977 50.9967C167.762 49.0833 163.119 48.7354 158.993 49.8371ZM163.578 63.0573C160.999 74.9438 159.91 77.0312 157.273 75.2917C156.528 74.7699 156.643 74.48 158.018 73.2623C159.91 71.5808 160.024 69.3195 158.305 68.1018C157.388 67.464 156.987 66.5362 156.929 64.8547C156.815 62.5934 156.929 62.5354 159.91 61.1438C161.629 60.332 163.177 59.2303 163.406 58.6505C164.208 56.6211 164.323 59.6362 163.578 63.0573ZM172.175 71.1749C172.175 71.5228 171.946 71.8707 171.716 72.0447C171.43 72.2186 171.201 71.9867 171.201 71.5228C171.201 71.059 171.43 70.6531 171.716 70.6531C171.946 70.6531 172.175 70.885 172.175 71.1749ZM156.356 86.1926C156.929 88.0481 156.929 93.2666 156.356 93.7884C156.07 94.0783 154.58 94.8901 152.975 95.4699C151.427 96.1078 149.077 97.0935 147.874 97.6153L145.639 98.601L146.613 97.0355C148.619 93.9624 150.969 89.7296 150.969 89.2077C150.969 88.9178 151.771 87.7582 152.746 86.6565C154.522 84.5691 155.84 84.4531 156.356 86.1926ZM167.017 89.7876C167.017 90.4254 166.787 90.9472 166.444 90.9472C166.157 90.9472 165.87 90.4254 165.87 89.7876C165.87 89.1498 166.157 88.6279 166.444 88.6279C166.787 88.6279 167.017 89.1498 167.017 89.7876Z" fill="black"/>
<path d="M124.031 52.5623C121.452 53.8379 120.191 55.3455 119.733 57.7808C119.274 60.2161 119.733 60.9699 121.166 60.1001C121.796 59.6942 122.427 59.5783 122.656 59.8102C122.885 60.0421 123.114 62.9993 123.114 66.4783C123.172 71.2909 122.942 73.1464 122.14 74.6539C121.166 76.6834 120.822 79.9304 121.624 79.9304C121.853 79.9304 122.369 79.6405 122.77 79.2346C124.433 77.5531 123.974 79.6405 121.739 83.9313C117.383 92.1069 115.148 93.8464 116.523 87.8741C116.867 86.2506 117.383 82.3657 117.555 79.3506L117.899 73.7842L115.778 72.1027C114.632 71.117 112.97 69.7254 112.167 68.9716C111.308 68.2178 109.932 67.464 109.072 67.406C107.582 67.2321 107.525 67.2901 108.041 69.0875C108.327 70.1312 108.442 72.7405 108.27 75.0018C108.155 77.2052 107.869 84.1632 107.697 90.3674C107.353 102.138 107.181 104.341 106.207 106.371C105.748 107.299 105.978 108.4 107.353 111.415C108.27 113.561 109.416 115.3 109.818 115.3C110.219 115.3 111.136 115.474 111.824 115.648C112.798 115.938 113.543 115.532 114.861 114.083C116.81 111.879 116.982 111.125 115.721 110.082C115.205 109.618 114.861 108.342 114.861 106.661C114.861 102.718 115.32 101.442 116.581 101.79C117.211 101.964 118.472 101.674 119.504 101.152C120.535 100.63 121.452 100.341 121.567 100.457C122.197 101.094 122.369 108.4 121.796 110.546C121.223 112.517 121.28 113.271 121.968 114.604C123.229 117.04 125.35 118.315 127.126 117.62C129.247 116.808 129.591 115.648 129.992 108.342C130.164 104.689 130.622 99.6448 131.024 97.1515C131.883 91.4111 131.54 90.9473 125.923 90.7733L121.911 90.6573L123.114 88.0481C123.745 86.5985 124.948 84.3951 125.808 83.1195C126.611 81.8439 127.986 79.4666 128.846 77.785C131.253 72.9724 130.622 71.059 127.184 72.3926C126.324 72.7405 125.522 72.9144 125.464 72.8565C125.35 72.7405 126.267 69.9573 127.528 66.7102C130.279 59.2884 131.024 53.49 129.476 52.2724C128.101 51.2867 126.496 51.3446 124.031 52.5623Z" fill="black"/>
<path d="M216.671 23.9304C218.354 23.4638 220.269 23.4171 221.86 24.3038C223.406 25.1671 225.158 25.5871 226.681 26.4738C227.511 27.7572 227.326 29.4839 226.727 30.8373C226.219 32.0973 226.611 33.7307 225.458 34.6874C225.389 35.434 225.32 36.1807 225.274 36.9274C225.827 37.3708 226.381 37.8374 226.911 38.3041C228.111 38.0708 229.31 38.5608 230.509 38.2808C232.493 38.3041 234.476 38.6541 236.414 39.0975C237.613 39.8908 239.02 40.2875 240.427 40.1475C241.165 40.8942 241.903 41.6409 242.641 42.3875C242.203 42.9942 241.788 43.5776 241.373 44.1843C241.027 44.0909 240.681 43.9976 240.335 43.9043C238.213 46.471 234.5 45.5143 231.962 47.311C230.486 48.3144 228.78 48.8977 227.257 49.8077C225.205 51.5344 222.368 51.6511 220.015 52.7245C218.723 53.6345 218.539 55.2912 218.216 56.7146C217.801 59.2813 216.256 61.4047 215.264 63.7381C214.318 65.1614 215.125 66.8415 214.456 68.3582C215.125 68.5215 215.771 68.6615 216.44 68.7549C218.447 67.2148 219.992 65.1614 221.768 63.3647C222.691 62.4547 223.913 62.058 225.158 61.848C226.957 61.1947 228.503 59.958 230.44 59.7246C232.17 59.1413 233.785 60.4247 235.168 61.288C235.906 62.8047 235.976 64.7181 237.244 65.9781C239.343 62.9914 239.643 59.188 240.427 55.7112C240.796 54.1012 239.989 51.9078 241.65 50.8578C240.704 54.7078 241.419 58.7679 240.589 62.6647C240.196 65.5348 239.92 68.4515 238.928 71.1816C238.236 74.1917 236.691 76.9217 235.191 79.5818C234.569 80.7018 234.292 81.9618 233.761 83.1285C232.954 84.4352 231.663 85.2986 230.648 86.4186C229.425 87.632 228.503 89.2654 227.027 90.3154C226.266 90.9454 225.92 91.9021 225.412 92.6954C225.297 92.5321 225.158 92.3454 225.043 92.1821C224.305 92.8588 223.267 92.9288 222.345 93.1621C222.391 92.7421 222.414 92.3221 222.46 91.9254C221.86 91.7854 221.284 91.6921 220.684 91.5754C220.499 89.8954 219.415 88.4953 219.231 86.8153C218.77 85.6486 218.008 84.1786 218.839 82.9885C220.361 81.2152 221.053 78.9518 222.483 77.1084C223.89 75.195 224.397 72.8383 224.812 70.5282C222.575 69.9449 220.223 70.2249 217.939 70.1782C216.071 70.0382 213.972 70.9482 212.98 72.605C212.081 74.635 211.112 76.7117 211.02 78.9751C211.158 80.7952 212.173 82.4052 212.381 84.2252C212.473 85.6019 212.957 86.9086 213.211 88.2387C213.257 90.0587 212.588 92.1121 213.741 93.7221C213.234 95.1222 212.242 96.2422 211.366 97.4322C208.967 95.8689 207.975 93.0455 207.237 90.4087C207.03 89.7554 207.076 89.0554 207.053 88.3787C206.891 86.302 205.992 84.3652 205.646 82.3119C205.346 80.6085 204.354 79.1384 203.593 77.6217C202.278 77.4584 201.056 76.6417 199.718 76.9684C199.787 76.2917 200.018 75.475 200.71 75.195C202.117 74.8917 203.524 74.565 204.977 74.4017C205.877 74.4483 206.707 75.1483 207.629 74.985C208.737 74.6117 210.374 74.8217 211.043 73.655C211.504 73.0016 211.573 72.1849 211.873 71.4616C213.765 66.9348 214.456 62.0347 215.171 57.2279C214.664 57.0179 214.157 56.5746 213.557 56.6679C212.035 57.1812 210.743 58.3479 209.129 58.5813C208.16 58.6746 207.03 59.3746 206.13 58.6746C204.654 57.6946 202.74 57.0646 201.909 55.3612C200.733 54.3812 199.349 53.5412 198.588 52.1645C202.278 52.8411 206.107 52.5145 209.751 51.8378C211.896 50.7878 214.618 50.6944 216.14 48.6177C216.463 48.6877 216.786 48.7577 217.109 48.8277C217.501 45.351 218.7 41.9442 218.308 38.4208C216.717 36.1574 214.641 34.314 212.681 32.3773C212.819 30.7673 212.081 28.8305 213.05 27.3838C214.272 26.3105 215.264 24.8638 216.671 23.9304ZM214.641 30.5339C213.811 32.844 216.14 34.3374 217.478 35.7607C219.508 33.3107 218.654 29.9039 218.055 27.0805C216.325 27.3372 214.526 28.5505 214.641 30.5339ZM223.152 42.1075C222.506 43.5309 222.391 45.1876 222.944 46.681C224.49 46.2376 226.058 45.7243 227.35 44.7209C227.857 44.3243 227.88 43.5309 227.765 42.9476C227.165 42.2709 226.242 41.7342 225.343 42.0842C224.697 41.4075 223.728 41.2442 223.152 42.1075Z" fill="black"/>
<path d="M247.415 28.8538C249.745 28.2705 252.098 27.8972 254.496 27.8972C255.396 29.1105 256.895 29.9272 257.402 31.3972C257.264 33.2406 256.595 34.9673 256.249 36.764C256.134 37.4874 255.511 37.9541 255.257 38.5841C254.381 41.3608 252.974 43.9975 252.882 46.9609C253.297 48.1976 254.865 48.151 255.926 47.8943C257.818 46.9376 259.755 46.0509 261.669 45.1176C262.177 43.9742 262.407 42.5275 263.538 41.8508C264.645 41.0808 265.498 39.6574 266.997 39.7508C268.519 39.8908 270.065 39.8908 271.587 39.7041C273.778 40.5208 275.646 41.9908 277.561 43.2975C277.468 44.4876 278.045 45.9809 277.122 46.9609C276.108 48.3143 274.447 48.4777 273.017 49.1077C270.595 50.111 267.828 50.1344 265.659 51.6977C265.014 52.1411 264.206 51.3244 263.63 51.9311C262.407 53.3311 261.946 55.2678 261.692 57.0645C262.638 58.8146 262.246 60.798 261.969 62.6647C262.315 65.0214 262.615 67.4248 262.984 69.7815C263.399 69.6882 263.814 69.5948 264.206 69.5015C264.552 69.9448 264.875 70.4115 265.221 70.8549C265.683 71.0182 266.559 70.5515 266.928 71.1349C267.828 72.3249 269.281 72.7682 270.664 73.0483C272.809 73.9349 274.678 75.3583 276.707 76.455C278.622 78.275 281.09 79.7684 282.104 82.3351C282.266 83.6185 282.52 85.7886 280.928 86.2786C277.791 87.7719 274.516 88.962 271.149 89.732C271.633 88.262 272.302 86.8386 272.994 85.4619C272.51 84.4352 272.071 83.3618 271.472 82.3818C270.549 81.2618 269.165 80.7484 267.92 80.1184C266.328 77.575 263.03 76.8517 261.6 74.1683C260.931 74.3549 260.216 74.5183 259.732 75.055C257.748 76.9683 256.48 79.4651 254.773 81.6351C254.473 81.5418 254.15 81.4485 253.85 81.3551C253.966 81.7051 254.081 82.0785 254.196 82.4285C250.483 83.4785 247.093 85.4386 243.425 86.6052C242.964 86.6986 242.503 86.6052 242.088 86.4652C240.496 85.9286 238.859 85.6486 237.336 84.9485C237.313 84.7619 237.244 84.4119 237.221 84.2252C238.882 83.8752 240.634 83.8285 242.18 83.0118C244.832 81.6118 247.784 80.4218 249.537 77.8317C251.106 75.6616 253.62 73.6783 253.551 70.7382C253.689 70.0615 253.274 69.4548 252.628 69.2682C250.944 68.5915 249.422 67.5415 248.154 66.2581C249.514 66.2581 250.898 66.0714 252.259 66.3048C252.836 66.3748 253.574 66.4681 253.943 65.9314C255.857 63.2947 256.503 60.0046 256.987 56.8545C257.218 55.8278 255.995 55.3612 255.488 54.6611C253.643 55.9445 251.175 55.8978 249.03 56.1078C247.554 56.5278 246.216 55.2211 245.985 53.8444C245.732 51.9777 245.593 50.111 245.501 48.221C245.294 46.2843 246.239 44.5342 246.562 42.6675C246.862 40.7308 247.231 38.8174 247.577 36.904C248.499 34.734 245.04 33.9406 245.616 31.8406C246.032 30.7906 246.539 29.6472 247.415 28.8538Z" fill="black"/>
<path d="M313.718 66.0639C314.466 67.2327 314.806 69.2953 314.806 72.9391V78.0955L308.01 81.5331C304.272 83.3894 300.602 84.9706 299.855 84.9706C297.001 84.9706 298.7 87.0332 303.592 89.4395C306.379 90.8145 308.689 92.1896 308.689 92.5333C308.689 92.8771 308.35 93.9771 307.942 95.0771C307.534 96.1084 307.058 98.446 306.854 100.234C306.515 103.121 306.651 103.534 307.738 103.602C312.495 103.946 312.699 103.946 313.107 102.502C313.446 101.196 313.514 101.196 314.194 102.365C314.534 102.984 314.67 103.877 314.466 104.221C313.786 105.252 305.563 111.096 304.68 111.096C304.272 111.096 303.592 110.409 303.253 109.515C302.709 108.209 302.641 108.346 302.641 110.478C302.573 113.296 304 114.671 307.806 115.496C309.573 115.909 310.32 115.634 312.291 113.915C314.941 111.509 315.417 111.371 315.213 112.746C315.009 114.19 313.582 115.634 310.184 117.971C306.854 120.172 307.738 120.722 311.883 119.003C314.941 117.696 314.806 117.696 314.806 119.553C314.806 120.722 313.718 121.89 310.728 124.022C308.553 125.603 306.107 126.909 305.291 126.909C303.389 126.909 303.592 128.628 305.699 130.278C307.602 131.791 308.01 131.722 312.019 128.697C313.31 127.734 314.67 126.909 315.009 126.909C315.349 126.909 315.553 130.897 315.349 136.328L315.077 145.816L311.951 151.866C310.184 155.235 308.961 158.466 309.165 159.222C309.437 160.391 309.709 160.322 312.427 158.466C319.495 153.654 320.718 150.422 319.902 138.803C319.087 128.078 319.087 124.847 319.902 124.159C320.582 123.609 324.048 122.647 328.465 121.753C330.028 121.478 330.232 121.065 330.232 118.728C330.232 115.496 330.979 114.328 336.484 108.346C341.989 102.365 341.989 100.99 336.688 98.5147C334.513 97.4835 331.727 96.6584 330.504 96.6584C328.193 96.6584 322.009 98.996 320.174 100.577C318.679 101.815 318.203 101.677 318.203 100.027C318.203 99.0647 318.883 98.3772 320.242 97.8272C321.465 97.346 322.281 96.5209 322.281 95.8334C322.281 95.1459 323.368 94.0459 324.931 93.2208C328.329 91.5021 328.669 90.952 327.174 89.1645C326.358 88.1332 325.067 87.652 322.825 87.5832C319.97 87.377 319.631 87.2395 319.97 86.0019C320.31 84.7644 321.194 83.8706 325.747 79.883C326.426 79.333 327.785 78.7142 328.941 78.508C330.572 78.0955 330.844 77.7517 330.64 76.3767C330.232 74.4516 327.989 73.6954 324.591 74.3829C322.009 74.8642 321.737 74.1766 322.96 70.8766C323.436 69.639 323.368 68.7453 322.825 67.8515C321.737 66.0639 317.932 64.3451 315.077 64.3451C312.631 64.3451 312.631 64.3451 313.718 66.0639ZM313.175 91.9833C312.155 93.4271 312.087 93.4959 312.087 92.1208C312.087 91.3646 312.495 90.3333 312.903 89.9208C314.194 88.6145 314.398 90.1958 313.175 91.9833ZM319.766 90.8145C319.563 91.4333 319.223 91.7771 319.087 91.5708C318.883 91.3646 318.951 90.952 319.223 90.5395C319.834 89.4395 320.242 89.6458 319.766 90.8145ZM313.854 97.8272C313.65 98.1022 313.446 97.6897 313.514 96.9334C313.514 96.1772 313.718 95.9709 313.922 96.5209C314.126 97.0022 314.058 97.621 313.854 97.8272ZM327.106 106.834C324.931 112.128 320.786 118.659 319.563 118.659C319.155 118.659 318.883 117.903 318.883 117.009C318.883 115.84 319.495 115.153 320.922 114.534C322.417 113.915 322.892 113.296 322.689 112.196C322.485 111.096 322.009 110.753 320.446 110.89C318.815 111.028 318.475 110.821 318.543 109.515C318.543 108.69 318.815 107.59 319.087 107.109C320.106 105.596 328.737 100.027 328.941 100.784C329.077 101.196 328.261 103.877 327.106 106.834Z" fill="black"/>
</svg>
