<svg width="360" height="170" viewBox="0 0 360 170" fill="none" xmlns="http://www.w3.org/2000/svg">
<path d="M31.0949 1.57058C31.0949 2.63276 31.9776 6.45659 33.0565 10.1388L34.9691 16.7951L33.694 18.9903C33.0075 20.1941 31.8305 21.7519 31.0459 22.4601C29.4276 23.9471 29.5747 25.0801 31.3401 25.0801C32.2228 25.0801 32.468 25.3633 32.2719 26.1423C32.0267 27.0628 32.1738 27.1336 33.2036 26.5671C33.9883 26.1423 35.0671 26.0715 36.097 26.5671C38.9413 27.7001 40.8539 27.2753 44.2376 24.6552C46.0521 23.3098 47.7685 21.7519 48.0137 21.2563C48.3079 20.7606 48.8474 20.1941 49.2397 19.9108C49.681 19.6984 49.7301 19.486 49.3868 19.486C48.9945 19.4151 48.7493 18.2822 48.7493 16.2994C48.7493 14.3167 48.406 12.6172 47.7685 11.4134C47.229 10.4221 46.7877 9.43069 46.7877 9.14744C46.7877 8.93501 46.1502 7.73121 45.4146 6.59822C44.0414 4.47387 41.5404 3.19925 38.6961 3.12844C37.9115 3.12844 36.5874 2.63276 35.8518 2.06627C35.1162 1.49977 33.694 0.720842 32.7623 0.366783C31.144 -0.270521 31.0949 -0.199711 31.0949 1.57058Z" fill="black"/>
<path d="M52.035 25.6465C51.5446 26.3547 51.3485 27.2044 51.5446 27.4168C51.6917 27.7001 51.5937 27.9125 51.2504 27.9125C50.9071 27.9125 50.3186 28.4082 49.9263 28.9747C49.4849 29.5412 48.7493 30.0369 48.2099 30.0369C47.7195 30.0369 47.2781 30.3201 47.2781 30.6034C47.2781 31.3115 44.0906 33.5775 43.1098 33.5775C42.7174 33.5775 42.3742 33.8607 42.3742 34.2856C42.3742 34.6396 41.8347 34.9937 41.1482 34.9937C40.4616 34.9937 39.9222 35.2769 39.9222 35.5602C39.9222 36.6224 35.9499 39.384 35.0182 39.03C34.4787 38.8175 33.8412 39.1008 33.4979 39.6673C33.0566 40.4462 33.2037 40.6586 34.3316 40.7294L35.7538 40.8003L34.2826 41.4376C33.4979 41.7916 31.6344 42.1457 30.2613 42.1457C28.8392 42.2165 27.8093 42.4997 27.9074 42.783C28.0545 43.0662 27.8093 43.5619 27.368 43.7744C26.8776 44.0576 26.7304 43.916 26.9756 43.3495C27.2208 42.8538 27.0737 42.7122 26.5833 42.9246C24.3765 44.1992 17.8052 46.3944 17.0205 46.182C16.5301 46.0403 16.1378 45.4738 16.0888 44.9073C16.0397 44.3409 15.9907 43.0662 15.9907 42.0749C15.8926 40.3754 15.8436 40.4462 13.833 43.2787L11.7733 46.2528L12.4108 49.2977C12.8031 50.9972 13.3916 53.8296 13.7839 55.6707C14.6176 59.707 16.1378 62.6103 17.3148 62.6103C17.8052 62.6103 19.1783 61.3357 20.3062 59.7778C21.4341 58.22 22.7092 56.9453 23.0524 56.9453C23.4448 56.9453 23.739 56.7329 23.739 56.3788C23.739 55.8832 25.3083 54.7502 32.5662 50.1474C34.8711 48.7312 36.8817 47.2441 37.0288 46.8901C37.1759 46.536 37.9115 46.182 38.5981 46.0403C39.3337 45.9695 40.0693 45.6155 40.3145 45.3322C40.6087 44.8365 43.7473 42.783 44.1396 42.783C44.4338 42.783 40.8049 50.2182 40.3635 50.4307C40.1183 50.5723 39.9222 51.068 39.9222 51.4928C39.9222 51.9885 39.4808 52.7674 38.9414 53.2631C38.3529 53.7588 38.0586 54.4669 38.2058 54.821C38.3529 55.2459 38.2548 55.5291 37.9606 55.5291C37.6663 55.5291 37.0779 56.6621 36.6855 58.0783C36.2442 59.4946 33.7922 64.5222 31.144 69.2666C28.4959 73.9402 25.7987 78.9678 25.1612 80.384C24.5236 81.8003 23.0034 84.9868 21.7774 87.3944C20.5514 89.8728 19.2273 92.5637 18.835 93.4842C12.0675 108.567 5.1529 122.092 3.82882 122.871C3.14226 123.225 2.65186 124.075 2.65186 124.854C2.65186 125.633 2.40666 126.482 2.16146 126.695C1.86722 126.978 1.76914 127.474 1.91626 127.828C2.11242 128.182 1.7201 129.173 1.08259 130.094C0.396028 131.085 -0.0453306 132.501 0.00370923 133.847C0.00370923 136.396 2.16146 143.265 2.9461 143.336C4.02498 143.336 6.08465 140.362 7.89913 136.113C8.92897 133.705 9.7136 131.581 9.66456 131.369C9.66456 131.156 9.81168 130.731 10.1059 130.519C10.3511 130.306 10.5963 129.527 10.6944 128.89C10.7434 128.182 11.1358 127.332 11.5281 127.049C11.9204 126.695 12.1656 126.128 12.1166 125.845C12.1166 125.562 12.3618 124.217 12.7541 122.871C13.1464 121.596 13.4406 120.251 13.4406 119.897C13.4406 119.543 13.6858 119.26 13.931 119.26C14.1762 119.26 14.3724 119.047 14.3234 118.693C14.1762 117.773 15.3041 114.586 16.4811 112.462C17.7561 110.267 21.5322 101.415 21.4832 100.849C21.4341 100.636 21.6793 100.141 22.0226 99.7865C22.3168 99.3616 24.0823 96.0334 25.8968 92.3512C27.7603 88.669 29.6728 84.8452 30.1632 83.8538C30.7027 82.8624 31.7325 80.8089 32.4681 79.251C33.2037 77.6932 34.4297 75.144 35.2634 73.5861C36.048 72.0282 36.7346 70.6828 36.7836 70.5412C36.8327 70.4704 37.3721 70.6828 38.0586 71.0369C40.2654 72.2407 41.0501 81.0213 39.8731 91.8555C39.1866 98.2994 38.8433 99.22 36.3423 100.99C35.0182 101.84 34.7239 102.194 35.5576 101.982C36.4403 101.698 37.274 102.052 38.0586 102.902C38.7452 103.681 39.8731 104.531 40.5597 104.743C41.2953 105.027 41.7366 105.522 41.5895 105.876C41.0991 107.08 43.8944 106.514 44.7771 105.31C46.3464 103.115 47.131 99.9989 48.0628 92.4928L48.9945 85.27H52.9668C57.5275 85.27 61.1074 83.4289 64.1479 79.6051C65.7171 77.6224 66.6979 74.5775 65.4229 75.7105C65.1777 75.9229 64.9325 75.498 64.9325 74.7899C64.9325 72.5947 62.2843 71.5326 60.3228 72.878C59.4891 73.4445 58.0179 74.0818 57.0861 74.2234C56.1544 74.4358 55.2716 74.5775 55.1736 74.5775C55.0264 74.6483 55.3207 75.0732 55.8111 75.5688C56.6938 76.4894 56.6448 76.631 55.3207 77.9764C53.8985 79.3927 50.1225 81.7295 49.2397 81.7295C48.9455 81.7295 48.7493 79.1802 48.7493 75.7813C48.7493 70.2579 48.6513 69.6915 47.5233 68.4168C46.4445 67.2131 41.0991 65.5844 39.775 66.0092C38.9904 66.2925 41.1482 61.8314 43.7473 57.7951C45.2185 55.5999 47.4253 51.9885 48.7003 49.8642C49.9263 47.7398 51.6427 45.1906 52.4273 44.1992C53.261 43.2787 54.536 41.5792 55.2716 40.517C56.0563 39.384 56.8409 38.5343 57.0371 38.5343C57.2332 38.5343 58.3612 37.3305 59.4891 35.8434C61.2545 33.5066 61.4997 32.8693 61.2545 31.2407C60.8622 29.1163 58.7044 26.4963 57.2332 26.4963C56.7428 26.4255 55.8111 26.0006 55.1245 25.4341C53.5062 24.0887 52.9668 24.1595 52.035 25.6465ZM39.4318 44.5533C38.7452 45.1198 37.8625 45.5446 37.4702 45.5446C37.0779 45.5446 37.4211 45.049 38.2058 44.5533C40.1183 43.2787 41.001 43.2787 39.4318 44.5533ZM36.4894 46.2528C36.4894 46.6068 35.9009 47.0317 35.1653 47.2441C33.8903 47.5982 33.8903 47.5274 34.773 46.6068C35.8519 45.4738 36.4894 45.3322 36.4894 46.2528ZM28.2016 51.3512C25.1121 53.2631 22.4149 54.7502 22.1697 54.6794C21.5813 54.3961 31.6835 47.8814 32.8114 47.8106C33.3508 47.8106 31.2911 49.3685 28.2016 51.3512Z" fill="black"/>
<path d="M45.8071 29.612C45.8071 29.8244 46.0523 30.1785 46.2975 30.3909C46.5918 30.6033 46.7879 30.4617 46.7879 30.1077C46.7879 29.6828 46.5918 29.3287 46.2975 29.3287C46.0523 29.3287 45.8071 29.4704 45.8071 29.612Z" fill="black"/>
<path d="M36.4892 37.1181C36.0969 37.4721 35.9988 37.8262 36.244 37.8262C36.5383 37.8262 37.0777 37.4721 37.47 37.1181C37.8623 36.764 38.0095 36.4099 37.7152 36.4099C37.47 36.4099 36.8816 36.764 36.4892 37.1181Z" fill="black"/>
<path d="M55.8602 100.424C54.7813 100.99 52.6726 101.84 51.2014 102.265C47.8667 103.398 45.807 105.239 41.7857 110.691L38.6962 114.869L37.8625 110.904C36.6856 105.097 36.0971 104.248 33.0076 103.681C30.7027 103.256 30.3104 103.398 29.5748 104.672C28.7411 106.089 28.7411 106.23 29.869 107.576C30.5066 108.355 31.1441 109.629 31.2912 110.408C31.8306 113.311 32.0758 124.146 31.6345 124.5C31.095 124.995 31.2422 135.192 31.8306 137.104C32.223 138.45 35.5086 141.707 36.1952 141.353C36.3914 141.282 36.8817 141.565 37.2741 141.99C37.8135 142.627 38.1568 142.203 38.8924 139.724C40.4126 134.767 41.1482 128.04 40.4617 125.845C39.9713 124.287 40.0203 123.721 41.0011 121.667C42.9137 117.702 50.4658 111.47 53.4572 111.47C54.438 111.47 54.0947 113.099 51.5937 120.18C48.9946 127.615 48.4552 128.465 46.1503 128.465C44.6791 128.465 44.2377 128.819 43.8944 130.023C43.6493 130.944 43.6002 132.006 43.6983 132.501C43.8454 132.926 43.4531 133.988 42.9137 134.767C40.6578 138.025 42.5704 140.007 46.1012 138.025C47.9648 137.033 49.1908 136.963 56.2035 137.529C65.423 138.379 65.9133 138.379 65.9133 137.529C65.9133 135.688 64.7364 130.094 64.1479 129.244C63.8046 128.678 62.2844 127.899 60.7642 127.403L58.0179 126.624L59.7834 124.216C60.7642 122.871 62.0882 121.03 62.7258 120.18C63.3633 119.26 64.0989 118.197 64.295 117.702C64.4912 117.206 65.3249 116.144 66.1095 115.365C66.8941 114.515 67.6297 113.453 67.6788 112.887C67.7769 112.32 67.973 111.045 68.1201 110.054C68.6105 107.222 66.3057 103.964 62.0392 101.557C57.9199 99.1491 58.4102 99.2199 55.8602 100.424Z" fill="black"/>
<path d="M120.811 47.4696C121.946 47.0166 123.08 47.5393 124.19 47.7833C126.483 47.8181 128.968 47.609 131.02 49.3514C133.481 51.3377 142.314 49.1772 144.148 52.2438C144.993 54.6135 145.283 57.2619 145.717 59.8407C149.241 59.6316 152.764 59.1089 156.288 58.8649C157.953 59.2831 159.739 59.7013 161.114 61.2346C163.528 63.2906 164.179 67.4724 165.048 71.0269C163.841 72.3162 162.611 74.0586 161.042 74.198C157.374 74.3374 153.705 74.9995 150.037 74.6859C148.782 74.5117 147.575 73.9889 146.32 73.7799C147.768 72.6299 149.192 71.3405 150.809 70.6784C151.582 70.3647 152.233 69.6678 152.861 68.9708C149.023 66.9497 144.776 67.1936 140.987 69.389C139.442 70.3647 137.825 70.9223 136.184 71.445C131.527 73.9541 126.965 76.8813 122.283 79.3904C119.339 80.9934 116.515 83.363 114.343 86.7084C112.799 88.9387 112.292 92.0402 111.544 94.8629C110.892 97.5462 110.048 100.16 109.734 102.982C109.517 105.108 107.562 105.108 106.452 105.248C103.242 105.631 95.2538 105.457 92.7439 103.575C92.8887 101.17 93.4196 98.8355 93.7092 96.4659C93.9264 94.4447 95.1814 93.1205 95.7847 91.3432C96.7983 88.416 104.038 80.2267 105.293 77.4737C107.152 73.4662 109.01 69.4587 110.386 65.0679C111.834 66.3572 112.413 68.7966 113.185 70.8526C113.837 72.6299 114.174 74.5465 114.657 76.4283C117.095 75.2783 119.411 73.6404 121.704 72.0723C124.214 70.5041 126.893 69.5284 129.306 67.6118C131.285 66.0087 133.988 66.1133 135.484 63.3603C133.94 60.1891 131.502 58.1679 130.03 54.9271C129.161 50.815 121.294 51.7211 120.811 47.4696Z" fill="black"/>
<path d="M131.14 83.0494C133.24 82.3524 135.364 81.6555 137.512 81.3767C140.335 81.5509 143.159 81.7949 145.958 82.4221C146.248 84.9661 146.803 87.5797 146.417 90.1584C145.958 92.4932 144.414 93.7477 143.28 95.3159C141.976 96.7795 141.132 98.9401 139.853 100.439C138.501 102.042 137.15 103.645 135.702 105.073C136.595 106.537 137.705 107.687 138.718 108.976C140.866 111.52 142.121 115.179 144.004 118.072C144.776 119.256 145.862 118.176 146.562 117.41C149.047 114.517 152.04 112.705 154.405 109.569C155.491 108.349 156.094 106.467 157.205 105.282C159.715 103.888 162.635 103.017 165.241 104.446C166.206 105.979 166.979 107.896 167.124 109.952C166.158 114.9 162.828 118.35 162.538 123.717C161.959 126.017 163.697 127.097 164.831 127.899C167.196 128.735 169.73 129.397 171.468 132.081C172.216 133.753 172.747 135.635 173.157 137.517C171.926 138.736 170.623 139.782 169.127 140.13C167.823 140.409 166.52 141.803 165.193 141.141C163.359 139.817 161.573 138.318 159.811 136.75C158.363 135.496 157.591 133.161 156.674 131.244C154.888 125.878 155.684 119.814 156.625 114.273C153.174 115.876 150.302 119.326 147.817 122.985C146.996 124.1 146.658 125.843 147.02 127.376C148.034 131.941 147.913 136.785 148.323 141.489C148.71 145.392 147.575 149.051 146.827 152.676C146.079 155.847 144.896 158.774 143.642 161.597C142.628 164.35 140.552 165.604 138.815 167.207C137.463 168.218 136.039 169.925 134.423 169.263C132.661 167.521 130.585 166.406 129.065 164.141C128.244 162.747 127.496 161.283 126.7 159.854C125.469 160.098 124.142 161.179 122.935 160.447C121.39 158.182 121.101 153.965 122.718 151.595C125.686 146.891 128.848 142.256 130.875 136.506C131.889 133.509 133.747 130.687 133.433 127.132C133.168 125.634 132.806 123.996 131.961 122.95C131.044 122.672 130.006 122.881 129.306 123.787C128.124 125.668 127.593 128.178 126.434 130.094C124.311 133.649 121.439 136.088 119.339 139.712C118.325 141.873 116.636 142.814 115.188 144.138C114.537 143.406 113.861 142.709 113.161 142.082C113.885 139.05 114.681 135.914 116.274 133.544C120.16 127.585 124.069 121.661 127.641 115.319C127.689 117.514 128.341 119.535 128.944 121.522C130.803 120.964 132.757 120.755 134.64 121.312C136.377 122.881 137.439 125.494 138.574 127.864C139.056 126.784 139.611 125.773 140.046 124.693C140.697 123.334 139.853 121.766 139.539 120.476C138.187 115.528 135.002 112.217 131.72 110.231C130.32 110.335 129.21 111.764 127.81 111.938C126.627 111.904 125.01 112.879 124.118 111.346C123.9 108.732 124.842 106.049 126.338 104.585C128.003 102.948 129.33 100.717 130.875 98.8704C132.516 96.6053 134.181 94.0614 134.64 90.7508C132.95 91.3432 131.454 92.9114 129.692 92.9811C128.848 92.075 127.327 90.6114 127.931 88.7993C128.606 86.5691 129.306 83.6767 131.14 83.0494ZM137.97 136.088C135.315 140.897 134.278 147.03 131.937 152.118C131.261 154.279 129.644 155.324 129.065 157.554C131.333 159.053 133.771 160.865 136.329 159.785C137.922 158.6 139.273 156.579 139.78 154.07C140.335 150.968 141.566 148.25 142.073 145.114C143.086 140.235 142.773 135.112 142.749 130.094C140.528 130.756 139.273 133.718 137.97 136.088Z" fill="black"/>
<path d="M219.671 9.41971C217.253 16.8125 215.12 28.5176 214.551 37.3479C214.125 43.4058 214.338 44.8433 215.689 48.129C216.542 50.2852 217.68 52.0307 218.178 52.0307C218.675 52.0307 220.453 48.9504 222.16 45.0487C225.217 38.272 225.288 38.1693 225.502 41.455C225.857 46.2808 222.586 54.9056 217.253 63.4278L212.702 70.8206L216.116 72.6688C217.964 73.6956 219.813 75.0304 220.24 75.6464C220.595 76.1598 222.017 76.6732 223.297 76.6732C227.208 76.6732 226.071 79.2401 221.378 81.0883C219.031 82.1151 216.684 82.8338 216.044 82.8338C214.622 82.8338 215.049 86.8382 216.755 88.5837C217.467 89.4051 219.6 90.0212 221.52 90.0212C224.72 90.0212 224.933 90.2266 224.933 92.6908C224.933 94.9497 224.791 95.1551 223.937 94.1283C223.084 93.2042 222.16 93.4096 219.529 95.0524C217.751 96.2845 215.76 97.2086 215.262 97.2086C214.409 97.2086 214.409 97.6193 215.12 99.2621C216.187 101.726 220.809 103.78 223.226 102.959C224.435 102.445 224.933 102.753 224.933 103.78C224.933 105.32 218.747 109.53 216.471 109.53C214.196 109.53 214.125 111.275 216.4 112.816L218.462 114.253L216.471 118.565C215.404 120.927 212.347 126.164 209.716 130.168C205.734 136.226 204.809 137.253 203.885 136.123C203.032 135.096 202.961 135.199 203.316 136.637C203.529 137.561 203.458 138.279 203.103 138.279C201.681 138.279 202.463 141.565 204.098 142.489C206.729 143.927 209.218 141.873 215.12 133.043L220.595 124.931L221.875 127.601C225.644 135.507 228.204 138.587 231.759 139.306C233.679 139.717 235.599 139.717 236.026 139.204C236.452 138.69 237.021 138.587 237.235 138.998C238.088 140.23 237.235 131.605 236.31 129.347C235.741 128.114 233.892 126.472 232.115 125.547C230.337 124.726 229.199 124.007 229.697 124.007C231.19 123.905 232.115 116.307 232.115 103.883C232.115 97.414 232.47 88.4811 232.826 84.1686C233.892 73.0795 233.75 70.5126 231.973 67.843C229.768 64.4546 228.133 63.9412 225.928 66.0975C224.435 67.4323 224.151 67.5349 224.648 66.4055C225.004 65.5841 226.071 63.1198 226.995 60.9636C227.848 58.9101 229.057 57.1645 229.626 57.1645C231.83 57.1645 239.154 63.3252 239.154 65.1734C239.154 66.4055 240.15 67.4323 242.354 68.3563C245.625 69.6911 249.11 69.2804 249.11 67.4323C249.11 66.8162 249.536 66.4055 250.105 66.4055C250.603 66.4055 251.456 65.7894 251.883 64.968C253.305 62.5038 250.958 58.7047 246.194 55.7271C242.781 53.5708 240.79 53.0575 236.239 53.0575C231.759 53.0575 230.622 52.7494 230.622 51.5173C230.622 50.3879 231.333 50.0798 233.537 50.3879C235.955 50.6959 236.95 50.1825 239.723 47.1022C245.91 40.3255 246.976 38.4773 246.976 34.3702C246.976 29.2364 243.208 23.3838 239.794 23.1784C235.812 22.8704 231.83 23.4865 229.91 24.5132C228.488 25.232 228.275 25.232 229.057 24.2052C230.337 22.2543 230.124 15.8884 228.488 10.6518C226.853 5.31262 226.853 5.31262 223.795 4.38853C221.662 3.6698 221.52 3.87515 219.671 9.41971ZM240.79 28.0043C241.572 29.2364 239.368 34.0622 235.67 38.9907C233.75 41.6603 231.901 43.8165 231.759 43.8165C231.546 43.8165 230.266 42.071 228.915 39.9148C226.568 36.3211 226.497 36.0131 227.706 34.2676C230.195 30.5712 239.51 26.1561 240.79 28.0043ZM224.933 119.695C224.933 122.159 224.72 122.57 223.511 122.159C222.231 121.646 222.231 121.44 223.297 119.182C224.72 115.999 224.933 116.101 224.933 119.695Z" fill="black"/>
<path d="M200.756 33.0354C200.187 33.2407 198.196 33.7541 196.348 34.0622C192.579 34.7809 191.939 36.5264 194.57 39.196C202.747 47.5128 205.449 48.5396 208.863 44.7406C211.209 42.071 211.494 36.2184 209.289 34.5755C207.796 33.4461 202.463 32.4193 200.756 33.0354Z" fill="black"/>
<path d="M208.151 52.9548C207.796 54.0843 205.52 57.8833 203.174 61.477C196.205 71.8474 192.65 75.2358 191.512 72.5662C191.157 71.7447 190.73 71.334 190.588 71.5394C190.446 71.8474 189.663 73.2849 188.881 74.9277L187.388 77.7L189.308 83.0392C190.588 86.7356 191.797 88.5838 193.148 89.3025C194.925 90.1239 195.494 89.8159 197.983 86.3249C199.476 84.066 200.756 81.9098 200.756 81.4991C200.756 81.0884 201.396 79.4455 202.249 77.8027C203.032 76.2625 203.743 74.3117 203.814 73.4903C203.956 72.6688 204.24 71.4367 204.525 70.718C204.88 70.1019 204.952 69.4858 204.738 69.4858C204.596 69.4858 205.52 65.4814 206.8 60.5529C208.151 55.6244 209.147 51.5174 209.005 51.312C208.934 51.1067 208.507 51.9281 208.151 52.9548Z" fill="black"/>
<path d="M208.649 73.0795C206.089 82.8338 206.729 107.476 209.716 115.896L210.711 118.771L212.276 116.512C213.911 114.15 214.053 111.583 212.845 103.985C211.991 98.338 212.489 89.9185 214.053 83.0391C214.978 78.8294 214.978 78.316 213.2 73.0795C212.205 69.9991 211.067 67.4322 210.711 67.4322C210.356 67.4322 209.431 69.9991 208.649 73.0795Z" fill="black"/>
<path d="M275.804 58.1093C273.955 58.6227 274.31 61.1896 277.012 66.5288L279.43 71.4573L277.368 74.3323C275.306 77.2072 275.092 79.2608 277.155 76.7965C277.795 75.9751 278.435 75.7698 278.719 76.3858C279.003 76.8992 281.777 77.3099 284.905 77.3099C289.67 77.3099 290.807 77.0019 292.016 75.2564C293.652 72.8948 293.723 66.5288 292.158 63.8592C289.172 58.52 288.247 57.9039 282.559 57.9039C279.501 57.8013 276.444 57.9039 275.804 58.1093Z" fill="black"/>
<path d="M324.655 60.0601C323.872 61.1895 318.753 65.2966 313.206 69.1983C307.66 73.1001 303.038 76.5911 303.038 76.8991C303.038 77.2072 304.958 78.85 307.375 80.4928L311.642 83.4705L311.215 91.6846C311.002 96.2024 310.646 101.542 310.433 103.595C310.006 107.189 309.864 107.292 305.953 108.216L301.971 109.14L305.384 112.015L308.869 114.992L308.442 121.256C307.731 131.01 307.233 135.63 306.522 137.581C305.669 139.943 305.74 143.639 306.807 146.514C307.731 149.286 311.286 151.237 312.069 149.492C312.282 148.876 312.637 142.715 312.708 135.938C313.064 117.559 313.135 117.559 317.828 120.229C320.388 121.769 320.601 121.666 321.455 119.613C322.664 116.841 323.375 118.483 324.015 126.081C324.797 134.706 328.21 141.483 333.756 145.077C337.596 147.541 338.663 147.849 342.716 147.336C345.276 146.925 347.551 146.309 347.765 145.898C347.978 145.385 348.547 145.077 348.902 145.077C349.329 145.077 351.107 144.461 352.955 143.639C359.071 141.072 361.631 133.885 358.929 127.108C358.075 125.157 357.009 123.515 356.44 123.515C355.871 123.515 355.089 122.59 354.662 121.461C354.235 120.332 353.738 119.202 353.524 118.894C353.311 118.586 352.244 116.738 351.107 114.787C349.471 111.912 349.187 111.707 349.542 113.555C350.396 117.251 350.609 127.211 349.969 129.675C349.258 132.55 344.494 135.322 340.583 135.322C338.165 135.322 337.312 134.706 335.179 131.421C333.827 129.367 333.045 128.648 333.472 129.88C333.97 131.113 334.325 132.447 334.325 132.961C334.254 134.501 332.263 128.751 331.481 125.055C330.628 120.434 329.917 106.367 330.628 106.984C331.481 107.702 331.481 103.492 330.699 101.336C330.272 100.104 330.343 98.0506 331.054 95.1757C331.623 92.7114 331.979 90.4525 331.765 89.9391C331.552 89.5284 331.908 88.399 332.476 87.4749C333.116 86.5508 333.472 85.524 333.259 85.0106C333.045 84.5999 333.401 82.4437 334.041 80.3902C334.61 78.3366 334.752 76.8991 334.396 77.3098C333.188 78.3366 333.472 76.2831 334.894 73.6135C335.605 72.2787 336.53 69.301 337.027 67.0421C337.81 63.3458 337.738 62.7297 336.387 61.0869C335.534 60.1628 333.827 59.3414 332.548 59.3414C331.268 59.3414 329.277 59.0333 328.139 58.7253C326.574 58.3146 325.65 58.6226 324.655 60.0601ZM324.299 80.0821C323.944 84.0865 323.659 91.4793 323.517 96.5105C323.304 104.725 323.161 105.443 321.952 104.93C321.241 104.622 319.535 104.314 318.184 104.314C316.051 104.314 315.766 104.006 316.122 102.055C316.264 100.926 316.691 97.0238 316.975 93.4301C317.33 88.2963 317.259 86.6535 316.264 85.216C315.197 83.4705 315.268 83.0598 317.473 79.8768C319.606 76.6938 323.446 72.6894 324.441 72.6894C324.655 72.6894 324.583 75.975 324.299 80.0821ZM330.485 105.238C330.272 105.649 330.059 105.033 330.13 103.903C330.13 102.774 330.343 102.466 330.557 103.287C330.77 104.006 330.699 104.93 330.485 105.238Z" fill="black"/>
<path d="M291.661 85.0106C291.661 85.6267 292.087 85.832 292.585 85.4213C293.012 85.1133 292.514 85.9347 291.376 87.4748C289.03 90.4525 288.176 90.9659 289.598 88.3989C290.523 86.8588 290.452 86.8588 288.39 88.3989C287.181 89.323 285.901 89.7337 285.687 89.323C285.403 89.015 285.403 89.5284 285.687 90.5552C286.114 92.0953 285.972 92.3007 285.19 91.6846C283.981 90.5552 281.705 90.2471 281.705 91.1712C281.705 92.4033 271.181 96.6131 268.053 96.7158C264 96.8185 263.431 98.4613 265.493 104.314C267.982 111.604 268.906 111.399 284.55 100.309C300.193 89.1177 301.544 86.8588 294.007 84.4972C292.443 84.0865 291.661 84.1892 291.661 85.0106Z" fill="black"/>
<path d="M278.15 109.448C278.15 111.912 284.834 120.948 286.683 120.948C289.243 120.948 292.443 117.765 291.945 115.608C291.732 114.479 291.945 113.76 292.443 113.76C292.869 113.76 292.087 112.323 290.594 110.68C288.105 107.805 287.465 107.599 282.985 107.805C279.359 107.908 278.15 108.421 278.15 109.448Z" fill="black"/>
<path d="M297.563 116.327C297.065 117.149 296.638 118.278 296.638 118.894C296.638 119.407 296.283 119.921 295.856 119.921C295.501 119.921 295.358 120.332 295.572 120.948C295.785 121.461 295.643 121.974 295.287 121.974C294.861 121.974 294.505 122.693 294.505 123.515C294.505 124.336 293.865 125.568 293.083 126.287C292.301 127.006 291.661 127.93 291.661 128.443C291.661 128.854 292.016 128.956 292.514 128.546C293.012 128.135 293.083 128.238 292.798 129.059C292.514 129.675 292.016 129.983 291.661 129.675C291.305 129.367 290.807 129.675 290.523 130.291C290.239 131.01 289.883 131.01 289.599 130.394C288.959 128.854 283.27 124.952 282.914 125.876C282.772 126.287 282.63 130.702 282.63 135.63C282.559 140.867 282.203 145.282 281.777 145.898C280.212 148.157 280.923 155.139 282.986 158.63C286.683 164.791 287.536 164.277 291.092 153.599C294.861 142.407 296.212 136.76 295.572 135.322C295.358 134.809 295.501 134.296 295.998 134.296C296.496 134.296 296.638 133.988 296.425 133.577C296.141 133.269 296.212 132.447 296.567 131.831C296.923 131.215 297.349 129.059 297.563 127.108C297.776 125.157 298.132 121.564 298.416 119.099C298.985 114.479 298.914 114.068 297.563 116.327Z" fill="black"/>
<path d="M331.552 121.461C331.623 123.412 332.832 126.697 332.832 125.055C332.832 124.233 332.548 122.796 332.192 121.974C331.837 121.153 331.552 120.845 331.552 121.461Z" fill="black"/>
</svg>
