<svg width="325" height="389" viewBox="0 0 325 389" fill="none" xmlns="http://www.w3.org/2000/svg">
<path opacity="0.41" d="M322.6 45.52C323.47 45.52 324.18 44.81 324.18 43.94V25.05C324.18 24.18 323.47 23.47 322.6 23.47H305.3V6.16997C305.3 5.29997 304.59 4.58997 303.72 4.58997H284.84C283.97 4.58997 283.26 5.29997 283.26 6.16997V23.47H267.55V6.16997C267.55 5.29997 266.84 4.58997 265.97 4.58997H176.15H152.69H62.87C62 4.58997 61.29 5.29997 61.29 6.16997V23.47H45.58V6.16997C45.58 5.29997 44.87 4.58997 44 4.58997H25.12C24.25 4.58997 23.54 5.29997 23.54 6.16997V23.47H6.24002C5.37002 23.47 4.66003 24.18 4.66003 25.05V43.93C4.66003 44.8 5.37002 45.51 6.24002 45.51H23.54V61.22H6.24002C5.37002 61.22 4.66003 61.93 4.66003 62.8V206.58V227.56V330.72C4.66003 331.59 5.37002 332.3 6.24002 332.3H23.54V348.01H6.24002C5.37002 348.01 4.66003 348.72 4.66003 349.59V368.47C4.66003 369.34 5.37002 370.05 6.24002 370.05H23.54V387.35C23.54 388.22 24.25 388.93 25.12 388.93H44C44.87 388.93 45.58 388.22 45.58 387.35V370.05H61.29V387.35C61.29 388.22 62 388.93 62.87 388.93H152.69H176.15H265.97C266.84 388.93 267.55 388.22 267.55 387.35V370.05H283.26V387.35C283.26 388.22 283.97 388.93 284.84 388.93H303.72C304.59 388.93 305.3 388.22 305.3 387.35V370.05H322.6C323.47 370.05 324.18 369.34 324.18 368.47V349.62C324.18 348.75 323.47 348.04 322.6 348.04H305.3V332.33H322.6C323.47 332.33 324.18 331.62 324.18 330.75V227.58V206.6V62.81C324.18 61.94 323.47 61.23 322.6 61.23H305.3V45.52H322.6ZM286.43 366.92V351.2H302.15V366.92H286.43ZM286.43 348.04V332.33H302.15V348.04H286.43ZM284.84 329.16C283.97 329.16 283.26 329.87 283.26 330.74V348.04H265.96C265.09 348.04 264.38 348.75 264.38 349.62V366.92H176.14H152.68H64.44V349.62C64.44 348.75 63.73 348.04 62.86 348.04H45.56V330.74C45.56 329.87 44.85 329.16 43.98 329.16H26.68V230.44V203.73V64.4H43.98C44.85 64.4 45.56 63.69 45.56 62.82V45.52H62.86C63.73 45.52 64.44 44.81 64.44 43.94V26.64H152.68H176.14H264.38V43.94C264.38 44.81 265.09 45.52 265.96 45.52H283.26V62.82C283.26 63.69 283.97 64.4 284.84 64.4H302.14V203.74V230.45V329.17H284.84V329.16ZM26.69 366.92V351.2H42.4V366.92H26.69ZM42.4 26.64V42.36H26.69V26.64H42.4ZM42.4 45.52V61.23H26.69V45.52H42.4ZM26.69 332.33H42.4V348.04H26.69V332.33ZM302.14 61.23H286.42V45.52H302.14V61.23ZM286.43 42.35V26.64H302.15V42.36H286.43V42.35ZM321.02 42.35H305.31V26.64H321.02V42.35ZM286.43 7.75996H302.15V23.47H286.43V7.75996ZM283.26 42.35H267.55V26.64H283.26V42.35ZM64.45 7.75996H152.69H176.15H264.39V23.47H176.15H152.69H64.45V7.75996ZM61.28 42.35H45.57V26.64H61.28V42.35ZM26.69 7.75996H42.4V23.47H26.69V7.75996ZM7.81003 26.64H23.52V42.36H7.81003V26.64ZM7.81003 227.58V206.6V64.4H23.52V203.74V230.45V329.17H7.81003V227.58ZM7.81003 351.21H23.52V366.92H7.81003V351.21ZM42.4 385.8H26.69V370.09H42.4V385.8ZM45.57 351.21H61.28V366.92H45.57V351.21ZM264.38 385.8H176.14H152.68H64.44V370.09H152.68H176.14H264.38V385.8ZM267.55 351.21H283.26V366.92H267.55V351.21ZM302.14 385.8H286.42V370.09H302.14V385.8ZM321.02 366.92H305.31V351.2H321.02V366.92ZM321.02 206.6V227.58V329.16H305.31V230.44V203.73V64.4H321.02V206.6Z" fill="#77161B"/>
<path d="M318.78 18.88H302.3V2.4C302.3 1.07 301.23 0 299.9 0H281.02C279.69 0 278.62 1.07 278.62 2.4V18.88H264.54V2.4C264.54 1.07 263.47 0 262.14 0H172.32H148.86H59.04C57.71 0 56.64 1.07 56.64 2.4V18.88H42.56V2.4C42.56 1.07 41.49 0 40.16 0H21.28C19.95 0 18.88 1.07 18.88 2.4V18.88H2.39999C1.06999 18.88 0 19.95 0 21.28V40.16C0 41.49 1.06999 42.56 2.39999 42.56H18.88V56.64H2.39999C1.06999 56.64 0 57.71 0 59.04V202.82V223.8V326.96C0 328.29 1.06999 329.36 2.39999 329.36H18.88V343.44H2.39999C1.06999 343.44 0 344.51 0 345.84V364.72C0 366.05 1.06999 367.12 2.39999 367.12H18.88V383.6C18.88 384.93 19.95 386 21.28 386H40.16C41.49 386 42.56 384.93 42.56 383.6V367.12H56.64V383.6C56.64 384.93 57.71 386 59.04 386H148.86H172.32H262.14C263.47 386 264.54 384.93 264.54 383.6V367.12H278.62V383.6C278.62 384.93 279.69 386 281.02 386H299.9C301.23 386 302.3 384.93 302.3 383.6V367.12H318.78C320.11 367.12 321.18 366.05 321.18 364.72V345.84C321.18 344.51 320.11 343.44 318.78 343.44H302.3V329.36H318.78C320.11 329.36 321.18 328.29 321.18 326.96V223.81V202.82V59.04C321.18 57.71 320.11 56.64 318.78 56.64H302.3V42.56H318.78C320.11 42.56 321.18 41.49 321.18 40.16V21.28C321.18 19.95 320.11 18.88 318.78 18.88ZM283.42 362.33V348.25H297.5V362.33H283.42ZM283.42 343.45V329.37H297.5V343.45H283.42ZM281.02 324.57C279.69 324.57 278.62 325.64 278.62 326.97V343.45H262.14C260.81 343.45 259.74 344.52 259.74 345.85V362.33H172.32H148.86H61.44V345.85C61.44 344.52 60.37 343.45 59.04 343.45H42.56V326.97C42.56 325.64 41.49 324.57 40.16 324.57H23.68V226.67V199.96V61.44H40.16C41.49 61.44 42.56 60.37 42.56 59.04V42.56H59.04C60.37 42.56 61.44 41.49 61.44 40.16V23.68H148.86H172.32H259.74V40.16C259.74 41.49 260.81 42.56 262.14 42.56H278.62V59.04C278.62 60.37 279.69 61.44 281.02 61.44H297.5V199.96V226.67V324.57H281.02ZM23.69 362.33V348.25H37.77V362.33H23.69ZM37.76 23.68V37.76H23.68V23.68H37.76ZM37.76 42.56V56.64H23.68V42.56H37.76ZM23.69 329.37H37.77V343.45H23.69V329.37ZM297.5 56.64H283.42V42.56H297.5V56.64ZM283.42 37.76V23.68H297.5V37.76H283.42ZM283.42 4.8H297.5V18.88H283.42V4.8ZM278.62 37.76H264.54V23.68H278.62V37.76ZM61.45 4.8H148.87H172.33H259.75V18.88H172.33H148.87H61.45V4.8ZM56.64 37.76H42.56V23.68H56.64V37.76ZM23.69 4.8H37.77V18.88H23.69V4.8ZM4.81 23.68H18.89V37.76H4.81V23.68ZM4.81 223.81V202.82V61.44H18.89V199.96V226.67V324.57H4.81V223.81ZM4.81 348.25H18.89V362.33H4.81V348.25ZM37.76 381.21H23.68V367.13H37.76V381.21ZM42.57 348.25H56.65V362.33H42.57V348.25ZM259.74 381.21H172.32H148.86H61.44V367.13H148.86H172.32H259.74V381.21ZM264.54 348.25H278.62V362.33H264.54V348.25ZM297.5 381.21H283.42V367.13H297.5V381.21ZM316.38 362.33H302.3V348.25H316.38V362.33ZM316.38 202.82V223.8V324.56H302.3V226.66V199.95V61.44H316.38V202.82ZM316.38 37.76H302.3V23.68H316.38V37.76Z" fill="url(#paint0_radial_144_8)"/>
<defs>
<radialGradient id="paint0_radial_144_8" cx="0" cy="0" r="1" gradientUnits="userSpaceOnUse" gradientTransform="translate(160.594 193.005) scale(177.538)">
<stop stop-color="#E78B3A"/>
<stop offset="0.0991" stop-color="#E88E3C"/>
<stop offset="0.1924" stop-color="#E99743"/>
<stop offset="0.2833" stop-color="#ECA64F"/>
<stop offset="0.3728" stop-color="#EFBB60"/>
<stop offset="0.4604" stop-color="#F4D479"/>
<stop offset="0.4887" stop-color="#F5DD82"/>
<stop offset="1" stop-color="#E78B3A"/>
</radialGradient>
</defs>
</svg>
