<svg width="110" height="24" viewBox="0 0 110 24" fill="none" xmlns="http://www.w3.org/2000/svg">
<path d="M19.1989 8H16.5568C16.4006 7.24006 16.1272 6.57244 15.7365 5.99716C15.353 5.42188 14.8843 4.93892 14.3303 4.5483C13.7834 4.15057 13.1762 3.85227 12.5085 3.65341C11.8409 3.45455 11.1449 3.35511 10.4205 3.35511C9.09945 3.35511 7.90272 3.68892 6.83028 4.35653C5.76494 5.02415 4.91622 6.00781 4.28411 7.30753C3.65911 8.60724 3.34661 10.2017 3.34661 12.0909C3.34661 13.9801 3.65911 15.5746 4.28411 16.8743C4.91622 18.174 5.76494 19.1577 6.83028 19.8253C7.90272 20.4929 9.09945 20.8267 10.4205 20.8267C11.1449 20.8267 11.8409 20.7273 12.5085 20.5284C13.1762 20.3295 13.7834 20.0348 14.3303 19.6442C14.8843 19.2464 15.353 18.7599 15.7365 18.1847C16.1272 17.6023 16.4006 16.9347 16.5568 16.1818H19.1989C19 17.2969 18.6378 18.2947 18.1122 19.1754C17.5867 20.0561 16.9333 20.8054 16.152 21.4233C15.3708 22.0341 14.4936 22.4993 13.5206 22.8189C12.5547 23.1385 11.5213 23.2983 10.4205 23.2983C8.55968 23.2983 6.90485 22.8438 5.45599 21.9347C4.00712 21.0256 2.86721 19.733 2.03624 18.0568C1.20528 16.3807 0.789795 14.392 0.789795 12.0909C0.789795 9.78977 1.20528 7.80114 2.03624 6.125C2.86721 4.44886 4.00712 3.15625 5.45599 2.24716C6.90485 1.33807 8.55968 0.883522 10.4205 0.883522C11.5213 0.883522 12.5547 1.04332 13.5206 1.36293C14.4936 1.68253 15.3708 2.15128 16.152 2.76918C16.9333 3.37997 17.5867 4.12571 18.1122 5.00639C18.6378 5.87997 19 6.87784 19.1989 8Z" fill="black"/>
<path d="M25.6415 1.18182V23H23.1273V1.18182H25.6415Z" fill="black"/>
<path d="M30.2465 23V6.63636H32.7607V23H30.2465ZM31.5249 3.90909C31.0348 3.90909 30.6122 3.74219 30.2571 3.40838C29.9091 3.07457 29.7351 2.6733 29.7351 2.20455C29.7351 1.7358 29.9091 1.33452 30.2571 1.00071C30.6122 0.666903 31.0348 0.5 31.5249 0.5C32.0149 0.5 32.434 0.666903 32.782 1.00071C33.1371 1.33452 33.3147 1.7358 33.3147 2.20455C33.3147 2.6733 33.1371 3.07457 32.782 3.40838C32.434 3.74219 32.0149 3.90909 31.5249 3.90909Z" fill="black"/>
<path d="M44.0133 23.3409C42.4792 23.3409 41.1582 22.9787 40.0503 22.2543C38.9423 21.5298 38.09 20.532 37.4935 19.2607C36.8969 17.9893 36.5986 16.5369 36.5986 14.9034C36.5986 13.2415 36.904 11.7749 37.5148 10.5036C38.1327 9.22514 38.992 8.22727 40.0929 7.50994C41.2008 6.78551 42.4935 6.4233 43.9707 6.4233C45.1213 6.4233 46.1582 6.63636 47.0815 7.0625C48.0048 7.48864 48.7612 8.08523 49.3507 8.85227C49.9402 9.61932 50.306 10.5142 50.448 11.5369H47.9338C47.742 10.7912 47.3159 10.1307 46.6554 9.5554C46.002 8.97301 45.1213 8.68182 44.0133 8.68182C43.0332 8.68182 42.1739 8.9375 41.4352 9.44886C40.7037 9.95312 40.1319 10.6669 39.72 11.5902C39.3152 12.5064 39.1128 13.5824 39.1128 14.8182C39.1128 16.0824 39.3116 17.1832 39.7094 18.1207C40.1142 19.0582 40.6824 19.7862 41.4139 20.3047C42.1525 20.8232 43.019 21.0824 44.0133 21.0824C44.6667 21.0824 45.2598 20.9688 45.7925 20.7415C46.3251 20.5142 46.7761 20.1875 47.1454 19.7614C47.5148 19.3352 47.7775 18.8239 47.9338 18.2273H50.448C50.306 19.1932 49.9544 20.0632 49.3933 20.8374C48.8393 21.6044 48.1043 22.2152 47.1881 22.6697C46.279 23.1172 45.2207 23.3409 44.0133 23.3409Z" fill="black"/>
<path d="M56.4672 17.0341L56.4246 13.9233H56.9359L64.095 6.63636H67.2058L59.578 14.3494H59.3649L56.4672 17.0341ZM54.1234 23V1.18182H56.6376V23H54.1234ZM64.5212 23L58.1291 14.9034L59.9189 13.1562L67.7172 23H64.5212Z" fill="black"/>
<path d="M81.8622 1.18182V23H79.2202V1.18182H81.8622Z" fill="black"/>
<path d="M93.9352 6.63636V8.76705H85.4551V6.63636H93.9352ZM87.9267 2.71591H90.4409V18.3125C90.4409 19.0227 90.5439 19.5554 90.7498 19.9105C90.9629 20.2585 91.2328 20.4929 91.5595 20.6136C91.8933 20.7273 92.2449 20.7841 92.6142 20.7841C92.8912 20.7841 93.1185 20.7699 93.296 20.7415C93.4736 20.706 93.6156 20.6776 93.7221 20.6562L94.2335 22.9148C94.0631 22.9787 93.8251 23.0426 93.5197 23.1065C93.2143 23.1776 92.8273 23.2131 92.3585 23.2131C91.6483 23.2131 90.9523 23.0604 90.2704 22.755C89.5957 22.4496 89.0346 21.9844 88.5872 21.3594C88.1469 20.7344 87.9267 19.946 87.9267 18.9943V2.71591Z" fill="black"/>
<path d="M109.479 1.18182L109.265 16.8636H106.794L106.581 1.18182H109.479ZM108.03 23.1705C107.504 23.1705 107.053 22.9822 106.677 22.6058C106.3 22.2294 106.112 21.7784 106.112 21.2528C106.112 20.7273 106.3 20.2763 106.677 19.8999C107.053 19.5234 107.504 19.3352 108.03 19.3352C108.555 19.3352 109.006 19.5234 109.383 19.8999C109.759 20.2763 109.947 20.7273 109.947 21.2528C109.947 21.6009 109.859 21.9205 109.681 22.2116C109.51 22.5028 109.28 22.7372 108.988 22.9148C108.704 23.0852 108.385 23.1705 108.03 23.1705Z" fill="black"/>
</svg>
