<svg width="54" height="71" viewBox="0 0 54 71" fill="none" xmlns="http://www.w3.org/2000/svg">
<path d="M27.3399 3.08105C27.3299 3.08105 27.3299 3.08105 27.3199 3.08105C13.7099 3.46105 3.31993 9.06105 3.36993 28.3411C3.39993 39.7711 4.43993 43.1511 7.76993 56.1911C10.0799 65.2211 22.3399 69.9811 27.0199 70.2911C27.1199 70.2811 27.2199 70.2711 27.3299 70.2611C27.4399 70.2711 27.5399 70.2811 27.6399 70.2911C32.3199 69.9811 44.5799 65.2211 46.8899 56.1911C50.2199 43.1411 51.2599 39.7711 51.2899 28.3411C51.3499 9.06105 40.9599 3.47105 27.3399 3.08105Z" fill="#EEC0A1"/>
<path d="M48.6899 36.2812L47.2 47.6712C53.04 50.2412 53.9599 36.8413 53.9599 36.8413C52.6099 33.4913 48.6899 36.2812 48.6899 36.2812Z" fill="#EEC0A1"/>
<path d="M0 36.8413C0 36.8413 0.91 50.2412 6.76 47.6712L5.27 36.2812C5.27 36.2812 1.35 33.4913 0 36.8413Z" fill="#EEC0A1"/>
<path d="M2.34998 21.2209C2.34998 21.2209 2.59998 27.2609 3.68998 36.3309L5.81998 49.1309L7.58998 50.2809L5.81998 32.3109L8.84998 25.1409L9.44997 19.3209L9.66998 18.5209V8.6709C2.59998 9.6009 2.34998 21.2209 2.34998 21.2209Z" fill="#240700"/>
<path d="M7.6899 10.3013C7.8599 11.9313 8.8199 13.1813 8.7399 14.9513C8.6699 16.3813 8.20991 18.8413 7.01991 19.7313C7.02991 23.4913 7.2199 29.4813 4.6399 32.5613C4.2099 31.4013 4.0899 29.8113 3.3999 28.8113C3.7999 29.0413 4.2199 29.2713 4.6499 29.3413C4.4299 27.6913 3.3499 25.5013 3.6399 23.8113C4.2299 24.3413 4.7499 24.8813 5.3499 25.3613C5.4599 24.2813 4.4999 23.3813 4.2299 22.3613C3.9499 21.3013 3.3699 18.8613 3.5299 17.7313C4.3099 18.1513 4.9099 19.0113 5.5799 19.5713C5.4099 18.4613 5.4599 17.1613 5.4999 16.0013C5.9699 16.0913 6.3599 16.4213 6.8699 16.5513C7.0199 15.7213 6.3699 15.0113 6.1899 14.2313C6.0399 13.6113 6.0599 12.9513 6.0899 12.3013C6.5999 12.5813 7.0999 12.9713 7.5599 13.2913C7.2499 12.6313 6.7099 10.9813 7.3499 10.4013" fill="#3A1C0A"/>
<path d="M52.1199 12.951C49.4899 -1.91897 25.0499 0.0910299 25.0499 0.0910299C0.599918 3.65103 9.67992 18.531 9.67992 18.531C10.3699 16.111 12.5499 14.551 15.1999 13.561C15.9899 14.841 19.9499 20.311 30.3699 21.431C30.3699 21.431 27.3599 17.881 27.8699 16.441C27.8699 16.441 37.2199 26.501 44.7599 28.491V24.451C44.7599 24.451 46.9499 30.131 48.6699 32.741L46.9399 50.291L48.7099 49.141L50.8399 36.341C54.0499 29.291 52.1199 12.951 52.1199 12.951Z" fill="#240700"/>
<path d="M10.83 9.83104C11.27 10.491 12.19 11.311 12.46 11.821C12.56 10.911 12.05 10.131 12.12 9.25104C13.45 9.93104 15.15 10.111 16.5 10.621C16.46 9.88104 16.31 8.93104 16.06 8.21104C18.3 8.02104 19.76 10.001 21.85 10.041C21.92 8.88104 21.37 7.97104 21.29 6.93104C23.5 6.85104 25.48 8.87104 27.66 8.64104C27.59 7.92104 27.32 6.89104 27.13 6.12104C29.16 6.00104 32.38 8.59103 33.93 9.78103C33.99 8.80103 33.88 7.78104 34.08 6.81104C36.95 7.90104 39.25 10.111 41.83 11.681C41.92 10.801 41.6 9.99104 41.62 9.13104C44.64 10.601 46.31 14.321 48.45 16.761C48.47 16.051 47.89 15.521 47.91 14.821C48.46 15.551 48.97 16.361 49.53 17.101C48.31 15.461 47.4 13.171 46.6 11.251C46.91 11.941 47.21 12.611 47.56 13.271C46.34 11.491 44.23 9.77104 43.68 7.62104C43.5 8.11104 43.83 8.69104 44.19 9.10104C43.2 7.79104 41.06 5.82104 39.54 5.25104C39.62 6.00104 40.42 6.50103 40.56 7.24103C39.41 6.59104 38.16 5.07104 36.87 4.85104C36.94 5.04104 36.88 5.43104 36.96 5.64104C35.5 5.90104 33.67 4.50104 32.46 3.81104C32.43 4.29104 32.68 4.72104 32.77 5.18104C31.66 4.90104 30.55 3.96104 29.41 3.81104C29.27 4.17104 29.28 4.58104 29.42 4.95104C27.82 5.02104 26.24 4.38104 24.68 4.52104C24.74 4.70104 24.69 5.14104 24.75 5.28104C23.95 4.87104 22.01 4.28104 21.11 4.62104C20.32 4.92104 20.49 4.94104 20.59 5.88104C19.25 5.96104 17.89 5.86104 16.55 5.91104C16.52 6.30104 16.38 6.66104 16.4 7.05104C15.44 7.14104 14.49 6.89104 13.53 6.97104C13.53 7.20104 13.36 7.40104 13.38 7.63104C12.43 7.68104 10.8 7.31104 11.06 8.79104C10.94 8.76104 10.77 8.75104 10.63 8.70104C10.52 9.19104 10.64 9.60103 11.08 9.73103" fill="#3A1C0A"/>
</svg>
