<svg width="427" height="122" viewBox="0 0 427 122" fill="none" xmlns="http://www.w3.org/2000/svg">
<path d="M32.3789 -14.2487C32.8768 -15.0482 33.5737 -15.7227 34.2457 -16.3972C35.9134 -15.6477 37.6308 -15.0482 39.2238 -14.1488C40.319 -13.5492 39.9954 -12.0253 40.2941 -10.976C40.8915 -4.73046 40.2941 1.51513 39.8959 7.76072C41.2897 6.01195 42.5094 4.16326 43.8286 2.36453C45.1727 0.640749 46.0438 -1.45777 46.243 -3.63124C46.2181 -5.23011 45.098 -6.40428 44.2268 -7.62841C44.4757 -8.00315 44.7246 -8.37788 44.9735 -8.72763C46.0687 -8.30293 47.3132 -8.15304 48.284 -7.42855C49.8521 -6.30435 51.2211 -4.93032 52.7643 -3.75615C52.6896 -2.28219 52.7643 -0.633353 51.7438 0.5658C49.4538 3.9634 46.7657 7.06121 44.1024 10.159C42.6836 10.8335 41.1404 11.2333 39.8212 12.0827C39.6968 13.007 39.5723 13.9563 39.4478 14.8807C41.5386 14.0063 43.6046 12.8571 44.7993 10.8585C46.2927 11.0334 47.8111 11.3832 49.3294 11.3082C50.7979 11.1583 52.2167 10.8086 53.6603 10.6087C53.7101 10.7836 53.7848 11.1084 53.8346 11.2832C52.6896 12.5323 51.8184 13.9563 51.0219 15.4303C49.7027 16.7544 47.8359 17.254 46.2181 18.1284C43.8784 19.3775 41.2897 20.127 38.9749 21.476C39.5723 24.4739 39.3981 27.5467 39.0247 30.5696C38.4273 33.4925 37.8797 36.4904 38.054 39.4883C38.5518 39.6882 39.0745 39.863 39.5723 40.0379C40.0452 38.5889 40.6675 37.1649 41.5884 35.9158C42.584 34.6167 43.1565 33.0928 43.4303 31.494C43.8784 32.1185 44.177 32.893 44.7993 33.3926C45.4713 33.8173 46.243 33.4676 46.8901 33.2427C50.0512 31.9686 53.287 30.7445 56.0249 28.621C58.2402 26.9222 61.2021 26.4725 63.2681 24.5489C64.3135 23.5745 64.0894 22.0007 64.2637 20.7266C62.8449 21.6009 61.6004 22.6752 60.2563 23.6245C59.5843 22.95 58.8873 22.2755 58.2153 21.6009C59.2607 21.0014 60.2563 20.3268 61.2021 19.5774C61.003 19.3275 60.779 19.0777 60.5799 18.8029C58.4393 19.4774 56.3734 20.3768 54.2328 21.0763C53.3616 21.4011 52.5154 20.9264 51.7438 20.6016C52.0922 20.0021 52.4656 19.4025 53.1127 19.0777C55.9751 17.4039 59.2109 16.3546 61.7995 14.2311C62.6707 13.5067 63.7161 12.9071 64.3881 11.9827C65.0851 9.43454 65.2842 6.76142 65.7322 4.16326C63.4423 4.46305 61.1524 4.66291 58.8873 5.03764C58.6135 4.73785 58.0908 4.16326 57.817 3.86347C58.1904 3.41379 58.5638 2.91414 59.0864 2.66432C61.003 1.71499 63.0938 1.16538 64.9606 0.091135C65.5829 -0.2836 65.6327 -1.10802 65.8318 -1.70759C66.1554 -3.18155 66.678 -4.73046 66.23 -6.25438C65.6326 -6.00456 65.0602 -5.75473 64.4628 -5.50491C64.0894 -7.47852 64.413 -9.50209 64.0397 -11.4757C65.3837 -11.9004 66.8274 -11.5257 67.9475 -10.7262C70.1378 -8.72763 70.3121 -5.60484 71.0339 -2.90675C74.3692 -4.90533 77.4307 -7.77831 81.4132 -8.37788C83.3547 -8.22799 84.6739 -6.57915 86.0429 -5.35502C85.5202 -4.55558 85.1966 -3.60625 84.5245 -2.93173C82.6826 -1.70759 80.5421 -0.983105 78.5757 0.0161896C76.4351 1.11541 73.9959 1.4152 71.681 1.9898C71.2579 2.13969 70.6108 2.2646 70.5361 2.81421C70.2872 4.61294 70.3618 6.43665 70.0134 8.23538C70.2623 8.46022 70.7601 8.90991 70.9841 9.13475C72.9256 7.81068 75.2155 7.08619 77.5303 6.78641C78.7997 6.56157 80.1687 6.78641 81.239 7.53588C82.7573 8.71005 82.6827 11.7079 80.7412 12.4324C77.3063 14.3061 73.2243 15.0306 70.2623 17.7037C69.2418 18.628 69.9138 20.077 70.7352 20.8515C72.2784 19.8272 73.6972 18.653 75.0164 17.3539C75.564 16.6045 76.46 16.3796 77.3312 16.3297C81.9608 15.88 86.5656 16.8043 91.1952 17.1541C90.2494 18.2033 89.3782 19.3775 88.0839 20.0271C87.0883 20.4518 86.8145 21.6259 86.1922 22.4004C85.8188 23.2498 84.7983 23.3997 84.0516 23.8244C82.2097 24.7487 80.0194 24.4239 78.2272 25.4732C73.8963 27.8465 69.64 30.3448 65.0353 32.1935C64.9855 34.3419 65.0602 36.5404 64.5126 38.6389C64.0148 40.9872 63.0191 43.5604 64.0894 45.9088C65.6078 43.3606 66.8772 40.6625 68.3457 38.0643C69.3911 36.2906 70.8099 34.7666 72.2037 33.2677C73.2243 32.4183 74.5186 32.0186 75.6386 31.369C76.9329 30.5946 78.4513 30.3198 79.9447 30.3947C81.4879 30.9194 82.8818 31.7688 84.3254 32.4932C83.7032 33.3177 83.28 34.3669 83.504 35.4162C84.9726 42.3863 85.3708 49.5562 85.2215 56.6512C85.8935 61.9225 87.0634 67.1188 87.6358 72.3901C87.9096 76.3373 88.5817 80.2845 88.507 84.2567C88.3328 84.8812 88.731 85.8555 88.1088 86.3552C86.8145 87.7792 85.3459 89.0533 83.9521 90.4023C83.1556 91.0769 82.2346 92.226 81.0399 91.6515C79.1731 90.4523 77.0076 89.7778 74.7924 89.6529C74.2697 88.4787 73.8714 87.2046 73.0002 86.2053C71.0339 83.807 69.1422 81.3088 66.6781 79.4101C65.8318 78.7106 65.0104 77.9611 64.189 77.2616C64.1641 79.2102 64.7615 81.3587 63.6912 83.1575C63.1436 84.2317 62.2227 85.0311 61.3017 85.7556C60.0323 85.0561 58.6882 84.1068 58.1406 82.7078C57.7424 79.6849 58.3397 76.6121 57.9913 73.5892C57.4686 67.7933 57.7175 61.9724 58.0411 56.1765C58.29 51.9045 58.0908 47.4827 59.4598 43.3856C60.2563 40.5126 61.4013 37.3648 60.107 34.4419C57.5432 36.2906 55.1537 38.3891 52.59 40.2877C51.6193 41.2371 50.1508 41.0372 48.9809 41.5618C48.0848 41.9366 47.6119 42.9109 46.6412 43.2107C45.4465 43.8102 44.2268 44.3099 42.9823 44.7846C42.3351 43.8602 41.688 42.9109 40.8168 42.2114C39.7465 44.6596 38.054 46.958 38.1038 49.756C37.6308 55.8767 37.0086 62.0973 38.0291 68.168C38.3278 71.2908 37.9295 74.4386 38.4522 77.5614C38.8505 79.0853 38.0291 80.4843 37.5811 81.8584C36.909 83.6071 36.3614 85.4059 35.8885 87.2296C35.0422 86.8798 34.1462 86.5551 33.4741 85.9055C32.603 84.1817 32.1798 82.2581 31.6322 80.4344C31.0597 78.3359 30.3877 76.2373 30.089 74.0639C30.537 72.1902 31.0349 70.3165 31.5078 68.4428C32.3789 65.7697 32.3789 62.8968 32.5283 60.1237C32.6279 59.1744 32.4536 58.25 32.1549 57.3757C31.682 57.8004 31.2589 58.275 31.01 58.8496C29.8152 61.5727 28.9689 64.4457 27.4008 66.9939C26.007 69.3172 24.8371 71.7905 23.3188 74.0139C22.1738 75.313 20.78 76.3623 19.635 77.6613C18.042 75.8876 16.9717 73.6392 16.673 71.2908C16.5486 69.2423 15.6525 67.1687 16.2001 65.0952C16.9717 62.597 18.1914 60.2486 19.1621 57.8253C21.228 52.2543 23.2441 46.6832 25.3349 41.1371C26.5546 38.489 28.0729 35.9908 29.3423 33.3676C29.9895 31.8437 31.4082 30.8444 32.1798 29.3954C32.5781 27.8465 32.4038 26.2477 32.4536 24.6488C30.2135 26.3976 28.1973 28.4961 25.7581 29.97C23.5179 31.2941 22.0992 33.5925 20.0084 35.0914C18.042 36.5904 16.3495 38.3891 14.4329 39.938C10.6993 41.9616 6.46793 40.3127 2.78414 39.0636C1.93786 38.3641 1.24093 37.4897 0.643555 36.5404C1.3156 36.2156 1.96275 35.8409 2.65969 35.5661C4.07845 35.3412 5.67143 35.7409 6.94085 34.8666C11.222 32.3933 15.6027 30.0949 19.859 27.6217C24.3393 24.9486 28.2969 21.476 32.827 18.8529C33.0759 9.33461 34.4946 -0.108723 35.8138 -9.52707C35.9632 -10.4764 35.4654 -11.3508 35.2165 -12.2252C34.3951 -11.8754 33.5239 -11.6256 32.6776 -11.4007C32.5532 -12.4 32.3789 -13.3244 32.3789 -14.2487ZM74.5932 38.7888C72.2038 41.9366 69.1422 44.8095 68.0221 48.7068C69.1173 48.5319 70.2125 48.357 71.3077 48.2071C73.0749 49.7061 74.2697 51.7047 75.7382 53.4784C74.8172 54.4777 73.9959 55.6019 72.826 56.3264C70.0383 57.8004 67.4248 59.9239 66.1056 62.8718C67.823 63.1965 69.5405 63.6462 71.2828 63.8461C72.9754 63.8711 74.5932 63.2965 76.236 62.9217C77.2565 64.1958 76.8085 65.7947 76.5596 67.2437C76.3107 67.0438 76.0618 66.844 75.788 66.6441C74.2448 67.7433 72.7264 68.8426 71.2579 70.0167C69.6649 69.1923 67.8728 69.4421 66.1553 69.2922C65.0602 69.0674 64.1641 68.3179 63.1934 67.8183C62.6707 69.4671 63.3925 71.066 63.7659 72.6649C64.1143 73.7391 64.1143 75.0882 65.0353 75.8876C66.0807 76.762 67.5243 76.9618 68.8186 77.1867C72.9256 77.7363 77.0574 78.4358 81.2141 78.161C81.1145 71.1659 80.791 64.1709 80.3678 57.1758C80.2185 55.0023 79.5464 52.9038 79.2727 50.7304C79.1233 49.1565 79.9945 47.5826 79.5216 46.0337C78.7748 43.7353 78.3766 41.2371 76.9578 39.2635C76.3854 38.7388 75.1657 37.8145 74.5932 38.7888ZM29.641 45.0344C28.5956 47.7325 27.4506 50.4556 27.1519 53.3785C27.3511 53.5783 27.5751 53.7782 27.7742 54.003C28.6454 53.3535 29.4668 52.629 30.089 51.7047C31.0349 50.4056 32.1798 49.2314 33.0012 47.8324C33.051 45.634 33.1257 43.3856 32.8021 41.2121C31.1095 41.7867 30.2881 43.4855 29.641 45.0344ZM65.5082 52.7539C64.7117 55.5519 63.9899 58.375 63.2432 61.198C64.4877 60.1237 65.7571 58.8496 67.5243 58.9496C68.0968 57.0259 68.3457 55.0023 68.6195 53.0038C67.599 52.9288 66.5536 52.8539 65.5082 52.7539Z" fill="#231815"/>
<path d="M16.25 7.31099C16.6482 7.06117 17.0714 6.81135 17.4696 6.56152C17.5941 6.66145 17.7185 6.7364 17.843 6.83633C17.8928 7.68573 18.4653 8.36025 19.0377 8.95983C21.0539 11.0583 22.9704 13.2818 25.1857 15.2054C26.1813 14.6058 27.2018 14.0312 28.2472 13.5566C28.5957 15.2554 26.7787 15.9049 25.9075 17.0291C25.3101 18.4281 25.5093 20.052 24.9617 21.451C24.4639 22.0756 23.6425 22.3504 22.9953 22.8001C21.5268 21.7008 20.1329 20.4767 19.0626 18.9778C18.6395 18.4531 18.7639 17.6787 18.7888 17.0541C18.8635 15.4552 18.9631 13.7564 18.2164 12.3075C17.3701 10.7086 16.6731 9.03478 16.25 7.31099Z" fill="#231815"/>
<path d="M172.619 14.2588C167.251 15.6247 166.873 15.8524 166.797 17.8254C166.797 19.3431 167.326 20.2537 168.99 21.2402C170.2 21.9232 171.182 22.8338 171.182 23.2132C171.182 23.5168 169.595 25.2621 167.629 27.0075C165.588 28.7529 163.773 30.7259 163.546 31.4089C162.941 33.1542 165.21 37.7832 166.419 37.3279C167.931 36.7208 167.629 37.7073 164.831 41.881C161.732 46.6618 161.051 49.0901 162.261 51.5943C163.244 53.8709 163.849 54.0227 165.21 52.3532C166.344 50.9873 171.938 47.9519 172.392 48.483C172.997 49.0142 169.141 53.1879 166.344 55.1609C164.831 56.1475 163.471 57.4375 163.244 58.0446C162.941 58.8034 163.093 58.8793 163.773 58.2722C164.983 57.3616 169.67 56.5269 169.67 57.2857C169.67 58.9552 167.1 60.5488 161.429 62.3701C156.137 64.0395 154.776 64.2672 153.566 63.4324C151.676 62.2942 146.232 60.3211 146.232 60.8523C146.232 61.08 146.762 62.2942 147.442 63.5083C148.879 66.392 148.047 67.6061 143.964 68.2891C142.301 68.5168 140.94 69.048 140.94 69.4274C140.94 69.8068 142.15 71.021 143.662 72.1592C146.081 74.0564 146.61 74.1323 147.971 73.2975C149.408 72.4628 149.786 72.6146 151.6 74.7393C153.037 76.4847 154.171 77.1677 155.381 76.94C157.044 76.7124 157.195 76.3329 157.044 73.1458L156.968 69.655L161.429 68.5168C163.849 67.9097 165.89 67.5303 165.89 67.7579C165.89 67.9097 165.21 69.7309 164.302 71.7039C162.866 75.1188 162.488 75.4223 157.346 77.3194C154.322 78.3818 149.03 80.5066 145.476 81.9484C138.596 84.8321 136.479 85.2115 135.043 83.7697C134.362 83.0867 134.135 83.4662 134.135 85.5909C134.135 87.1086 134.362 88.854 134.589 89.537C135.118 90.9788 137.462 91.1306 138.823 89.7646C139.73 88.854 154.549 82.3279 158.178 81.2655C159.161 80.9619 157.044 83.542 152.659 87.8675C145.854 94.4695 145.325 95.1525 144.871 98.7191L144.342 102.513L139.655 102.741C135.572 102.969 134.967 102.741 134.513 101.451C134.287 100.616 131.716 98.4156 128.919 96.4425C123.928 93.0277 122.643 91.51 121.66 88.0193C121.282 86.5774 122.416 82.6314 123.55 81.6449C123.853 81.4172 124.458 80.1272 124.987 78.7613C125.894 76.5606 125.894 76.1812 124.609 75.1188C121.131 72.3869 120.677 72.3869 114.478 74.5876C111.151 75.7259 108.429 76.94 108.429 77.2436C108.429 77.5471 110.395 78.0024 112.89 78.306L117.351 78.7613L117.804 82.7073C118.712 89.3852 119.921 92.3447 123.702 96.4425C127.784 100.996 127.633 102.134 122.416 103.955C119.921 104.79 128.964 101.17 129.191 102.612C129.493 105.572 131.913 108.228 134.483 108.455C135.768 108.607 139.322 108 142.422 107.165C149.075 105.268 153.46 105.192 164.952 106.71C169.716 107.393 175.991 108.228 178.864 108.607C181.813 108.986 186.425 109.745 189.146 110.201C194.136 111.187 194.363 111.111 203.134 108.228C208.124 106.634 212.584 104.964 213.114 104.585C214.399 103.523 218.709 101.17 220.296 100.563C220.977 100.335 221.582 99.8043 221.582 99.4248C221.582 99.0454 222.111 98.7419 222.791 98.7419C224.984 98.7419 223.094 97.3759 220.221 96.9206C208.048 95.0994 184.035 98.9467 179.499 100.389C176.248 101.451 150.013 102.513 150.013 101.603C150.013 101.223 151.071 99.9333 152.356 98.6432C153.642 97.429 155.381 95.2284 156.288 93.7866C157.195 92.3447 158.329 90.6753 158.859 90.1441C160.749 88.171 159.766 87.6398 157.195 89.2334C154.625 90.827 154.549 90.827 154.549 89.3852C154.549 86.1221 169.292 77.2436 176.475 76.2571C181.389 75.5741 183.128 73.9046 181.162 71.7039C179.499 69.9586 174.055 69.5792 172.241 71.0969C170.653 72.3869 170.956 71.5522 173.451 67.8338C174.509 66.2402 175.87 64.9501 176.55 64.9501C178.592 64.9501 179.726 63.053 178.743 61.2318C178.289 60.397 178.138 58.8034 178.441 57.7411C178.819 56.2992 178.441 55.3127 177.155 53.8709C176.248 52.8844 175.794 52.0497 176.172 52.0497C176.55 52.0497 177.836 51.139 179.121 50.0766C180.331 49.0142 182.448 47.4965 183.884 46.5859C187.135 44.6129 186.909 42.3363 183.355 40.5151C181.238 39.4527 180.482 39.3768 179.65 40.1357C179.045 40.591 178.138 41.0463 177.685 41.0463C177.231 41.1222 175.87 41.5016 174.736 42.0328C173.602 42.4881 171.712 43.1711 170.653 43.3987L168.687 43.9299L170.124 41.5016C170.88 40.1357 173.224 37.1761 175.265 34.8996C178.214 31.5606 178.819 30.4223 178.441 28.9046C178.138 27.6905 177.458 27.0075 176.475 27.0075C174.358 27.0075 174.509 26.4763 178.365 22.3785C182.145 18.2807 182.901 14.79 180.331 13.3482C179.499 12.9687 178.743 12.5893 178.592 12.6652C178.441 12.7411 175.794 13.424 172.619 14.2588Z" fill="#231815"/>
<path d="M154.549 17.5977C154.549 19.5708 141.318 25.0345 138.747 24.1239C137.311 23.6686 138.294 27.6905 140.033 29.4358C141.318 30.7259 141.469 30.7259 143.964 28.9805C145.401 28.0699 148.274 26.4763 150.315 25.6416L153.944 23.9721L153.415 26.8557C152.886 29.8153 150.92 33.4578 150.24 32.7748C150.013 32.5471 149.257 33.0783 148.576 33.8372C147.896 34.6719 146.232 35.5067 144.796 35.7343C140.864 36.4173 139.579 37.6315 139.806 40.591C139.957 41.9569 140.411 43.3987 140.94 43.7023C141.696 44.1576 141.696 45.4476 140.94 49.6972C139.881 56.1475 140.259 58.3481 142.754 59.4864C144.493 60.2453 144.947 59.9417 149.332 55.2368C151.903 52.4291 154.851 48.7866 155.986 47.1171C158.103 44.0058 159.993 38.7697 159.312 38.0868C158.934 37.7073 152.356 43.5505 149.332 46.8895C147.442 49.0142 146.762 48.483 147.366 45.3717C148.047 41.7293 149.332 40.3633 153.113 39.225C155.91 38.3903 156.137 38.1627 155.683 36.1137C155.305 34.5202 155.91 32.6989 158.103 28.6011C159.615 25.6416 161.505 22.9856 162.261 22.7579C163.849 22.3026 163.924 21.6955 162.715 19.0396C162.261 17.9772 161.278 17.0665 160.446 16.9907C155.759 16.5353 154.549 16.6871 154.549 17.5977Z" fill="#231815"/>
<path d="M111.831 46.2824L109.563 47.3448L112.058 48.2555C114.478 49.1661 114.553 49.3937 114.1 51.9738C113.797 53.4915 113.344 55.0092 113.117 55.4646C111.983 57.2099 112.361 58.1205 113.797 57.3617C114.78 56.7546 115.234 56.8305 115.234 57.3617C115.234 57.817 115.612 57.9688 115.99 57.7411C116.443 57.4376 116.595 56.9064 116.368 56.5269C116.065 56.1475 116.746 55.9199 117.653 55.9957C118.636 56.0716 121.055 55.3887 123.021 54.478C125.743 53.188 126.575 52.3533 126.575 51.0632C126.575 46.586 117.653 43.7023 111.831 46.2824Z" fill="#231815"/>
<path d="M168.914 83.0109C168.914 83.3903 169.67 84.0733 170.653 84.6045C175.038 86.9569 174.887 90.2959 170.2 93.6348C168.007 95.2284 167.931 95.3802 169.67 94.9249C170.729 94.6972 173.375 94.9249 175.492 95.5319C177.76 96.0631 181.087 96.3667 183.053 96.0631C186.531 95.6837 186.682 95.5319 187.362 92.876C188.194 89.4611 186.984 87.7158 181.767 85.0598C178.365 83.3903 168.914 81.8726 168.914 83.0109Z" fill="#231815"/>
<path d="M250.055 1.47209C249.828 1.77563 249.601 2.83803 249.601 3.90042C249.601 4.96281 243.598 19.9653 241.254 24.5943C233.694 39.392 222.957 55.3279 216.758 60.9434C215.094 62.4611 213.734 64.1305 213.734 64.7376C213.734 65.3447 213.431 66.1036 212.977 66.3312C211.617 67.166 212.221 68.0766 213.885 67.6213C214.943 67.3936 215.321 67.4695 214.943 68.0766C214.263 69.2149 215.624 69.2149 217.665 68.1525C218.875 67.4695 219.102 67.5454 218.572 68.3801C216.985 70.8843 222.05 66.5589 225.831 62.0058C230.518 56.3903 241.632 38.8608 245.866 30.4375C247.983 26.0361 248.89 24.9738 249.873 25.3532C252.368 26.2638 255.695 28.9198 257.585 31.424C260.156 34.9147 262.046 35.6736 264.617 34.3835C266.658 33.2452 267.036 32.107 266.204 29.0716C265.599 26.9468 260.609 24.6702 256.149 24.5943C254.258 24.5184 251.915 24.4426 251.007 24.3667L249.344 24.2149L255.045 9.6677C256.33 6.17698 256.481 5.34224 255.65 4.27985C254.289 2.76214 250.66 0.865005 250.055 1.47209Z" fill="#231815"/>
<path d="M291.835 23.0007C286.769 24.5943 275.731 31.3481 275.731 32.8658C275.731 33.0935 276.865 32.7899 278.226 32.2587C281.628 30.8169 291.608 29.9063 291.608 31.0446C291.608 33.0935 289.718 39.0884 288.811 39.999C288.281 40.6061 287.979 41.2891 288.206 41.6685C288.659 42.3515 284.199 44.3245 283.518 43.7174C283.291 43.4139 283.518 42.7309 283.972 42.1238C285.333 40.4543 284.652 37.6466 282.686 36.6601C281.704 36.2048 280.494 35.37 280.04 34.9147C278.755 33.6247 276.638 33.9282 276.184 35.37C275.958 36.1289 275.731 38.5572 275.655 40.7579L275.428 44.8557L274.067 43.0344C273.387 42.1238 272.706 40.9855 272.706 40.6061C272.706 39.8473 268.775 36.2807 268.397 36.6601C268.246 36.8118 268.17 39.0884 268.17 41.7444C268.246 44.4004 268.246 47.8152 268.246 49.3329C268.17 51.1542 268.851 52.9754 270.363 55.0243C272.328 57.8321 272.404 58.2115 271.421 59.5774C269.304 62.3093 266.582 68.9872 264.768 75.6651C263.256 81.2047 263.104 82.9501 263.785 85.4543C264.39 87.8826 264.919 88.6415 266.507 88.945C268.246 89.2486 270.816 88.1862 273.16 86.1373C273.614 85.682 273.765 84.6196 273.614 83.6331C272.706 78.8523 274.975 71.2638 277.243 71.2638C278.604 71.2638 279.738 74.7545 280.116 79.6111C280.418 84.3919 282.082 87.9585 283.367 86.6685C283.745 86.289 284.047 83.7089 284.199 80.7494L284.425 75.5133L286.92 74.9821C289.793 74.3751 289.793 74.4509 287.752 77.2587C286.542 78.9282 286.316 79.9906 286.694 81.8118C287.147 84.0884 287.298 84.1643 291.079 84.0884C298.564 83.9366 301.134 81.9636 297.43 79.1558L295.615 77.714L297.43 74.4509C299.698 70.3531 299.471 68.1525 296.674 67.3936C294.557 66.7865 290.323 68.6078 285.635 72.0985L283.518 73.6921L281.174 71.3396L278.831 68.9872L284.955 64.4341C289.037 61.3987 292.667 59.4257 295.918 58.3633C302.117 56.4661 302.42 56.4661 304.915 58.5909C306.805 60.2604 306.956 60.7916 306.881 65.8759C306.729 74.9821 304.159 82.1912 299.32 87.1238C296.144 90.311 293.649 91.601 290.701 91.4492C288.055 91.2975 287.903 92.284 290.474 92.9669C291.532 93.1946 292.364 93.6499 292.364 93.9535C292.364 94.4847 295.993 96.23 298.488 96.7612C304.915 98.203 308.619 97.2165 311.039 93.4223C311.795 92.284 312.627 91.2216 312.929 90.918C313.836 90.311 315.726 83.6331 316.936 76.9552C318.599 67.8489 317.314 60.9434 313.231 57.3768C309.829 54.3413 305.671 52.7478 301.286 52.7478C295.993 52.8236 286.542 57.1491 280.267 62.3852C277.999 64.2823 276.033 65.7241 275.882 65.5724C275.428 65.1171 278.755 58.1356 280.116 56.6179C282.384 54.0378 287.525 51.5336 291.23 51.1542C295.615 50.6989 296.144 50.3953 296.144 48.2705C296.144 47.284 296.598 45.9181 297.203 45.0833C297.732 44.2486 298.337 43.1862 298.413 42.8068C298.564 42.3515 299.32 41.0614 300.227 39.9231C301.059 38.709 301.815 37.343 301.815 36.8877C301.89 36.3565 302.344 34.9147 302.873 33.7006C303.403 32.4105 304.007 30.1339 304.234 28.6162C304.688 25.2773 303.478 23.6837 299.774 22.6213C296.674 21.7866 295.766 21.7866 291.835 23.0007ZM283.291 48.8017C283.291 48.9535 282.762 49.3329 282.082 49.5606C281.477 49.7882 281.174 49.7123 281.401 49.257C281.855 48.4982 283.291 48.1946 283.291 48.8017Z" fill="#231815"/>
<path d="M248.89 37.5707C247.076 38.7089 245.035 39.316 243.825 39.1642C241.027 38.7848 240.876 41.3649 243.598 42.5791C245.866 43.5656 245.942 44.2486 244.203 46.0698C239.062 51.4577 236.793 54.3413 235.962 56.7696C234.45 61.2469 235.886 61.7781 242.237 58.7426L246.244 56.9214L245.942 59.9568C245.715 62.461 245.186 63.3717 242.918 64.8894C240.725 66.4071 240.12 66.5588 239.742 65.6482C239.137 64.0546 236.415 63.5234 236.34 65.0411C235.962 70.3531 236.264 72.9332 237.398 74.0715C238.457 75.2098 238.684 75.2098 238.684 74.2232C238.684 73.6162 240.196 71.5673 242.086 69.746L245.488 66.4071V69.2148C245.488 72.2502 242.01 78.7764 238.91 81.5841C238.003 82.4947 237.171 83.5571 237.171 84.0883C237.171 84.5436 236.869 84.9231 236.415 84.9231C235.508 84.9231 235.357 91.5251 236.264 92.0563C237.247 92.6634 248.361 86.6684 252.293 83.5571C255.846 80.6735 256.829 79.687 258.87 76.7275C260.609 74.2232 259.627 73.8438 256.073 75.7409C252.066 77.7899 251.537 77.7899 251.537 75.2856C251.537 74.0715 253.351 70.5807 256.149 66.4829C260.987 59.2738 261.592 56.6937 258.492 56.2384C257.585 56.0867 255.619 56.6937 254.107 57.6044C252.671 58.515 251.31 59.1221 251.083 58.9703C250.932 58.7426 251.007 57.5285 251.234 56.1625C251.612 54.4931 252.671 53.1271 254.788 51.6853C258.946 48.8776 259.022 47.9669 255.317 47.3599C252.444 46.9045 252.293 46.6769 252.444 44.4762C252.52 43.0344 253.351 41.289 254.41 40.3025C258.492 36.4324 254.183 34.3076 248.89 37.5707ZM245.942 51.9889C245.488 53.1271 241.783 54.8725 241.103 54.1895C240.876 53.9619 241.859 52.5959 243.296 51.0782C245.261 49.0293 245.942 48.6499 246.093 49.6364C246.244 50.3194 246.169 51.3818 245.942 51.9889ZM253.729 61.4745C252.142 63.5234 251.083 64.2823 250.932 63.6752C250.629 62.8405 254.863 58.3632 255.922 58.3632C256.073 58.3632 255.09 59.805 253.729 61.4745Z" fill="#231815"/>
<path d="M358.217 27.532C360.501 26.4503 362.708 25.2141 365.145 24.5187C366.069 25.3686 366.916 26.373 368.096 26.8366C369.097 27.3517 370.303 27.3002 371.304 27.8153C371.843 28.5622 372.382 29.3606 372.664 30.262C373.074 31.8073 371.868 33.0951 371.56 34.5374C369.867 40.9504 370.252 47.6724 369.815 54.24C371.586 53.2613 373.357 51.922 375.486 51.9735C376.641 51.8962 377.719 52.2826 378.745 52.6946C378.566 53.9824 378.925 55.3989 378.258 56.5837C376.436 58.8501 377.052 61.9407 376.718 64.6192C375.512 65.0828 374.203 65.2888 372.997 65.7524C371.971 66.319 371.073 67.0402 370.123 67.7098C370.175 69.3066 370.277 70.9292 370.252 72.526C370.021 75.2303 369.251 77.8315 368.994 80.51C368.892 81.4887 369.379 82.4159 369.764 83.2916C370.945 82.2356 372.202 81.2312 372.997 79.8147C377.18 73.3244 381.132 66.6796 385.135 60.0863C386.597 57.7426 387.803 55.2444 388.753 52.6431C390.215 48.239 392.474 43.8092 391.473 38.993C390.164 40.2807 389.266 41.9033 388.291 43.4228C387.855 43.1395 387.418 42.8562 386.982 42.5729C387.393 41.1049 387.649 39.5854 388.24 38.1688C389.292 37.3962 390.446 36.7523 391.678 36.2887C392.961 36.366 394.09 37.1644 395.271 37.628C397.4 38.5036 398.837 40.461 400.813 41.5942C401.455 41.9806 402.199 42.2639 402.661 42.9077C403.2 44.1182 403.071 45.4575 403.2 46.7452C403.379 47.8785 402.378 48.7026 401.917 49.604C398.683 54.2142 395.835 59.1076 392.653 63.7693C391.858 65.0055 391.832 66.5508 391.55 67.9416C397.991 65.5206 404.662 63.7178 411.334 62.1725C414.105 62.1467 417.364 60.9105 419.802 62.7906C421.983 64.3359 423.189 66.8084 424.703 68.9461C426.089 70.9807 426.704 73.6592 425.755 76.0029C423.651 80.5873 421.983 85.352 420.033 89.9879C418.904 92.6922 417.954 95.4995 416.543 98.075C415.055 100.831 413.772 103.715 412.283 106.445C410.538 109.33 408.332 111.905 406.356 114.635C404.072 117.056 401.763 119.477 399.094 121.486C397.914 121.744 396.297 121.795 395.476 120.739C394.116 118.885 392.525 117.056 392.037 114.738C391.729 111.39 391.935 108.016 391.858 104.642C389.035 107.012 386.238 109.433 383.415 111.802C381.773 111.365 380.157 110.849 378.54 110.309C380.721 108.068 383.21 106.059 384.827 103.329C387.418 99.3112 390.19 95.3707 392.397 91.1211C394.552 87.2836 396.733 83.4204 398.144 79.2223C396.964 79.5056 395.681 79.7116 394.988 80.8191C389.805 87.8245 384.827 94.9844 379.566 101.938C377.898 103.664 376.564 106.033 374.152 106.806C373.228 107.038 372.792 105.904 372.561 105.209C372.458 103.277 372.92 101.32 372.638 99.3627C372.253 97.1993 373.177 95.1389 373.511 93.0527C374.563 92.6149 375.615 92.1513 376.385 91.2756C379.079 88.3653 381.337 85.0944 383.954 82.1069C384.775 81.0767 385.725 80.1237 386.289 78.939C386.289 78.1406 385.981 77.3679 385.776 76.5953C381.594 80.51 377.796 84.8369 373.511 88.6229C372.099 90.0136 370.098 90.4772 368.481 91.5589C367.711 92.3831 367.147 93.5163 367.352 94.6753C367.48 98.5643 368.276 102.402 368.455 106.291C368.661 109.536 368.43 112.781 368.763 116.026C366.967 117.778 365.197 119.58 363.4 121.332C361.963 119.838 360.142 118.55 359.423 116.49C358.448 113.863 357.499 111.21 356.883 108.48C356.754 106.162 358.089 104.024 358.14 101.732C358.063 99.9293 357.883 98.1007 357.345 96.3494C356.985 95.8858 356.421 95.654 355.933 95.3449C354.83 98.1522 352.418 100.11 350.519 102.35C347.157 105.853 344.206 109.845 340.357 112.858C338.767 111.493 336.816 110.257 336.123 108.171C334.866 104.462 334.815 100.496 334.019 96.6842C335.893 96.0661 337.714 95.2161 339.049 93.6966C339.408 94.495 339.793 95.2677 340.178 96.0661C342.667 95.0359 344.617 93.13 346.696 91.4559C349.493 89.2668 351.417 86.2277 353.649 83.4976C355.035 81.6948 356.575 79.9949 357.653 77.9861C358.243 76.9301 357.806 75.7454 357.55 74.6637C351.135 76.3377 347.517 82.4932 341.974 85.6868C339.305 86.8973 336.406 87.5412 333.737 88.8032C331.967 89.6016 330.401 90.8893 328.425 91.2241C328.271 87.773 327.476 84.3475 327.604 80.8706C327.476 77.9861 330.093 76.2347 331.145 73.8138C332.608 70.5429 333.994 67.1947 334.558 63.6148C334.917 61.8892 334.225 60.2151 333.788 58.5668C335.559 58.8758 337.407 58.8758 339.151 59.3137C340.819 60.6529 342.025 62.4815 343.385 64.1041C341.358 66.0872 339.69 68.5855 338.972 71.367C338.664 72.2427 339.459 73.7107 340.486 73.0926C343.745 71.2898 346.773 69.1006 349.954 67.1947C352.751 65.4434 355.369 63.3572 357.858 61.2196C359.089 60.2151 359.5 58.5668 359.603 57.0472C359.911 54.2142 360.219 51.4069 360.424 48.5738C360.834 43.8607 361.732 39.1733 361.348 34.4086C360.937 31.8846 359.526 29.6954 358.217 27.532ZM415.08 67.2462C411.693 67.6583 408.383 69.0233 405.971 71.4958C406.253 71.9079 406.535 72.3457 406.818 72.7578C408.486 72.7835 410.615 72.1654 411.898 73.6335C412.078 74.6637 412.001 75.8999 411.103 76.5953C407.895 79.7889 405.894 83.9355 403.405 87.6699C401.429 90.7348 399.761 94.0314 397.246 96.6842C396.554 97.5341 395.527 98.3583 395.578 99.543C395.758 101.397 397.657 102.402 399.145 103.149C400.223 103.612 401.711 104.282 402.635 103.097C408.126 97.225 410.898 89.4985 414.772 82.5704C416.363 79.8404 416.594 76.5953 418.108 73.8138C419.16 72.1139 418.442 70.0535 417.672 68.3794C417.261 67.3492 416.03 67.1947 415.08 67.2462Z" fill="#231815"/>
</svg>
