<svg width="348" height="168" viewBox="0 0 348 168" fill="none" xmlns="http://www.w3.org/2000/svg">
<g filter="url(#filter0_d_100_4)">
<path d="M37.3522 1.29699C35.6846 1.95904 31.4155 4.44171 27.7467 6.84162L21.2097 11.3104L23.6111 11.807C25.0786 12.0552 29.6812 11.3932 35.4844 9.90358C48.225 6.67611 47.4912 6.59335 46.3572 11.2277C45.4234 15.0344 44.0226 17.8481 44.0226 15.862C44.0226 14.7862 39.8869 13.2138 36.8185 13.2138C34.4839 13.2138 28.0136 16.6068 26.7462 18.5102C26.1458 19.4205 26.5461 19.7515 28.814 20.1653C30.4149 20.4963 32.416 20.7446 33.2832 20.7446C34.7507 20.6618 34.684 20.8273 32.2826 24.2203C28.4138 29.5994 28.4138 29.5994 25.4121 22.8962C21.8768 15.0344 20.5427 13.2138 18.3414 13.2138C16.6071 13.2138 16.6071 13.2138 16.7405 18.7584C16.8739 24.5513 18.0079 31.0063 19.7422 36.7992C20.5427 39.2818 21.4765 40.5232 23.5444 41.7645L26.3459 43.4196L27.8801 41.6818C28.6806 40.6887 29.3476 39.2818 29.3476 38.4543C29.3476 37.544 29.6812 37.2129 30.4149 37.544C31.0152 37.7922 33.1498 38.0405 35.2176 38.1233C38.0192 38.1233 38.6862 38.3715 37.6857 38.8681C36.9519 39.2818 30.6817 42.6748 23.7445 46.3988L11.0707 53.102L9.93668 51.3642C9.26964 50.4539 8.20237 49.6263 7.46862 49.6263C5.93443 49.6263 4 51.6952 4 53.3503C4 55.0882 6.73488 60.3018 9.26964 63.5292C11.5376 66.3429 11.671 66.3429 16.0735 66.0119L20.6094 65.5981L19.2753 69.7359C18.5415 71.9703 17.2742 77.1839 16.407 81.1562C15.6066 85.2112 14.7394 88.3559 14.5393 88.1077C14.4059 87.8594 14.3392 89.4318 14.4726 91.5007C14.6727 94.0661 14.5393 95.1419 14.0724 94.7281C12.338 93.4868 13.5387 96.0522 16.0735 99.1969C18.0746 101.68 19.0752 102.342 19.6755 101.762C20.0757 101.349 20.6761 101.183 20.8762 101.514C21.143 101.762 21.3431 101.597 21.3431 101.018C21.3431 100.438 21.6099 100.273 22.0102 100.521C22.3437 100.769 22.6772 100.438 22.6772 99.6935C22.6772 98.2866 24.8785 100.107 32.3493 107.307C34.2838 109.293 36.5517 110.865 37.2855 110.865C39.0198 110.865 39.9536 107.141 40.087 100.107C40.1537 95.8039 40.3539 95.1419 40.8208 96.797C41.8213 100.107 43.4223 101.845 44.9565 101.266C45.7569 100.935 47.8247 99.4452 49.6258 97.7901L52.961 94.8936L55.6291 96.2177C70.9711 103.666 74.1062 104.742 72.9723 102.507C72.7054 101.845 73.039 101.762 74.1062 102.176C75.7071 102.838 75.7071 102.755 74.4398 101.1C73.7727 100.107 73.1057 98.0384 73.039 96.3832C72.9723 94.8109 72.7722 93.3213 72.6387 93.1558C71.7716 92.1627 62.5664 87.6939 61.4324 87.6939C59.1645 87.6939 59.0978 85.7078 61.2323 81.6527C62.2996 79.5011 63.8338 74.784 64.7009 71.06C66.7021 62.5362 66.2351 61.1293 59.9649 57.2398C55.7626 54.5916 55.429 54.5089 51.6269 55.3364C45.8903 56.5778 45.29 56.7433 42.5551 58.3156L40.1537 59.8052L37.8858 56.9915C35.6178 54.1779 35.1509 50.8676 37.0853 51.8607C37.6857 52.109 37.8858 51.8607 37.6857 51.1987C37.2855 49.8746 39.6868 47.7229 45.957 43.6679C48.8253 41.8473 50.3595 41.268 50.4929 41.93C50.693 42.6748 51.2934 42.6748 52.4273 42.0955C53.3612 41.6818 54.8287 41.3507 55.6958 41.3507C57.7637 41.3507 59.0311 38.7025 58.0305 36.4681C56.1628 32.0821 51.2934 31.0063 46.7575 33.9027L44.156 35.4751L44.4895 33.82C44.6896 32.9097 45.3567 31.9166 45.957 31.6683C49.8259 30.0132 53.8948 27.034 55.1622 24.9651C60.7654 15.6137 59.4313 6.75886 51.827 2.04179C47.8914 -0.358122 42.2883 -0.689144 37.3522 1.29699ZM41.3544 23.0617C41.3544 23.5583 40.6874 24.8824 39.8202 26.1237C38.5528 27.9443 37.8858 28.2753 36.4183 27.7788L34.5506 27.1995L37.0853 24.7996C39.5534 22.3169 41.3544 21.6549 41.3544 23.0617ZM58.0972 60.9638C58.0972 61.7914 58.2306 63.0327 58.2973 63.6948C58.6975 66.1774 57.3635 75.4461 55.896 79.6666C53.7614 86.0388 53.2278 86.5353 48.1583 87.1974C44.2227 87.6939 43.489 88.0249 41.9548 90.2593L40.2871 92.8247L40.4873 82.563L40.7541 72.3841L45.0899 67.2532C49.2255 62.3707 53.0944 59.8052 56.563 59.6397C57.4969 59.557 58.0305 60.0535 58.0972 60.9638ZM32.7496 61.7914C32.7496 62.6189 32.883 63.8603 33.0164 64.6878C33.1498 65.4326 31.6823 67.998 29.6145 70.5635C27.6133 73.0461 26.0124 74.784 26.0124 74.453C26.0124 73.2944 28.6806 66.0119 30.1481 63.1155C31.6156 60.1363 32.6829 59.6397 32.7496 61.7914ZM34.6173 96.135C34.684 102.424 34.6173 102.59 33.0831 102.59C29.2142 102.59 24.5449 98.7004 25.1453 95.9695C25.3454 95.1419 26.0791 93.8178 26.7462 92.9903C27.4132 92.2455 28.0136 91.1696 28.0136 90.7559C28.0136 90.2593 28.4805 89.349 29.0141 88.6042C29.5478 87.8594 30.8151 85.956 31.8157 84.4664L33.6834 81.57L34.1504 85.7078C34.3505 87.9422 34.6173 92.6592 34.6173 96.135ZM47.0243 94.3143C46.8242 94.7281 46.3572 95.1419 45.957 95.1419C45.6235 95.1419 45.3567 94.7281 45.3567 94.3143C45.3567 93.8178 45.8236 93.4868 46.4239 93.4868C46.9576 93.4868 47.2244 93.8178 47.0243 94.3143Z" fill="black"/>
<path d="M116.682 42.9207C118.131 42.7522 119.557 43.3982 121.029 43.2016C122.5 43.0049 123.7 44.2969 125.081 44.634C126.892 45.1676 128.002 47.3022 129.586 48.3695C129.609 50.6165 129.7 52.8915 129.541 55.1384C129.36 55.5036 129.134 55.8125 128.907 56.1496C129.02 56.4866 129.111 56.8236 129.224 57.1607C131.148 57.8067 133.435 57.4696 134.929 59.3514C135.767 59.9694 136.242 61.0367 136.582 62.132C135.178 63.0308 133.752 63.9015 132.371 64.8284C131.035 65.671 129.971 67.0472 128.59 67.7494C127.345 68.4796 125.964 68.8729 124.742 69.7155C123.859 70.1368 124.244 72.0186 125.126 72.1028C125.987 72.3556 126.892 72.3556 127.662 72.9454C128.658 73.76 129.949 73.3667 130.945 74.1813C131.171 74.743 131.148 75.3609 131.239 75.9788C130.016 77.0742 129.088 78.6471 127.685 79.4616C125.919 80.5008 124.334 81.9613 122.976 83.7308C124.968 84.6014 127.119 84.7419 129.043 85.9496C128.454 88.0561 126.621 88.8987 125.579 90.612C125.692 90.921 125.806 91.2299 125.896 91.5389C126.598 91.2018 127.277 90.8648 127.979 90.4997C128.183 90.7805 128.409 91.0895 128.613 91.3984C129.088 91.1176 129.564 90.8367 130.039 90.5839C130.492 92.7747 130.175 95.0778 129.383 97.072C128.658 97.9146 127.685 98.4482 127.096 99.4593C125.874 102.521 122.138 102.015 121.074 105.273C119.919 107.464 120.327 110.16 120.44 112.604C120.712 115.216 120.078 117.828 120.214 120.468C120.078 122.659 120.463 124.906 120.078 127.069C119.172 128.248 118.063 129.147 117.044 130.186C116.931 129.737 116.841 129.231 116.614 128.838C114.894 126.76 112.675 125.327 110.298 124.822C110.139 124.372 109.958 123.895 109.8 123.445C108.917 124.653 108.509 126.423 107.264 127.181C106.472 127.658 105.634 128.361 104.706 128.024C102.736 127.293 100.563 126.76 99.2047 124.681C98.3445 122.238 98.5708 119.457 97.6653 117.042C98.1633 116.368 98.6388 115.609 99.2274 115.076C100.676 114.991 102.148 115.328 103.597 115.525C104.366 116.311 105 117.435 106.019 117.8C106.744 117.884 107.445 117.463 108.125 117.266C108.555 116.48 108.623 115.497 109.03 114.71C109.596 114.064 110.298 113.671 110.909 113.166C111.566 113.727 112.2 114.289 112.743 115.019C112.177 114.795 111.634 114.57 111.09 114.345C111.679 115.974 111.792 117.8 112.449 119.401C113.06 118.895 113.739 118.502 114.237 117.856C114.645 116.929 115.029 116.002 115.437 115.076C115.12 115.019 114.803 114.935 114.486 114.879C115.097 113.025 115.935 111.284 116.207 109.262C113.852 108.784 111.747 110.188 109.687 111.312C109.143 111.621 108.849 112.323 108.555 112.913C106.449 112.52 104.683 111.003 102.918 109.655C103.099 108.503 103.076 107.099 103.823 106.228C107.06 102.802 110.207 99.2347 113.49 95.8642C111.792 95.134 110.388 96.5664 108.94 97.3528C107.332 96.9877 107.151 94.6003 107.06 92.9994C108.509 91.7636 110.253 90.921 111.385 89.1796C112.086 88.1123 113.422 88.0561 113.965 86.7922C114.441 86.0339 114.509 85.0508 114.69 84.124C113.807 84.6576 112.969 85.3036 112.086 85.7811C111.158 86.1462 110.139 86.0058 109.302 86.6799C108.396 87.1573 107.536 88.0561 106.517 88.0561C105.521 87.5225 104.683 86.5956 103.733 85.9215C104.208 85.0228 104.661 84.124 105.136 83.2252C107.31 83.3095 109.46 82.8882 111.475 81.9613C112.132 81.5119 111.928 80.248 112.29 79.6301C111.452 79.602 110.637 79.6863 109.8 79.8829C110.705 78.4785 111.724 77.1023 112.177 75.3328C114.373 74.7149 116.75 73.1982 117.022 70.0806C114.984 70.8951 112.969 71.9905 110.751 71.822C108.464 71.7377 106.245 72.6084 103.982 72.6365C102.148 72.0186 100.269 70.867 99.2953 68.7043C99.0915 67.5247 99.001 66.2889 98.9104 65.0811C101.491 65.4463 104.095 65.671 106.698 65.4182C107.264 65.3339 107.694 64.8003 108.147 64.4352C110.094 65.1654 111.747 62.9185 113.716 63.4802C115.527 63.9015 117.407 63.7892 119.195 63.1713C119.897 62.8061 120.35 61.9635 121.097 61.6826C122.704 61.1209 124.311 60.5592 125.919 59.9694C125.828 59.6042 125.738 59.2672 125.67 58.9021C124.13 58.6212 122.478 58.3684 121.21 57.1607C120.078 55.7844 120.508 53.3971 119.535 51.9646C118.108 50.8692 116.41 50.4479 114.916 49.5492C114.69 49.8862 114.441 50.2232 114.214 50.5603C113.377 49.2121 113.015 47.555 112.652 45.926C113.807 44.7463 115.256 43.8476 116.682 42.9207ZM119.67 74.3217C118.267 75.9788 116.32 76.8214 115.211 78.8437C117.497 78.3662 119.489 76.7933 121.459 75.389C122.115 74.9958 122.342 74.1251 122.636 73.3667C121.595 73.4791 120.395 73.114 119.67 74.3217ZM113.422 79.5739C113.739 79.5739 114.056 79.5739 114.373 79.5739C114.373 79.1807 114.373 78.7875 114.373 78.3943C114.056 78.7594 113.739 79.1807 113.422 79.5739ZM120.236 98.055C121.187 97.409 122.07 96.6226 122.795 95.6115C121.572 95.5834 120.712 96.7349 120.236 98.055Z" fill="black"/>
<path d="M143.509 61.8231C144.845 60.3064 146.792 60.1379 148.535 60.3345C148.807 60.6716 149.033 61.0367 149.26 61.4018C149.916 61.3176 150.663 61.2333 151.207 61.8512C152.067 62.5534 152.158 64.2105 153.199 64.6318C154.331 65.1935 154.965 66.5979 155.735 67.6933C154.625 68.5639 154.037 70.0525 153.584 71.5411C152.022 74.7711 150.007 77.7202 147.584 80.0514C146.951 80.7255 145.909 80.9502 145.683 82.0737C145.388 82.9444 145.411 84.0678 144.709 84.6577C143.351 86.5114 141.97 88.4213 140.929 90.584C140.521 93.9825 141.019 97.4652 140.951 100.892C142.106 100.471 143.351 100.077 144.211 98.9257C145.343 97.3529 147.403 97.1563 148.196 95.134C149.192 93.7297 149.35 91.7074 150.437 90.3874C152.384 91.0614 154.421 91.4266 156.414 91.23C158.066 90.1908 159.81 89.3481 161.666 89.1235C161.507 89.629 161.349 90.1065 161.213 90.612C162.436 91.0334 163.658 91.4547 164.881 91.8479C164.881 92.9713 164.881 94.1229 164.881 95.2464C164.36 95.443 163.839 95.6677 163.319 95.9205C163.454 96.2013 163.59 96.4822 163.749 96.7631C163.137 96.6226 162.504 96.4541 161.87 96.3418C161.009 97.0158 160.081 98.1112 159.062 97.2967C158.315 97.9989 157.546 98.5887 156.708 99.1223C156.504 101.369 156.233 103.588 156.006 105.835C155.667 106.987 156.21 107.942 156.617 108.868C156.029 110.413 155.916 112.127 155.712 113.784C155.508 117.969 155.304 122.266 156.21 126.367C155.236 132.18 156.708 137.938 156.55 143.78C154.965 144.258 153.357 144.117 151.773 143.724C151.637 142.797 151.524 141.898 151.388 140.972C150.867 141.112 150.346 141.252 149.826 141.365C149.803 137.91 149.69 134.456 149.26 131.029C149.531 130.804 149.826 130.608 150.097 130.411C150.097 123.361 150.301 116.283 149.939 109.234C149.916 106.284 150.573 103.392 150.143 100.442C147.992 101.734 145.728 102.83 143.917 104.796C143.034 105.695 141.902 106.172 141.155 107.268C139.525 110.582 140.023 114.767 138.71 118.249C137.51 122.238 135.857 126.704 132.394 128.248C130.899 128.248 129.111 128.95 127.888 127.518C127.255 125.945 126.847 123.811 128.002 122.434C129.654 120.665 130.288 117.884 130.583 115.3C129.677 115.497 128.794 115.778 127.888 116.031C127.006 115.132 125.987 114.205 125.806 112.688C125.806 111.593 125.24 110.863 124.606 110.301C124.606 108.644 123.972 107.155 123.225 105.835C122.659 104.964 123.564 103.897 124.312 104.178C125.942 104.599 127.594 105.161 129.066 106.144C130.062 107.071 130.469 108.7 131.465 109.655C132.688 109.936 133.797 109.065 134.68 108.194C135.314 107.183 135.359 105.779 135.971 104.712C136.355 104.038 136.672 103.195 136.333 102.38C135.722 100.442 134.658 98.0831 135.767 96.1171C135.948 95.6958 136.129 95.2745 136.31 94.8532C135.608 94.2352 134.816 93.7578 134.227 92.9994C133.639 91.3142 133.367 89.4605 132.597 87.8876C133.548 86.9327 134.16 85.5564 134.816 84.2925C135.744 84.0678 137.216 84.8543 137.691 83.3095C139.276 80.6412 140.77 77.8045 141.653 74.6588C142.196 72.7208 143.645 71.4007 143.917 69.3223C144.392 67.5247 145.094 65.7272 145.094 63.7892C144.641 63.1151 144.075 62.4972 143.509 61.8231ZM131.964 117.07C131.624 117.66 131.941 118.334 132.054 118.952C133.435 117.323 133.978 115.076 134.295 112.829C132.733 113.362 132.711 115.609 131.964 117.07Z" fill="black"/>
<path d="M222.303 8.40579C220.169 9.48161 219.769 10.1437 219.769 12.047C219.769 13.3711 220.102 14.4469 220.502 14.4469C221.169 14.4469 221.303 31.0808 220.636 34.2256C220.369 35.5496 213.298 41.5908 212.898 40.846C212.765 40.6805 212.164 39.4392 211.497 38.1151L210.297 35.7152L208.029 38.6944C206.761 40.3495 205.694 42.3356 205.627 43.1632C205.294 46.2251 206.494 52.349 207.762 53.7559C208.896 54.9972 209.096 54.9972 211.23 53.6731C212.431 52.8456 213.632 52.2663 213.899 52.349C214.165 52.4318 214.299 51.4387 214.299 50.1974C214.232 48.0457 215.833 45.3976 219.435 41.7563C220.569 40.5977 220.636 40.7632 220.302 44.57C220.102 46.8044 219.568 48.8733 219.102 49.2043C218.501 49.7009 218.568 50.3629 219.435 52.018C220.102 53.1766 220.369 54.1697 220.035 54.1697C219.769 54.1697 219.835 54.5834 220.302 55.1627C221.236 56.3213 221.369 58.804 220.502 59.5488C220.169 59.797 219.168 59.135 218.234 58.1419C214.966 54.2524 213.765 53.2594 213.498 54.3352C212.631 57.8937 210.897 77.755 210.83 84.21C210.763 95.2992 211.764 111.271 212.765 114.25C213.965 117.892 216.567 117.643 217.234 113.671C217.501 112.099 217.567 110.444 217.434 109.864C217.3 109.285 217.167 104.237 217.167 98.6922C217.234 83.5479 217.234 83.5479 217.767 83.1341C218.034 82.8859 218.568 81.5618 218.968 80.2377C219.568 78.086 219.702 78.7481 219.702 84.7893C219.769 91.5752 220.836 98.3612 222.303 101.837C222.837 103.161 222.704 105.23 221.703 110.526C220.969 114.333 220.235 117.974 220.102 118.554C219.902 119.133 220.102 119.381 220.436 119.133C220.836 118.885 221.103 118.305 221.103 117.809C221.103 117.395 222.036 114.912 223.237 112.347L225.372 107.713L226.772 109.781C227.573 110.857 229.908 113.588 231.975 115.657C235.377 119.133 236.178 119.547 239.113 119.547C241.848 119.547 242.581 119.216 243.715 117.395C245.45 114.664 245.583 107.464 244.049 98.3612C243.515 94.8854 242.848 90.9132 242.648 89.5063C242.448 88.0167 242.114 79.1619 241.981 69.7277L241.648 52.5146L239.646 50.4457C236.912 47.632 233.576 47.7147 229.707 50.6939C225.972 53.6731 224.638 53.7559 224.705 50.9422C224.771 49.7836 225.172 48.0457 225.572 47.1354C225.905 46.2251 226.172 44.7355 226.105 43.8252C226.039 42.6666 226.439 42.0873 227.373 42.0046C230.641 41.5908 233.776 40.6805 233.776 40.184C233.776 39.9357 234.777 39.6874 235.978 39.6874C237.112 39.7702 238.312 39.4392 238.512 39.0254C238.779 38.6116 239.78 38.1978 240.78 38.1978C243.048 38.0323 247.117 32.6532 247.117 29.8395C247.117 27.1086 244.516 24.7087 240.714 24.0466C238.379 23.7156 237.245 23.8811 236.445 24.7914C235.911 25.4535 234.31 26.5293 232.909 27.2741C230.575 28.5154 230.441 28.4327 230.441 26.9431C230.441 26.0327 230.908 24.7914 231.442 24.0466C232.509 22.7225 232.843 21.4812 231.909 22.226C231.575 22.4742 231.509 21.5639 231.642 20.1571C231.775 18.833 232.176 17.5089 232.509 17.2606C233.443 16.5986 233.243 15.109 232.309 15.771C231.642 16.1848 231.642 16.1021 232.242 15.2745C232.843 14.4469 232.843 13.7021 232.109 11.8815C230.108 7.0817 227.039 6.00587 222.303 8.40579ZM233.176 32.8187C231.709 35.2186 229.908 37.7013 229.107 38.2806C228.373 38.8599 227.906 39.6874 228.107 40.1012C228.307 40.515 228.173 41.0115 227.84 41.3425C227.44 41.5908 227.306 40.846 227.506 39.5219C227.706 38.1978 227.906 36.5427 227.973 35.7152C228.04 34.9704 228.307 34.3083 228.64 34.3083C228.907 34.3083 228.974 33.8945 228.774 33.4807C228.574 32.9842 228.907 32.4049 229.574 32.0739C230.241 31.7429 230.908 31.2463 231.108 30.9981C231.375 30.5843 234.043 29.1775 235.644 28.5982C235.711 28.5154 234.644 30.5015 233.176 32.8187ZM232.242 55.9903C232.642 63.6038 234.177 80.486 235.444 90.9132C236.378 98.1957 237.112 105.809 237.112 107.795C237.112 111.437 237.112 111.437 235.111 111.023C232.509 110.361 228.707 107.216 227.706 104.816C227.039 103.327 227.106 102.002 228.307 97.3681C231.242 86.0306 231.775 75.1068 229.507 71.3828C228.507 69.645 223.504 68.4864 222.837 69.8105C222.036 71.3828 221.103 70.8036 221.103 68.6519C221.103 67.2451 221.703 66.252 223.037 65.4244C224.104 64.6796 226.572 62.1142 228.507 59.6315C230.508 57.1489 232.109 55.08 232.176 55.08C232.176 54.9972 232.242 55.4938 232.242 55.9903ZM224.905 84.21C224.705 84.7065 224.571 84.0445 224.571 82.7204C224.571 81.3135 224.705 80.8997 224.905 81.7273C225.038 82.4721 225.038 83.6307 224.905 84.21Z" fill="black"/>
<path d="M186.55 35.3841C186.95 36.3771 187.817 39.7701 188.484 42.9976C189.351 46.9698 190.218 49.3698 191.419 50.6111C193.554 52.9283 194.754 53.011 196.889 50.8594C197.823 49.9491 198.823 49.4525 199.157 49.7008C199.69 50.1146 200.091 48.625 200.758 43.9079C201.491 38.2805 197.422 34.3082 190.419 33.8945C185.883 33.6462 185.816 33.6462 186.55 35.3841Z" fill="black"/>
<path d="M177.745 64.6795C177.745 66.9139 181.414 73.5344 183.615 75.355C186.55 77.7549 191.152 76.1825 192.086 72.3758C192.353 71.4655 193.087 70.7207 193.887 70.7207C195.822 70.7207 195.021 68.9001 192.353 67.2449C188.951 65.2588 185.416 64.0175 181.414 63.5209C178.078 63.1072 177.745 63.1899 177.745 64.6795Z" fill="black"/>
<path d="M198.89 75.7688C198.29 77.1757 197.956 78.748 198.223 79.2445C198.423 79.8238 198.423 79.9893 198.09 79.6583C197.823 79.3273 196.889 80.0721 196.155 81.3962C192.753 87.1891 186.883 95.7129 185.949 96.1267C185.416 96.375 184.682 96.1267 184.348 95.4647C184.015 94.8026 183.748 94.7199 183.748 95.2164C183.748 95.7957 183.214 96.375 182.481 96.6232C181.147 97.037 180.146 102.664 181.213 104.237C181.547 104.651 182.481 106.388 183.281 107.961C184.082 109.533 185.616 111.188 186.683 111.685C188.751 112.595 189.752 111.437 192.42 105.23C193.954 101.589 194.087 101.009 192.953 101.92C192.486 102.251 192.62 101.506 193.287 100.182C193.954 98.9404 194.688 96.8715 194.821 95.7129C195.021 94.4716 195.421 93.313 195.822 93.2303C196.155 93.0647 196.422 92.2372 196.422 91.4096C196.422 90.5821 196.889 88.8442 197.423 87.6029C197.956 86.2788 198.423 84.6237 198.423 83.8789C198.423 83.2168 198.69 82.3065 199.023 81.81C199.557 81.1479 200.758 73.2034 200.291 73.2034C200.157 73.2034 199.557 74.362 198.89 75.7688Z" fill="black"/>
<path d="M284.155 46.2119C283.935 47.166 284.045 49.0743 284.43 50.4373C284.814 51.8685 284.924 54.4583 284.705 56.9117C284.32 61.4779 281.518 75.3127 280.09 79.5381C279.431 81.6508 279.211 84.9221 279.101 93.85C278.992 109.32 279.431 113.069 281.628 115.522C284.1 118.248 286.627 117.908 287.341 114.773C287.726 113.069 288.055 112.66 288.715 113.069C289.813 113.682 292.944 113.682 297.284 113.069C299.097 112.796 300.306 112.728 299.976 112.932C299.482 113.205 299.482 113.75 299.976 114.977C300.745 117.09 301.899 117.635 302.997 116.408C303.492 115.931 304.316 115.59 304.865 115.659C305.414 115.795 306.348 114.977 307.117 113.75C309.809 109.116 310.084 107.276 310.468 86.8303C310.853 68.5657 310.853 67.4753 309.864 66.1804C307.831 63.4543 305.744 62.5683 300.855 62.5683C296.35 62.5002 296.076 62.5683 292.505 65.2944C288.715 68.0886 284.375 72.6548 284.375 73.7452C284.375 74.6993 288.11 73.9497 290.308 72.5185C291.406 71.837 294.263 69.9287 296.625 68.3612C298.987 66.8619 301.239 65.567 301.624 65.567C303.547 65.567 303.547 104.005 301.679 106.322C301.514 106.526 300.91 106.117 300.36 105.436C299.372 104.413 298.987 104.345 296.35 105.095C294.757 105.572 292.615 106.39 291.626 106.935C289.923 107.821 289.868 107.821 290.363 106.662C291.132 104.891 299.042 95.5538 299.701 95.5538C300.635 95.5538 300.415 93.85 299.317 92.6232C297.888 91.0557 295.197 90.5105 293.109 91.3965C292.12 91.8054 291.242 92.078 291.187 91.9417C290.692 91.3965 297.284 82.6049 298.163 82.6049C299.372 82.6049 299.482 81.3782 298.383 79.6063C297.888 78.7884 296.68 78.2432 294.922 77.9706C292.45 77.698 292.011 77.9025 289.264 80.4922C287.616 81.9916 286.133 83.2864 285.913 83.2864C285.419 83.2864 283.826 76.335 283.826 74.1541C283.826 73.1318 284.32 71.1554 284.869 69.7243C286.188 66.6574 291.736 60.1149 293.109 60.1149C293.659 60.1149 294.483 59.5697 294.977 58.8881C295.746 57.7977 295.691 57.457 294.483 54.322C293.219 50.9825 292.45 50.1647 287.067 46.2119L284.485 44.3718L284.155 46.2119ZM290.967 84.3769C290.967 84.9902 288.989 90.0335 288.44 90.8513C286.737 93.1684 288.66 96.9168 291.516 96.9168C292.999 96.9168 292.89 97.3257 289.923 102.437C287.671 106.254 287.396 106.458 287.012 105.027C286.737 104.209 286.627 100.461 286.682 96.6442C286.792 92.8958 286.627 88.466 286.407 86.9666L285.968 84.1043L288.44 84.2406C289.813 84.2406 290.967 84.3769 290.967 84.3769Z" fill="black"/>
<path d="M328.871 110.683C328.156 111.024 325.959 111.774 323.982 112.319C322.004 112.932 319.587 113.818 318.708 114.295C317.774 114.841 315.192 116.067 312.94 117.09C310.688 118.044 307.502 119.816 305.854 120.906C303.601 122.474 302.448 122.883 301.074 122.61C299.317 122.269 299.207 122.337 299.207 124.109C299.207 125.132 299.372 126.222 299.646 126.495C299.866 126.767 300.305 128.267 300.58 129.834C301.129 132.424 301.349 132.696 303.327 133.105C306.073 133.651 308.106 132.969 308.82 131.197C309.15 130.379 309.754 129.289 310.138 128.676C310.853 127.653 311.017 127.653 312.281 129.084C312.995 129.97 314.588 132.424 315.796 134.605L317.939 138.489L316.675 140.67L315.467 142.851L316.785 141.692C318.323 140.329 318.983 140.261 318.983 141.284C318.983 141.692 319.422 142.851 319.971 143.805C320.576 144.827 321.29 146.599 321.619 147.826C322.114 149.734 322.059 150.007 321.015 150.348C318.598 151.097 310.688 149.121 306.018 146.668C303.107 145.1 293.659 137.467 289.648 133.446C288.11 131.81 286.133 129.97 285.254 129.289C283.88 128.13 283.935 128.403 286.188 132.424C287.506 134.809 288.989 137.672 289.484 138.83C291.681 144.078 297.449 150.075 304.261 154.096C313.215 159.48 320.631 161.048 328.706 159.344C332.441 158.594 336.286 156.209 336.451 154.573C336.506 154.164 336.726 152.801 336.891 151.574C337.11 150.211 337.001 149.394 336.616 149.394C336.286 149.394 336.012 148.917 336.012 148.371C336.012 147.485 333.979 145.577 333.265 145.782C333.1 145.85 332.661 145.441 332.276 144.896C331.892 144.35 331.727 143.941 331.892 143.941C332.057 143.941 331.178 142.51 329.859 140.807C328.541 139.103 327.497 137.399 327.497 137.058C327.497 136.786 327.058 136.104 326.508 135.559C325.575 134.741 325.575 134.605 326.344 133.787C326.838 133.242 327.223 133.105 327.223 133.446C327.223 133.719 327.772 133.31 328.486 132.492C329.145 131.742 329.969 130.993 330.244 130.925C330.573 130.925 332.057 129.834 333.595 128.539C335.133 127.244 336.671 126.222 337.001 126.222C337.33 126.222 338.264 125.472 339.143 124.586C339.967 123.7 340.901 123.019 341.176 123.087C341.78 123.155 343.483 120.225 343.922 118.316C344.471 115.999 342.054 113.001 338.649 111.706C335.023 110.343 330.573 109.934 328.871 110.683ZM326.453 120.293C325.684 121.86 324.311 124.859 323.432 126.835L321.839 130.516L320.631 128.744C319.916 127.721 319.202 127.108 318.983 127.244C318.763 127.449 318.159 126.972 317.609 126.222C317.06 125.472 316.181 124.859 315.577 124.859C314.094 124.859 314.368 123.428 316.456 120.702C318.763 117.635 318.818 117.635 323.817 117.43L327.827 117.294L326.453 120.293Z" fill="black"/>
<path d="M275.421 128.403C272.674 132.288 269.818 137.126 268.884 139.512C267.291 143.465 267.181 144.146 267.675 147.077C268.06 149.803 268.554 150.757 270.587 152.665C272.564 154.505 273.388 154.846 275.201 154.71L277.453 154.505L277.618 149.394C277.728 146.6 277.948 142.579 278.167 140.534C278.387 138.489 278.552 136.377 278.497 135.832C278.442 135.286 278.882 131.947 279.431 128.335C279.98 124.791 280.42 121.792 280.365 121.724C280.31 121.656 278.058 124.655 275.421 128.403Z" fill="black"/>
</g>
<defs>
<filter id="filter0_d_100_4" x="0" y="0" width="348" height="168" filterUnits="userSpaceOnUse" color-interpolation-filters="sRGB">
<feFlood flood-opacity="0" result="BackgroundImageFix"/>
<feColorMatrix in="SourceAlpha" type="matrix" values="0 0 0 0 0 0 0 0 0 0 0 0 0 0 0 0 0 0 127 0" result="hardAlpha"/>
<feOffset dy="4"/>
<feGaussianBlur stdDeviation="2"/>
<feComposite in2="hardAlpha" operator="out"/>
<feColorMatrix type="matrix" values="0 0 0 0 0 0 0 0 0 0 0 0 0 0 0 0 0 0 0.25 0"/>
<feBlend mode="normal" in2="BackgroundImageFix" result="effect1_dropShadow_100_4"/>
<feBlend mode="normal" in="SourceGraphic" in2="effect1_dropShadow_100_4" result="shape"/>
</filter>
</defs>
</svg>
