<svg width="336" height="57" viewBox="0 0 336 57" fill="none" xmlns="http://www.w3.org/2000/svg">
<path d="M22.0982 0.00323376C23.3026 -0.0541146 24.3731 0.672298 25.5774 0.519369C27.0684 0.36644 28.7889 0.959038 29.5726 2.31628C30.1652 3.80734 30.7387 5.31751 31.2358 6.8468C31.5034 7.76438 32.5548 7.95554 33.3003 8.31875C34.0076 8.64372 34.7914 8.68195 35.5369 8.89223C37.2 9.3319 38.844 9.90539 40.3541 10.7465C41.6732 11.1862 42.8775 11.9317 43.9862 12.7728C45.1714 13.6139 46.6816 13.8815 47.7521 14.8756C48.6505 15.7358 49.8166 16.2137 50.7533 17.0166C51.2121 17.5518 51.4224 18.4694 50.9827 19.0811C50.6577 19.5017 50.4092 19.9605 49.9887 20.2854C46.8919 22.2162 43.6039 23.8984 40.1056 24.988C38.7866 25.3894 37.525 25.982 36.1486 26.1541C35.0399 26.5938 33.9311 27.0525 32.8606 27.5878C32.2107 27.8363 32.1724 28.6201 31.9048 29.1553C31.7137 29.6715 31.3122 30.1111 31.3122 30.6846C31.2549 33.2844 30.949 35.846 30.4902 38.4075C30.3182 40.0133 29.5726 41.4661 29.1903 43.0145C28.1581 44.6585 27.7948 46.6083 26.7626 48.2332C24.7554 50.5654 21.8497 51.8844 19.7278 54.0827C18.772 54.6945 17.6442 55.0577 16.8795 55.9561C16.3825 56.587 15.5988 56.8164 14.8341 56.9884C14.7194 56.8546 14.6047 56.7208 14.49 56.6061C14.7385 55.8605 14.7576 54.9812 15.2738 54.3504C16.6884 52.974 17.2619 51.0051 18.1986 49.3228C18.7912 48.0612 19.6896 46.9907 20.3969 45.7864C20.8557 45.0599 20.7601 44.1232 21.0469 43.3395C21.4292 42.269 21.8306 41.1985 22.06 40.0897C22.4614 38.6178 23.1687 37.1841 22.882 35.6166C22.6144 34.3549 23.876 33.1124 23.2261 31.9272C22.4997 31.0287 21.1424 30.9331 20.1102 31.2963C18.4279 31.8125 16.784 32.4051 15.1209 32.9594C13.7063 33.2653 12.3108 33.6858 10.8771 33.9152C10.3992 34.0108 9.9595 33.7623 9.53895 33.5903C8.02877 32.8638 6.49948 32.1566 5.10401 31.2772C3.21151 30.0538 1.94984 28.0657 0 26.8996C0.210277 26.4408 0.305859 25.8291 0.821994 25.638C1.85426 25.1983 2.98212 25.5997 4.01439 25.8673C5.79219 26.4217 7.64645 26.0012 9.46248 26.0585C9.92127 26.135 10.3801 26.4408 10.858 26.2497C11.8711 25.8865 12.9607 25.7144 14.0121 25.4659C15.7326 25.0454 17.5295 25.0836 19.2499 24.6822C20.1675 24.491 20.8557 23.7646 21.7733 23.5543C22.1556 23.4205 22.4232 23.0955 22.6717 22.7897C23.4364 22.7323 24.5833 22.5794 24.7172 21.6427C24.8701 18.9855 25.7685 16.3093 25.1186 13.6521C24.7745 12.314 24.8892 10.9377 24.8892 9.58041C24.9083 8.81577 24.2775 8.2614 24.1437 7.53499C24.1246 7.11443 24.3348 6.67476 24.1437 6.27332C23.2643 4.18966 22.4997 2.14424 22.0982 0.00323376ZM32.3827 13.0595C32.1151 14.3021 31.9239 15.5638 31.7901 16.8445C31.6754 17.6856 32.096 18.4312 32.3636 19.1958C33.6826 19.1767 35.0016 19.0238 36.2824 18.737C36.4545 18.2974 36.703 17.8768 36.7985 17.3989C36.8177 16.8254 36.55 16.2711 36.4353 15.7167C35.6898 15.3726 34.9443 15.0476 34.2752 14.5697C33.8547 13.9389 33.7208 13.1551 33.4723 12.4478C33.0709 12.6008 32.6312 12.7155 32.3827 13.0595Z" fill="white"/>
<path d="M88.9091 12.8108C90.1134 12.4858 91.3751 12.4667 92.5794 12.1035C93.1529 13.0211 92.6749 14.1107 92.4264 15.0474C93.0382 14.2636 93.4396 13.3078 94.1469 12.6005C96.1159 12.7535 97.7025 14.0916 99.4994 14.7989C99.4612 16.0032 99.4994 17.456 100.493 18.3163C99.92 19.2912 99.0788 20.0367 98.0848 20.572C96.8231 20.0367 95.4468 20.744 94.1469 20.8587C93.3822 21.0881 92.5794 21.0116 91.7956 20.8778C90.0178 21.0881 88.2782 21.6425 86.4622 21.6807C84.3403 21.9674 82.1802 22.1395 80.0392 21.8719C79.9054 21.3366 79.8098 20.8014 79.6569 20.2661C78.854 20.7822 77.9364 20.3808 77.1335 20.0941C76.5409 19.7882 76.1013 19.2721 75.6042 18.8515C76.2351 18.0678 76.9615 17.3604 77.2865 16.3855C77.6306 15.4871 78.7966 15.5444 79.5995 15.4488C80.5936 15.5635 81.4729 15.0092 82.4287 14.9136C82.8493 14.8754 83.2889 14.9327 83.6521 14.6842C84.5506 14.0916 85.5255 13.5755 86.5387 13.1931C87.2842 13.002 88.1062 13.002 88.9091 12.8108Z" fill="white"/>
<path d="M95.1219 29.8433C96.9188 29.4227 98.7731 29.2698 100.608 29.4036C102.501 29.6904 104.393 29.1742 106.305 29.308C107.414 29.0022 107.968 30.283 109.038 30.2065C109.784 30.3403 110.663 29.8815 111.275 30.4932C111.619 31.0094 111.619 31.6593 111.963 32.1755C111.351 32.1946 110.721 32.1755 110.128 32.2901C109.688 32.7107 109.344 33.2268 108.981 33.7239C108.236 33.4753 107.566 33.0357 106.764 32.9783C106.897 33.2842 107.012 33.6092 107.146 33.915C106.439 34.2209 105.808 34.7179 105.081 34.9855C103.399 35.3487 101.64 35.4634 100.073 36.2281C99.4804 36.553 98.7731 36.4766 98.1231 36.553C96.957 36.6677 96.0777 37.5471 95.0072 37.9485C93.5544 38.6941 91.9677 39.0955 90.4002 39.516C89.1003 39.8792 88.0489 40.988 86.6535 40.9689C84.9903 41.3894 83.2508 41.7909 81.8171 42.7658C80.651 43.2819 79.4467 43.7598 78.2806 44.2951C77.2292 44.6392 76.0822 44.62 75.1073 44.123C73.2913 43.7216 71.762 42.5555 70.0989 41.7909C68.9137 41.0071 67.6138 40.3189 66.6771 39.2102C66.0272 38.5411 65.5301 37.6809 64.7273 37.1839C64.3832 36.9927 64.0582 36.6295 64.1729 36.209C64.8228 35.4061 65.7022 34.6797 66.7727 34.565C68.5314 34.1062 70.3856 34.1444 72.087 33.4371C74.4382 33.1121 76.6748 32.2328 79.0261 31.9078C79.829 31.8314 80.651 31.8505 81.4156 31.5637C82.4288 31.1623 83.4802 30.9138 84.5507 30.7417C85.5829 30.6653 86.5961 31.0094 87.6284 30.952C88.1063 30.7226 88.4886 30.283 89.0239 30.2065C90.2664 30.0727 91.5281 30.0536 92.7515 29.7477C93.5353 29.5565 94.319 30.2065 95.1219 29.8433Z" fill="white"/>
<path d="M164.539 3.55344C162.979 4.50532 161.419 6.19505 159.819 8.57757C159.126 9.659 158.692 10.0082 158.692 9.52945C158.692 9.14082 158.388 8.7916 158.045 8.7916C157.701 8.7916 157.352 8.53251 157.352 8.22836C157.267 7.62006 156.31 14.1199 155.837 18.1471C155.623 20.141 155.707 21.0478 156.27 22.1292C157.177 23.864 158.997 25.1144 159.65 24.4667C159.909 24.2076 160.168 21.7406 160.298 18.9243C160.427 14.1593 160.945 12.0415 162.246 10.3067C163.891 8.1833 164.888 7.05681 165.063 7.18636C165.237 7.36097 163.891 11.084 162.939 13.1173C162.635 13.7256 162.032 14.5479 161.599 15.0211C161.035 15.5843 160.906 15.9279 161.25 16.2771C161.509 16.5362 161.728 17.0544 161.728 17.4486C161.728 18.7047 163.722 20.6084 164.713 20.3493C165.232 20.2198 165.62 20.2198 165.62 20.3043C165.62 20.8225 160.686 26.6239 159.729 27.2322C158.518 28.0545 158.388 29.3105 159.38 31.2594C160.027 32.5999 160.117 32.5999 161.024 31.9522C163.452 30.1329 168.386 26.9731 168.69 26.9731C169.208 26.9731 169.169 27.3223 168.386 30.0484C167.389 33.3828 166.048 36.1089 165.53 35.8104C164.967 35.4612 158.518 35.5062 157.391 35.8554C156.958 35.985 156.18 36.2046 155.617 36.2891C155.099 36.3736 153.843 36.8073 152.846 37.1565C151.331 37.7648 151.072 38.0239 151.201 38.8462C151.331 39.4095 151.027 40.7951 150.554 41.9666C150.08 43.1382 149.557 44.8223 149.382 45.7347C149.123 47.2498 149.252 47.554 150.723 48.9396C152.283 50.4096 152.457 50.4547 154.75 50.1956C157.695 49.8464 159.036 49.024 162.59 45.4306C165.924 42.0511 165.277 42.0511 174.717 45.256C178.181 46.4669 181.994 47.723 183.16 48.0722C184.371 48.4608 186.753 49.1987 188.488 49.7619C190.178 50.2801 191.608 50.6293 191.608 50.5392C191.608 49.9759 190.527 48.4157 189.575 47.5089C189.012 46.9907 188.494 46.1684 188.449 45.6897C188.449 45.1715 188.235 44.9124 188.06 44.9969C187.885 45.1264 187.671 44.9969 187.671 44.7828C187.587 44.2646 187.457 43.6563 187.283 43.0931C187.238 42.9185 187.198 42.6143 187.238 42.4454C187.283 42.2313 187.153 42.1863 186.933 42.3158C186.5 42.5749 182.906 41.7075 182.298 41.2344C182.084 41.0204 181.605 40.8458 181.256 40.8458C180.907 40.8458 180.304 40.5867 179.955 40.2825C178.913 39.3757 175.19 38.1197 174.497 38.4182C174.148 38.5477 173.849 38.4632 173.849 38.2436C173.849 37.9845 173.461 37.8099 172.982 37.8099C172.548 37.8099 171.681 37.5959 171.078 37.3311L170.036 36.8524L171.292 34.5149C172.762 31.7438 173.63 28.6684 173.241 27.2829C172.852 25.6833 170.166 23.9935 168.391 24.2526C166.747 24.4667 166.527 24.0386 167.783 22.867C168.994 21.7856 171.247 18.1471 171.247 17.3247C171.247 16.5869 169.169 15.2914 167.958 15.2914C167.44 15.2914 167.349 15.0774 167.569 14.5142C169.563 9.96878 170.47 7.02302 170.256 6.11057C169.997 5.11363 167.18 2.73111 166.229 2.73111C166.015 2.73111 165.277 3.08032 164.539 3.55344ZM157.442 41.2738C159.436 41.2738 161.34 41.4484 161.644 41.6625C162.077 41.9216 161.514 42.6594 159.65 44.3886C155.578 48.1567 152.677 49.1085 150.858 47.2893C149.816 46.2473 149.99 44.3435 151.421 41.5723C152.198 40.0122 152.328 39.9277 153.021 40.5754C153.584 41.0992 154.71 41.2738 157.442 41.2738Z" fill="white"/>
<path d="M145.749 6.32459C144.234 7.32153 142.24 8.5325 141.288 9.05068L139.599 9.91808L140.505 11.0446C141.846 12.7794 144.747 13.7312 146.825 13.168C147.732 12.9089 148.644 12.6892 148.819 12.6892C148.993 12.6892 149.596 12.2555 150.12 11.6923C150.683 11.1741 151.855 10.1321 152.807 9.3999C154.277 8.22835 154.451 7.92983 154.192 6.75828C153.888 5.37271 153.933 5.37271 149.816 4.72498C148.779 4.55037 147.912 4.89958 145.749 6.32459Z" fill="white"/>
<path d="M140.77 14.683C140.381 15.0323 140.077 15.4603 140.077 15.6349C140.077 15.8095 139.863 17.105 139.644 18.5356C139.384 19.9663 139.165 24.9904 139.21 29.6653V38.1984L137.216 39.539C136.135 40.3162 135.008 40.795 134.659 40.6654C134.355 40.581 133.882 40.7105 133.617 41.0147C133.313 41.4033 133.532 42.2707 134.394 44.0449C135.735 46.6415 136.732 47.7285 138.033 47.7679C138.421 47.7679 138.771 47.982 138.771 48.2016C138.771 48.8944 142.28 52.533 143.491 53.1356C144.747 53.7834 145.484 53.6144 146.695 52.4879C147.388 51.8796 147.433 51.5811 147 50.7137C146.695 50.1955 146.093 49.4126 145.614 49.024C144.273 47.982 144.014 43.5267 145.135 41.6173C145.653 40.84 146.262 39.4545 146.566 38.542C146.825 37.6746 147.259 36.9424 147.473 36.9424C147.647 36.9424 148.12 36.4242 148.47 35.7314C148.819 35.0837 150.159 33.0448 151.5 31.1861C152.84 29.3274 153.708 27.9362 153.404 28.1108C153.054 28.3248 153.015 28.1952 153.19 27.7221C153.319 27.2884 153.274 26.9843 153.06 26.9843C152.801 26.9843 152.626 27.1589 152.626 27.418C152.626 27.632 152.322 27.8517 151.979 27.8517C151.635 27.8517 151.331 28.0263 151.331 28.2403C151.331 28.4149 150.554 29.1077 149.596 29.7554C148.644 30.3637 147.861 30.7974 147.861 30.7073C147.861 30.5778 147.123 31.141 146.262 31.9633C145.355 32.7857 144.572 33.3489 144.487 33.2644C144.358 33.1799 144.313 32.3576 144.313 31.4452C144.358 28.1558 144.313 28.2403 145.394 28.7585C146.262 29.1471 147.039 28.9725 149.636 27.8911C153.747 26.1563 154.789 25.4241 154.789 24.2075C154.789 22.9909 154.181 22.6924 150.892 22.3431L148.379 22.0841L146.346 24.1624L144.313 26.2408L144.572 24.7707C145.22 21.2223 145.569 20.2648 146.172 20.4394C147.906 21.0026 150.717 20.6534 151.584 19.8311C152.063 19.3523 153.184 18.361 154.051 17.5781C156.045 15.8884 156.085 15.021 154.265 14.7619C152.142 14.4127 150.064 15.1111 148.503 16.5812L147.118 17.9217L146.036 16.9248C145.428 16.3615 144.133 15.4941 143.181 14.9309C141.592 14.0804 141.373 14.0353 140.77 14.683Z" fill="white"/>
<path d="M218.25 3.90269C218.12 4.07729 217.991 4.67997 217.991 5.28827C217.991 5.89657 216.909 8.53818 215.563 11.1798C211.232 19.6228 205.081 28.7192 201.533 31.924C200.581 32.7914 199.798 33.7433 199.798 34.0869C199.798 34.4361 199.623 34.8642 199.364 34.9937C198.587 35.4725 198.931 35.9906 199.882 35.7315C200.491 35.602 200.705 35.6471 200.491 35.9906C200.102 36.6384 200.879 36.6384 202.051 36.0357C202.744 35.6471 202.873 35.6865 202.569 36.1652C201.662 37.5959 204.563 35.1232 206.726 32.5267C209.418 29.3218 215.783 19.3186 218.205 14.5086C219.416 11.9965 219.939 11.3882 220.497 11.6079C221.928 12.126 223.831 13.6412 224.913 15.0718C226.383 17.0657 227.47 17.4994 228.94 16.7615C230.112 16.1138 230.326 15.4604 229.847 13.7313C229.498 12.5203 226.642 11.2192 224.085 11.1742C223.004 11.1291 221.657 11.0897 221.139 11.0446L220.187 10.9601L221.094 8.5776C221.832 6.58372 221.916 6.1106 221.443 5.5023C220.677 4.64054 218.599 3.55348 218.25 3.90269Z" fill="white"/>
<path d="M244.536 10.2672C241.636 11.174 235.31 15.0323 235.31 15.894C235.31 16.0236 235.958 15.849 236.741 15.5448C238.69 14.7225 244.407 14.2043 244.407 14.852C244.407 16.0236 243.325 19.4424 242.807 19.9606C242.503 20.3098 242.328 20.6985 242.458 20.9125C242.717 21.3011 240.166 22.4276 239.771 22.0841C239.642 21.9094 239.771 21.5208 240.03 21.1772C240.808 20.2254 240.419 18.6201 239.293 18.0569C238.729 17.7978 238.036 17.319 237.777 17.0599C237.04 16.3221 235.829 16.4967 235.569 17.319C235.44 17.7527 235.31 19.1383 235.265 20.3943L235.136 22.7318L234.359 21.6898C233.97 21.1716 233.581 20.5182 233.581 20.3042C233.581 19.8705 231.328 17.8372 231.114 18.0512C231.03 18.1357 230.985 19.4368 230.985 20.9519C231.03 22.4671 231.03 24.4159 231.03 25.2833C230.985 26.3253 231.379 27.3616 232.241 28.5332C233.367 30.1328 233.412 30.3525 232.849 31.1297C231.638 32.6899 230.078 36.4974 229.036 40.3106C228.168 43.4704 228.084 44.4673 228.473 45.898C228.822 47.2835 229.12 47.7172 230.033 47.8918C231.03 48.0665 232.5 47.4582 233.846 46.2922C234.105 46.0331 234.195 45.4248 234.105 44.8616C233.587 42.1355 234.882 37.8042 236.183 37.8042C236.961 37.8042 237.614 39.798 237.828 42.5692C238.003 45.2953 238.955 47.3342 239.692 46.5964C239.906 46.3824 240.081 44.9067 240.171 43.2169L240.301 40.2317L241.731 39.9276C243.376 39.5784 243.376 39.6234 242.21 41.2287C241.517 42.1806 241.388 42.7889 241.602 43.8252C241.861 45.1263 241.951 45.1658 244.114 45.1263C248.4 45.0418 249.876 43.9154 247.752 42.3101L246.71 41.4878L247.752 39.6234C249.054 37.286 248.924 36.0299 247.319 35.5963C246.108 35.247 243.68 36.289 240.999 38.2829L239.788 39.1897L238.448 37.8492L237.107 36.5087L240.616 33.9122C242.954 32.1774 245.032 31.0565 246.896 30.4482C250.445 29.3668 250.619 29.3668 252.05 30.5778C253.131 31.5296 253.222 31.8338 253.176 34.7345C253.064 39.9276 251.594 44.0449 248.823 46.8611C247.003 48.6804 245.573 49.4182 243.889 49.3281C242.373 49.2436 242.289 49.8069 243.759 50.1955C244.367 50.3251 244.84 50.5841 244.84 50.7588C244.84 51.0629 246.919 52.0598 248.349 52.3584C252.033 53.1807 254.151 52.6175 255.536 50.4546C255.97 49.8069 256.443 49.1986 256.618 49.024C257.136 48.6748 258.217 44.8672 258.91 41.0541C259.862 35.8553 259.124 31.9183 256.787 29.8793C254.838 28.1445 252.456 27.2377 249.943 27.2377C246.913 27.2828 241.5 29.7498 237.907 32.735C236.606 33.8164 235.479 34.6387 235.395 34.5543C235.136 34.2952 237.04 30.313 237.822 29.4456C239.124 27.9756 242.064 26.5449 244.187 26.3253C246.699 26.0662 247.003 25.8916 247.003 24.6806C247.003 24.1174 247.262 23.3401 247.612 22.8613C247.916 22.3826 248.259 21.7799 248.304 21.5602C248.389 21.3011 248.823 20.5633 249.346 19.9156C249.825 19.2228 250.253 18.4455 250.253 18.1808C250.298 17.8766 250.557 17.0543 250.862 16.3615C251.166 15.6237 251.509 14.3282 251.639 13.4608C251.898 11.557 251.205 10.6446 249.082 10.0419C247.307 9.57443 246.789 9.57443 244.536 10.2672ZM239.642 24.9904C239.642 25.0749 239.338 25.2945 238.949 25.4241C238.6 25.5536 238.431 25.5086 238.56 25.2495C238.819 24.8158 239.642 24.6412 239.642 24.9904Z" fill="white"/>
<path d="M219.939 18.5807C218.897 19.2284 217.732 19.5777 217.039 19.4875C215.439 19.2735 215.349 20.7436 216.909 21.4364C218.21 21.9996 218.25 22.3882 217.258 23.4302C214.313 26.5055 213.017 28.1502 212.538 29.5358C211.671 32.0929 212.493 32.3914 216.132 30.6623L218.424 29.6203L218.25 31.3551C218.12 32.7857 217.816 33.3039 216.515 34.1713C215.259 35.0387 214.915 35.1232 214.696 34.605C214.346 33.6982 212.792 33.394 212.747 34.2558C212.533 37.286 212.702 38.7617 213.355 39.4094C213.963 40.0572 214.093 40.0572 214.093 39.4939C214.093 39.1447 214.96 37.9788 216.042 36.9368L217.991 35.033V36.6327C217.991 38.3674 215.997 42.0905 214.223 43.6901C213.704 44.2083 213.226 44.8166 213.226 45.1207C213.226 45.3798 213.051 45.5995 212.792 45.5995C212.274 45.5995 212.184 49.3676 212.707 49.6717C213.271 50.0209 219.635 46.5964 221.888 44.8222C223.922 43.1775 224.485 42.6143 225.656 40.9246C226.653 39.4939 226.09 39.2799 224.057 40.3613C221.764 41.5329 221.46 41.5329 221.46 40.1022C221.46 39.4094 222.502 37.4156 224.102 35.0781C226.873 30.9664 227.222 29.4907 225.442 29.2316C224.924 29.1472 223.798 29.4907 222.93 30.0089C222.108 30.5271 221.331 30.8763 221.195 30.7862C221.111 30.6566 221.15 29.9639 221.28 29.1866C221.494 28.2347 222.102 27.4518 223.313 26.6295C225.696 25.0298 225.741 24.506 223.617 24.1625C221.973 23.9034 221.883 23.7738 221.973 22.5178C222.018 21.6954 222.491 20.6985 223.099 20.1353C225.437 17.933 222.97 16.722 219.939 18.5807ZM218.25 26.8097C217.991 27.4574 215.867 28.4544 215.479 28.0657C215.349 27.9362 215.912 27.1589 216.735 26.2915C217.861 25.12 218.25 24.9059 218.334 25.4692C218.424 25.8578 218.379 26.4605 218.25 26.8097ZM222.711 32.2225C221.804 33.394 221.195 33.8221 221.111 33.4785C220.936 32.9997 223.364 30.4482 223.967 30.4482C224.051 30.4482 223.488 31.2706 222.711 32.2225Z" fill="white"/>
<path d="M310.098 9.31516C308.453 12.0863 307.022 14.5984 307.022 14.8124C306.977 15.0715 306.938 15.5503 306.893 15.8938C306.893 16.243 306.718 16.3726 306.544 16.243C306.155 15.8093 305.029 17.5836 305.333 18.1468C305.507 18.4059 305.333 18.8396 304.944 19.0987C303.688 20.0956 300.742 26.2857 301.046 27.4122C301.176 27.9754 301.525 28.4091 301.784 28.364C302.043 28.319 302.302 28.5386 302.348 28.7977C302.393 29.1019 302.432 29.5356 302.477 29.7496C302.477 30.0087 302.911 30.0988 303.384 30.0087C304.64 29.7496 305.158 29.361 304.899 28.8822C304.724 28.6682 304.899 28.4936 305.248 28.4936C305.597 28.4936 306.2 28.0599 306.679 27.4966L307.501 26.5448L306.504 27.4122L305.462 28.2795L305.98 27.108C306.369 26.3307 306.803 26.0266 307.321 26.1111C308.363 26.3251 309.011 26.7194 309.011 27.108C309.011 27.5417 304.465 34.3851 303.468 35.4215C302.95 36.0298 302.731 36.762 302.86 37.9786C303.035 39.5782 303.074 39.6683 304.071 39.3191C304.634 39.1051 305.113 39.015 305.113 39.1445C305.113 39.229 305.502 39.1445 305.98 38.8854C306.499 38.5813 306.718 38.1926 306.544 37.7139C306.369 37.2351 306.414 37.1056 306.758 37.3252C307.062 37.4998 307.625 37.4097 308.014 37.1957C308.447 36.9366 308.622 36.7169 308.447 36.7169C308.233 36.7169 308.402 36.3677 308.836 35.9397C309.27 35.551 310.177 34.34 310.869 33.253C311.562 32.1659 312.041 31.6534 311.911 32.042C311.523 33.2136 312.43 32.9939 312.863 31.828C313.077 31.2197 313.038 30.7466 312.734 30.5269C312.43 30.2678 312.559 30.2227 312.993 30.3973C313.9 30.6564 314.812 29.2258 314.508 28.0148C314.333 27.4516 314.683 27.0179 315.589 26.5448C316.327 26.1955 317.059 26.0266 317.279 26.1561C317.797 26.4603 317.104 27.5868 311.517 35.4665C308.96 39.1051 304.11 44.822 304.933 43.2618C305.147 42.8732 305.062 42.7436 304.719 42.9577C303.941 43.4364 302.511 46.5061 302.511 47.7227V48.8492L304.026 47.9818C304.893 47.503 305.89 47.1144 306.234 47.1144C306.623 47.1144 308.008 46.033 309.394 44.7319C310.779 43.4308 311.906 42.6084 311.951 42.9126C312.035 43.9095 314.418 50.0151 315.026 50.7529C315.33 51.1416 315.978 51.4457 316.412 51.4457C316.845 51.4457 317.319 51.6203 317.454 51.8794C317.887 52.6173 319.707 52.3582 320.743 51.4007C321.306 50.9219 321.52 50.6234 321.261 50.7924C320.957 50.9219 320.698 50.8374 320.698 50.6178C320.698 50.3587 321.002 50.139 321.436 50.139C321.824 50.139 322.776 49.6603 323.514 49.0576C324.291 48.4943 325.074 48.1508 325.249 48.3197C325.463 48.4943 325.463 48.3648 325.294 48.0606C325.119 47.8015 325.21 47.5425 325.424 47.5425C325.683 47.5425 325.857 47.2834 325.812 46.9792C325.728 46.7201 325.942 46.5005 326.246 46.5455C326.505 46.63 326.764 46.5005 326.764 46.3315C326.764 46.1625 327.457 45.205 328.324 44.2531C329.192 43.3463 330.189 41.9607 330.487 41.2679C330.791 40.5301 331.439 38.9755 332.002 37.804C332.52 36.593 332.999 35.551 332.999 35.4215C333.044 35.2919 333.174 34.9878 333.348 34.7287C333.698 34.2105 335.86 28.319 335.86 27.9303C335.86 27.8008 334.818 26.9785 333.607 26.066C332.351 25.1986 330.881 24.0327 330.403 23.5089C329.794 22.9006 328.24 22.2979 325.857 21.7741C321.785 20.9067 317.454 21.0813 313.128 22.2528C308.104 23.5934 307.76 23.6835 308.019 23.0301C308.149 22.726 308.453 22.5119 308.712 22.5514C309.016 22.5964 309.191 22.2923 309.101 21.8586C309.016 21.3798 309.275 21.1207 309.749 21.1207C310.396 21.1207 310.441 21.0362 309.878 20.687C309.315 20.2984 309.315 20.2533 309.878 20.2533C310.616 20.2533 311.348 19.5155 312.649 17.4371C313.128 16.6993 314.942 14.711 316.721 12.9762C319.538 10.2051 319.881 9.6869 319.622 8.68996C319.493 8.04223 319.014 7.25932 318.625 6.95517C318.062 6.47641 313.472 4.18401 313.167 4.22907C313.173 4.24597 311.787 6.544 310.098 9.31516ZM306.071 17.7582C305.766 18.0623 305.552 18.1074 305.552 17.8427C305.552 17.2344 306.071 16.7162 306.375 17.0203C306.459 17.1499 306.33 17.4991 306.071 17.7582ZM324.173 25.469C323.694 25.7731 324.044 25.8182 325.3 25.6436C327.896 25.2549 328.679 26.1618 327.896 28.6288C326.297 33.5628 324.95 36.2945 322.483 39.3247C320.535 41.7523 317.589 44.5235 317.026 44.5235C316.767 44.5235 315.725 43.7462 314.688 42.7887L312.869 41.0539L314.773 38.3672C316.547 35.9002 318.974 33.3431 318.974 33.9514C318.974 34.4302 320.101 32.9995 321.402 30.8761C323.176 27.9754 323.48 25.9421 322.269 25.4633C321.532 25.1592 321.706 25.0747 323.092 25.0747C324.387 25.0353 324.646 25.1648 324.173 25.469Z" fill="white"/>
<path d="M297.194 9.31523C296.546 11.1796 295.893 13.6015 295.763 14.6829C295.414 17.195 295.329 17.3245 293.251 18.2764C291.606 19.0537 291.516 19.0537 290.998 18.3215C290.694 17.8878 290.091 16.7219 289.658 15.6348C289.01 14.1197 288.706 13.7705 288.013 13.9451C287.534 14.0746 286.672 14.2042 286.109 14.2042C285.332 14.2042 285.157 14.3337 285.501 14.6829C285.85 15.0321 285.242 15.8545 283.338 17.7132C281.648 19.3128 280.956 20.2703 281.389 20.2703C281.778 20.2703 282.257 20.0563 282.386 19.8366C282.561 19.5775 282.865 19.5325 283.124 19.662C283.428 19.876 283.473 19.7465 283.254 19.448C283.079 19.0988 283.468 18.406 284.296 17.5836C285.033 16.8458 285.636 16.5022 285.636 16.7613C285.636 17.0654 285.157 17.7582 284.555 18.3609C283.991 18.9242 283.473 19.5719 283.473 19.7465C283.428 20.7434 282.91 21.5658 282.133 21.7798C281.699 21.9544 281.395 22.1684 281.485 22.343C281.569 22.5176 281.136 23.0358 280.533 23.4695C279.666 24.1623 279.491 24.1623 279.711 23.6441C280.144 22.4726 279.497 22.3881 278.669 23.4695C277.587 24.8551 277.627 24.9846 279.148 25.5028C279.84 25.7619 280.449 26.1506 280.449 26.4096C280.449 27.277 282.313 29.4399 283.958 30.4819C284.864 31.0451 285.732 31.5239 285.861 31.5239C286.425 31.5239 289.5 28.3641 289.28 27.9755C288.976 27.4967 290.362 25.8126 290.84 26.1111C291.015 26.2407 291.145 26.0266 291.1 25.6774C291.1 25.3733 291.274 25.0691 291.488 25.0691C291.747 25.0691 292.051 24.6354 292.181 24.0722C292.311 23.5089 292.66 23.1203 292.919 23.1654C293.223 23.2499 293.437 23.1203 293.437 22.9513C293.437 22.7373 293.696 22.2585 294 21.8249C294.479 21.1771 294.563 21.8249 294.518 25.7676V30.4875L292.525 32.825C291.443 34.1261 289.016 37.2014 287.157 39.6684C284.47 43.2619 283.868 44.3433 284.082 45.1656C284.256 45.8584 284.774 46.3372 285.512 46.5062C286.16 46.6808 287.331 47.2834 288.154 47.8467C288.976 48.3649 289.928 48.8436 290.232 48.8436C290.581 48.8436 290.84 49.0182 290.84 49.2323C290.84 49.5815 291.618 49.7955 295.301 50.5728C298.202 51.136 298.591 50.094 297.729 44.2926C297.081 40.0908 297.121 29.913 297.813 29.0907C298.072 28.7415 298.163 28.4824 297.943 28.4824C297.768 28.4824 297.988 28.1782 298.461 27.7896C299.154 27.2264 299.154 27.1419 298.546 27.3559C298.112 27.4854 297.723 27.4404 297.594 27.2714C297.29 26.7532 298.546 18.8678 299.024 18.3947C299.283 18.1356 299.802 17.9159 300.235 17.8765C301.407 17.747 303.395 16.705 303.181 16.3614C303.052 16.1474 303.266 15.9277 303.615 15.7531C304.826 15.3194 304.263 14.8012 302.792 14.9758C301.491 15.1054 301.322 15.0209 300.844 13.7198C300.196 11.8555 300.235 9.90663 300.973 8.48162C301.536 7.43963 301.536 7.18053 300.973 6.61729C300.585 6.26808 299.847 5.96956 299.329 5.96956C298.489 5.98083 298.146 6.49901 297.194 9.31523ZM300.309 15.1617C300.354 15.3757 300.049 15.5109 299.7 15.5109C299.053 15.5109 298.793 14.1704 299.351 13.6071C299.661 13.3424 300.224 14.3394 300.309 15.1617ZM294.552 35.5567C294.597 36.0749 294.766 38.587 294.941 41.099L295.29 45.6895L293.212 45.9485C290.266 46.3822 287.883 46.3372 287.585 45.8641C287.196 45.1713 293.775 33.867 294.299 34.3908C294.423 34.5147 294.552 35.0385 294.552 35.5567Z" fill="white"/>
<path d="M311.004 33.9965C310.745 34.6048 310.79 34.6442 311.219 34.2556C311.523 33.9514 311.652 33.6078 311.523 33.4783C311.393 33.3487 311.134 33.5628 311.004 33.9965Z" fill="white"/>
</svg>
