<svg width="59" height="172" viewBox="0 0 59 172" fill="none" xmlns="http://www.w3.org/2000/svg">
<path d="M27.11 1C28.2481 1 29.0068 1.45523 30.1449 1.34142C31.4727 1.22762 32.9901 1.56904 33.5591 2.4795C34.1281 3.38996 34.5075 4.30042 35.0765 5.21088C35.2662 5.77992 36.2146 5.89373 36.9733 6.12134C37.5423 6.34896 38.3011 6.34896 38.8701 6.46276C40.3875 6.69038 41.7153 7.0318 43.0431 7.60084C44.1811 7.82845 45.3192 8.28368 46.2676 8.85272C47.216 9.30795 48.5438 9.53557 49.4921 10.1046C50.2509 10.6736 51.3889 10.9013 52.1476 11.3565C52.527 11.6979 52.7167 12.267 52.3373 12.6084C52.1477 12.836 51.7683 13.1774 51.3889 13.2912C48.7334 14.4293 45.8882 15.4536 42.6637 16.1364C41.5256 16.364 40.3876 16.7054 39.2495 16.8193C38.3011 17.0469 37.3527 17.3883 36.4043 17.7297C35.8353 17.8435 35.8353 18.2988 35.6456 18.6402C35.4559 18.9816 35.0765 19.2092 35.0765 19.5506C35.0765 21.1439 34.6972 22.6234 34.3178 24.2167C34.1281 25.241 33.5591 26.0377 33.1797 27.0619C32.2313 28.0862 32.0417 29.2243 31.0933 30.2486C29.3862 31.6142 26.7306 32.4109 25.0235 33.7766C24.2648 34.118 23.1268 34.3456 22.5577 34.9147C22.1784 35.2561 21.4196 35.4837 20.8506 35.4837C20.6609 35.3699 20.6609 35.3699 20.4712 35.2561C20.6609 34.8008 20.6609 34.2318 21.2299 33.8904C22.5577 33.0937 22.937 31.8419 23.6958 30.8176C24.2648 30.0209 25.0235 29.4519 25.5925 28.6552C25.9719 28.2 25.9719 27.631 26.1616 27.1757C26.541 26.4929 26.9203 25.9239 27.11 25.241C27.4894 24.3306 28.0584 23.5339 27.8687 22.5096C27.679 21.713 28.8171 21.0301 28.2481 20.2335C27.6791 19.6644 26.3513 19.6644 25.5925 19.8921C24.0751 20.2335 22.7474 20.5749 21.2299 20.9163C19.9022 21.1439 18.7641 21.3716 17.4364 21.4854C17.057 21.5992 16.6776 21.3716 16.2983 21.2577C14.9705 20.8025 13.6428 20.3473 12.5047 19.8921C10.7976 19.0954 9.65951 17.9573 7.95239 17.2745C8.14207 17.0469 8.14206 16.5916 8.7111 16.4778C9.65949 16.2502 10.6079 16.4778 11.5563 16.5916C13.0737 16.9331 14.7808 16.7054 16.2983 16.7054C16.6776 16.7054 17.057 16.9331 17.4364 16.8193C18.3848 16.5916 19.3332 16.4778 20.2815 16.364C21.799 16.1364 23.3164 16.1364 24.8338 15.9088C25.5926 15.795 26.1616 15.3398 27.11 15.2259C27.4894 15.1121 27.679 14.9983 27.8687 14.7707C28.6274 14.7707 29.5758 14.6569 29.5758 14.0879C29.7655 12.4946 30.5242 10.9013 29.9552 9.19415C29.5758 8.39749 29.7655 7.60084 29.7655 6.69038C29.7655 6.23515 29.1965 5.89373 29.1965 5.4385C29.1965 5.21088 29.3862 4.86946 29.1965 4.64184C28.0584 3.61757 27.4894 2.36569 27.11 1ZM36.0249 8.96653C35.8352 9.76318 35.6456 10.446 35.4559 11.2427C35.2662 11.6979 35.6455 12.1531 36.0249 12.7222C37.163 12.7222 38.3011 12.6084 39.4392 12.4946C39.6288 12.267 39.8185 11.9255 39.8185 11.6979C39.8185 11.3565 39.6288 11.0151 39.4392 10.6736C38.8701 10.446 38.1114 10.2184 37.5424 9.9908C37.163 9.64938 36.9734 9.08034 36.7837 8.73892C36.594 8.62511 36.2146 8.73892 36.0249 8.96653Z" fill="black" stroke="black" stroke-width="0.091809" stroke-miterlimit="10"/>
<path d="M29.1964 43.9055C30.3345 43.6779 31.2829 43.6779 32.4209 43.4503C32.99 44.0193 32.4209 44.7021 32.2313 45.2712C32.8003 44.8159 33.1797 44.2469 33.7487 43.7917C35.4558 43.9055 36.7836 44.7021 38.4907 45.1574C38.4907 45.8402 38.4907 46.7507 39.4391 47.3197C38.87 47.8888 38.1113 48.344 37.3526 48.6854C36.2145 48.344 35.0765 48.7992 33.9384 48.913C33.1797 49.0268 32.6106 49.0268 31.8519 48.913C30.3345 49.0268 28.817 49.3683 27.1099 49.3683C25.2131 49.5959 23.3163 49.5959 21.4195 49.4821C21.2299 49.1406 21.2299 48.7992 21.0402 48.4578C20.2815 48.7992 19.5228 48.5716 18.764 48.344C18.195 48.1164 17.8156 47.8888 17.4363 47.5473C18.0053 47.0921 18.5744 46.6369 18.9537 46.0678C19.3331 45.4988 20.2815 45.6126 21.0402 45.4988C21.9886 45.6126 22.7473 45.2712 23.506 45.1574C23.8854 45.1574 24.2647 45.1574 24.6441 45.0436C25.4028 44.7021 26.3512 44.3607 27.1099 44.1331C27.679 44.0193 28.4377 44.0193 29.1964 43.9055Z" fill="black" stroke="black" stroke-width="0.091809" stroke-miterlimit="10"/>
<path d="M34.5075 54.262C36.0249 54.0344 37.732 53.9206 39.2494 54.0344C40.9566 54.262 42.474 53.9206 44.1811 53.9206C45.1295 53.693 45.6985 54.4896 46.6469 54.4896C47.216 54.6034 47.9747 54.262 48.5437 54.7173C48.9231 55.0587 48.9231 55.4001 49.1128 55.7415C48.5437 55.7415 47.9747 55.7415 47.5953 55.8553C47.216 56.0829 46.8366 56.4244 46.6469 56.7658C46.0779 56.652 45.3192 56.3106 44.7501 56.3106C44.9398 56.5382 44.9398 56.652 45.1295 56.8796C44.5605 57.1072 43.9914 57.3348 43.2327 57.5624C41.7153 57.7901 40.1978 57.9039 38.8701 58.3591C38.301 58.5867 37.732 58.4729 37.163 58.5867C36.2146 58.7005 35.4559 59.1557 34.5075 59.3834C33.1797 59.8386 31.852 60.0662 30.5242 60.2938C29.3861 60.5214 28.4377 61.2043 27.2997 61.2043C25.7822 61.4319 24.2648 61.6595 23.1267 62.3424C22.1783 62.6838 21.0402 62.9114 20.0918 63.2528C19.1434 63.4804 18.195 63.4804 17.2466 63.139C15.7292 62.9114 14.4015 62.2286 12.884 61.7733C11.9356 61.3181 10.7975 60.8629 9.84915 60.18C9.28011 59.7248 8.90075 59.2696 8.14203 58.9281C7.76268 58.8143 7.573 58.5867 7.573 58.3591C8.14204 57.9039 8.90075 57.4486 9.84915 57.3348C11.3666 57.1072 13.0737 57.1072 14.4015 56.652C16.4879 56.4244 18.3847 55.9691 20.4712 55.7415C21.2299 55.7415 21.7989 55.7415 22.5577 55.5139C23.5061 55.2863 24.4545 55.1725 25.2132 55.0587C26.1616 55.0587 26.9203 55.1725 27.8687 55.1725C28.248 55.0587 28.6274 54.7173 29.0068 54.7173C30.1448 54.6034 31.2829 54.6034 32.2313 54.4896C33.1797 54.0344 33.7487 54.3758 34.5075 54.262Z" fill="black" stroke="black" stroke-width="0.091809" stroke-miterlimit="10"/>
<path d="M34.9074 73.9101C33.5661 74.4802 32.1689 75.5197 30.7717 76.9616C30.157 77.6322 29.7657 77.8334 29.7657 77.5316C29.7657 77.2969 29.4863 77.0957 29.2068 77.0957C28.9274 77.0957 28.592 76.9281 28.592 76.7604C28.5361 76.3915 27.6979 80.3149 27.2508 82.7627C27.0831 83.9699 27.139 84.5064 27.642 85.1771C28.4244 86.2166 30.0452 86.9878 30.604 86.5854C30.8276 86.4178 31.0511 84.9423 31.1629 83.2322C31.2747 80.3484 31.7218 79.0741 32.8395 78.0011C34.2926 76.7269 35.1309 76.0227 35.2985 76.1233C35.4662 76.2239 34.2927 78.4705 33.4544 79.7112C33.1749 80.0801 32.6719 80.5831 32.2807 80.8514C31.7777 81.1867 31.6659 81.3879 32.0012 81.6226C32.2248 81.7903 32.3924 82.0921 32.3924 82.3268C32.3924 83.0981 34.1249 84.2381 35.0191 84.0705C35.4662 84.0034 35.8016 84.0034 35.8016 84.037C35.8016 84.3388 31.4983 87.8597 30.66 88.2285C29.5981 88.7315 29.4863 89.5028 30.3805 90.6764C30.9394 91.4812 31.0511 91.4812 31.8335 91.1123C33.9573 90.0058 38.2606 88.0944 38.5401 88.0944C38.9872 88.0944 38.9313 88.2956 38.2606 89.9723C37.3664 91.9842 36.1928 93.6273 35.7457 93.4596C35.2427 93.2584 29.5981 93.292 28.648 93.4932C28.2568 93.5602 27.5861 93.6943 27.0831 93.7614C26.636 93.8285 25.5182 94.0632 24.6799 94.2979C23.3386 94.6668 23.1151 94.8345 23.2269 95.3375C23.3387 95.6728 23.0592 96.5111 22.668 97.2153C22.2768 97.9195 21.7738 98.959 21.662 99.4955C21.4385 100.401 21.5503 100.602 22.8357 101.44C24.177 102.346 24.3446 102.346 26.3565 102.212C28.9274 102.01 30.101 101.507 33.2307 99.3278C36.1369 97.2823 35.578 97.2824 43.8494 99.2272C46.8673 99.965 50.2206 100.736 51.2265 100.937C52.2884 101.172 54.3563 101.608 55.8652 101.977C57.3183 102.279 58.6038 102.513 58.6038 102.446C58.6038 102.111 57.6536 101.172 56.8153 100.602C56.3123 100.3 55.8653 99.7973 55.8094 99.4955C55.8094 99.1937 55.6417 99.026 55.474 99.0596C55.3064 99.1266 55.1387 99.0596 55.1387 98.9254C55.0828 98.6236 54.9711 98.2548 54.8034 97.8859C54.7475 97.7853 54.7475 97.5841 54.7475 97.4835C54.8034 97.3494 54.6916 97.3159 54.468 97.4165C54.0768 97.5841 50.9471 97.0476 50.3882 96.7458C50.2206 96.6117 49.7735 96.5111 49.4941 96.5111C49.2147 96.5111 48.6558 96.3434 48.3763 96.1758C47.4821 95.6393 44.1848 94.868 43.6259 95.0357C43.3465 95.1027 43.067 95.0692 43.067 94.9351C43.067 94.7674 42.7316 94.6668 42.2845 94.6668C41.8933 94.6668 41.1667 94.5327 40.6079 94.365L39.7138 94.0632L40.8315 92.6549C42.1169 90.9782 42.8993 89.1004 42.5081 88.2621C42.1728 87.2896 39.8255 86.2836 38.2606 86.4178C36.8075 86.5519 36.6399 86.2836 37.7017 85.5795C38.7636 84.9088 40.7198 82.7292 40.7198 82.2262C40.7198 81.7903 38.8754 80.9855 37.8694 80.9855C37.4223 80.9855 37.3105 80.8514 37.5341 80.516C39.2666 77.7664 40.0491 75.9892 39.8814 75.4191C39.6579 74.8155 37.1988 73.3736 36.3605 73.3736C36.1928 73.4072 35.5221 73.6083 34.9074 73.9101ZM28.7039 96.7458C30.4364 96.7458 32.113 96.8464 32.3924 96.9805C32.7836 97.1482 32.2807 97.5841 30.66 98.6236C27.0832 100.904 24.5682 101.474 22.9475 100.367C22.0533 99.7302 22.165 98.5901 23.4504 96.9135C24.121 95.9746 24.2328 95.9075 24.8476 96.3099C25.2947 96.6452 26.3007 96.7458 28.7039 96.7458Z" fill="black" stroke="black" stroke-width="0.00234841" stroke-miterlimit="10"/>
<path d="M18.4766 75.5867C17.1353 76.1903 15.4028 76.928 14.5645 77.2298L13.1113 77.7663L13.8938 78.437C15.0675 79.4765 17.5824 80.0801 19.4267 79.7112C20.2091 79.5435 20.9916 79.4095 21.1592 79.4095C21.3269 79.4095 21.8299 79.1412 22.277 78.8058C22.78 78.5041 23.7859 77.8669 24.6242 77.431C25.9097 76.7268 26.0773 76.5256 25.8537 75.8214C25.5743 74.9831 25.6302 74.9831 22.0534 74.5807C21.1033 74.5137 20.3768 74.7149 18.4766 75.5867Z" fill="black" stroke="black" stroke-width="0.00234841" stroke-miterlimit="10"/>
<path d="M14.117 80.6502C13.7817 80.8514 13.5022 81.1196 13.5022 81.2202C13.5022 81.3208 13.3346 82.1256 13.111 82.9639C12.8875 83.8358 12.7198 86.8873 12.7198 89.704V94.9015L10.9873 95.7063C10.0372 96.1758 9.03121 96.4776 8.75177 96.377C8.47233 96.3099 8.0812 96.4105 7.85765 96.5782C7.57821 96.8129 7.80173 97.3494 8.52827 98.4225C9.70191 99.9985 10.5961 100.669 11.7138 100.669C12.0492 100.669 12.3845 100.803 12.3845 100.937C12.3845 101.373 15.4584 103.553 16.5202 103.922C17.638 104.324 18.2528 104.224 19.3146 103.519C19.9294 103.151 19.9853 102.983 19.5941 102.446C19.3146 102.145 18.8117 101.642 18.3646 101.407C17.1909 100.77 16.9673 98.0871 17.9732 96.9135C18.4203 96.444 18.9793 95.6057 19.2029 95.0357C19.4264 94.4992 19.8176 94.0632 19.9852 94.0632C20.1529 94.0632 20.5442 93.7615 20.8795 93.3255C21.1589 92.9231 22.3326 91.6824 23.5062 90.5758C24.6798 89.4357 25.4623 88.5974 25.1828 88.698C24.9034 88.8321 24.8475 88.7651 25.0151 88.4633C25.1269 88.195 25.071 88.0274 24.9034 88.0274C24.6798 88.0274 24.5122 88.128 24.5122 88.2956C24.5122 88.4298 24.2328 88.5639 23.9533 88.5639C23.6739 88.5639 23.3944 88.6645 23.3944 88.7986C23.3944 88.8992 22.7237 89.3351 21.8854 89.704C21.0471 90.0728 20.3764 90.3411 20.3764 90.274C20.3764 90.207 19.7058 90.5423 18.9792 91.0453C18.1968 91.5483 17.5261 91.8836 17.4144 91.8501C17.3026 91.783 17.2468 91.3135 17.2468 90.7435C17.3027 88.7651 17.2468 88.7986 18.1969 89.1004C18.9793 89.3351 19.6499 89.2345 21.8854 88.5639C25.4622 87.5244 26.4123 87.0549 26.4123 86.3172C26.4123 85.5795 25.8534 85.4118 23.0031 85.1771L20.8236 85.0094L19.0352 86.2837L17.2468 87.5579L17.4703 86.6525C18.0292 84.5064 18.3645 83.9364 18.8675 84.037C20.3765 84.3723 22.8355 84.1711 23.6179 83.6681C24.0092 83.3663 25.0151 82.7628 25.7975 82.2933C27.53 81.2538 27.5859 80.7508 25.9652 80.5831C24.1209 80.3819 22.2766 80.7843 20.9353 81.6897L19.7058 82.4945L18.7557 81.8909C18.1969 81.5556 17.0791 81.019 16.2408 80.6837C14.8436 80.2813 14.62 80.2478 14.117 80.6502Z" fill="black" stroke="black" stroke-width="0.00234841" stroke-miterlimit="10"/>
<path d="M17.9172 107.745C17.8055 107.845 17.6936 108.214 17.6936 108.583C17.6936 108.952 16.7436 110.561 15.57 112.137C11.7696 117.268 6.40442 122.767 3.27471 124.712C2.43639 125.249 1.76563 125.819 1.76563 126.02C1.76563 126.221 1.598 126.489 1.37445 126.556C0.703794 126.858 0.98326 127.16 1.82157 126.992C2.38045 126.925 2.54811 126.925 2.38045 127.16C2.04513 127.562 2.71572 127.562 3.7217 127.193C4.33646 126.959 4.44827 126.992 4.16883 127.261C3.3864 128.132 5.90135 126.623 7.80153 125.047C10.1488 123.102 15.7376 117.033 17.8613 114.149C18.9232 112.64 19.3703 112.271 19.8733 112.406C21.1028 112.707 22.7794 113.646 23.7295 114.518C25.0149 115.725 25.965 115.994 27.2505 115.558C28.2564 115.155 28.4799 114.753 28.0328 113.713C27.7534 112.976 25.2384 112.204 23.0029 112.171C22.0529 112.137 20.8793 112.104 20.4322 112.104L19.5939 112.037L20.3762 110.595C21.0469 109.388 21.1028 109.086 20.6557 108.717C20.0409 108.18 18.1967 107.51 17.9172 107.745Z" fill="black" stroke="black" stroke-width="0.00234841" stroke-miterlimit="10"/>
<path d="M40.8871 111.601C38.3721 112.137 32.8393 114.484 32.8393 115.021C32.8393 115.088 33.3982 114.987 34.0688 114.82C35.7454 114.317 40.7753 114.015 40.7753 114.384C40.7753 115.088 39.8252 117.167 39.3781 117.469C39.0987 117.67 38.9869 117.905 39.0987 118.039C39.3223 118.274 37.0868 118.944 36.7514 118.743C36.6397 118.643 36.7514 118.408 36.9749 118.207C37.6456 117.637 37.3103 116.664 36.3043 116.329C35.8013 116.161 35.1866 115.893 34.9631 115.725C34.2924 115.289 33.2864 115.39 33.007 115.893C32.8952 116.161 32.7835 116.999 32.7276 117.771L32.6158 119.179L31.9451 118.542C31.6097 118.24 31.2744 117.838 31.2744 117.704C31.2744 117.435 29.3184 116.195 29.0949 116.329C29.039 116.396 28.9831 117.167 28.9831 118.072C29.039 118.978 29.0389 120.185 29.0389 120.688C28.983 121.325 29.3184 121.962 30.1009 122.666C31.1068 123.639 31.1068 123.773 30.6597 124.242C29.5979 125.181 28.2566 127.495 27.3065 129.809C26.5241 131.72 26.4681 132.324 26.8034 133.196C27.0829 134.034 27.3624 134.302 28.1448 134.403C29.039 134.503 30.3244 134.135 31.4981 133.43C31.7216 133.263 31.7774 132.894 31.7216 132.559C31.2745 130.915 32.3922 128.3 33.5659 128.3C34.2365 128.3 34.7953 129.507 35.0189 131.184C35.1865 132.827 36.0249 134.068 36.6397 133.632C36.8074 133.497 36.975 132.592 37.0309 131.586L37.1426 129.775L38.3721 129.608C39.8252 129.406 39.8253 129.44 38.7635 130.412C38.1487 130.983 38.0369 131.351 38.2046 131.988C38.4281 132.793 38.484 132.793 40.3841 132.793C44.1286 132.726 45.414 132.056 43.5697 131.083L42.6756 130.58L43.5697 129.44C44.6875 128.032 44.5757 127.26 43.1785 126.992C42.1167 126.791 39.993 127.428 37.6457 128.635L36.5838 129.172L35.4102 128.367L34.2365 127.562L37.3103 125.986C39.3782 124.947 41.1666 124.242 42.7873 123.874C45.917 123.203 46.0287 123.203 47.3142 123.941C48.2642 124.511 48.3202 124.712 48.3202 126.456C48.2084 129.608 46.9229 132.089 44.5198 133.799C42.9549 134.906 41.6695 135.342 40.2165 135.308C38.8751 135.241 38.8193 135.61 40.1047 135.845C40.6636 135.912 41.0548 136.079 41.0548 136.18C41.0548 136.348 42.8991 136.985 44.1286 137.153C47.3701 137.656 49.2143 137.32 50.388 136.012C50.7792 135.61 51.1705 135.241 51.3382 135.141C51.7853 134.939 52.7353 132.626 53.3501 130.312C54.1884 127.16 53.5177 124.779 51.5057 123.538C49.8291 122.499 47.7054 121.929 45.5258 121.929C42.8991 121.962 38.1486 123.438 35.0189 125.248C33.9011 125.919 32.8952 126.389 32.8393 126.355C32.6158 126.187 34.2924 123.773 34.9631 123.27C36.0808 122.365 38.6517 121.526 40.5518 121.392C42.7315 121.225 43.0108 121.124 43.0108 120.386C43.0108 120.051 43.2344 119.581 43.5697 119.28C43.8492 118.978 44.1286 118.609 44.1845 118.475C44.2404 118.307 44.6316 117.871 45.0787 117.469C45.4699 117.033 45.8612 116.563 45.8612 116.429C45.917 116.262 46.1406 115.759 46.42 115.323C46.6995 114.887 46.9789 114.082 47.0907 113.579C47.3142 112.439 46.6994 111.869 44.8552 111.5C43.2903 111.165 42.8431 111.165 40.8871 111.601ZM36.5838 120.52C36.5838 120.587 36.3044 120.688 35.9691 120.789C35.6896 120.856 35.5219 120.856 35.6337 120.688C35.9131 120.42 36.5838 120.286 36.5838 120.52Z" fill="black" stroke="black" stroke-width="0.00234841" stroke-miterlimit="10"/>
<path d="M19.3705 116.631C18.4763 117.033 17.4144 117.234 16.8556 117.167C15.4584 117.033 15.4025 117.938 16.7438 118.341C17.8616 118.676 17.9175 118.911 17.0233 119.548C14.4524 121.426 13.3347 122.398 12.8876 123.237C12.1052 124.779 12.8317 124.98 16.0173 123.907L18.0293 123.27L17.8616 124.31C17.7498 125.181 17.4704 125.483 16.3526 126.02C15.2349 126.556 14.9554 126.59 14.7878 126.288C14.5083 125.752 13.1111 125.55 13.1111 126.087C12.9435 127.931 13.0552 128.803 13.67 129.205C14.2289 129.608 14.3406 129.608 14.3406 129.272C14.3406 129.071 15.123 128.367 16.0173 127.73L17.6939 126.59V127.562C17.6939 128.602 15.9614 130.882 14.3966 131.821C13.9495 132.123 13.5023 132.492 13.5023 132.693C13.5023 132.86 13.3347 132.995 13.1111 132.995C12.664 132.995 12.5523 135.275 13.0553 135.476C13.5583 135.677 19.0911 133.598 21.1031 132.525C22.8915 131.519 23.3944 131.184 24.4004 130.178C25.2946 129.306 24.7916 129.172 23.0032 129.843C20.9913 130.547 20.7119 130.547 20.7119 129.675C20.7119 129.239 21.606 128.032 23.0032 126.623C25.4064 124.142 25.7418 123.237 24.1769 123.069C23.7298 123.002 22.7239 123.237 21.9973 123.538C21.2708 123.84 20.6 124.075 20.4883 124.008C20.4324 123.941 20.4324 123.505 20.5442 123.035C20.7119 122.465 21.2707 121.996 22.3326 121.493C24.4004 120.52 24.4563 120.219 22.612 119.984C21.1589 119.816 21.1031 119.749 21.159 118.978C21.2149 118.475 21.606 117.871 22.1649 117.536C24.1768 116.228 22.0531 115.491 19.3705 116.631ZM17.9175 121.627C17.694 122.029 15.8496 122.633 15.5143 122.398C15.4025 122.331 15.9055 121.862 16.6321 121.325C17.638 120.621 17.9734 120.487 18.0293 120.822C18.0293 121.023 18.0293 121.392 17.9175 121.627ZM21.8296 124.88C21.0472 125.584 20.4883 125.852 20.4325 125.651C20.2648 125.349 22.3885 123.807 22.9474 123.807C23.0033 123.807 22.5003 124.31 21.8296 124.88Z" fill="black" stroke="black" stroke-width="0.00234841" stroke-miterlimit="10"/>
<path d="M32.9513 145.636C31.4983 147.313 30.2686 148.822 30.2686 148.956C30.2127 149.123 30.2129 149.392 30.157 149.626C30.157 149.828 29.9893 149.928 29.8775 149.828C29.5422 149.559 28.536 150.632 28.8154 150.968C28.9831 151.135 28.8157 151.404 28.4803 151.538C27.3626 152.141 24.7917 155.897 25.0711 156.568C25.1829 156.903 25.4622 157.171 25.7416 157.138C25.9652 157.104 26.1889 157.238 26.2448 157.406C26.3007 157.574 26.3006 157.842 26.3564 157.976C26.3564 158.144 26.7476 158.177 27.1388 158.144C28.2566 157.976 28.7039 157.741 28.4803 157.473C28.3127 157.339 28.4803 157.238 28.7598 157.238C29.0392 157.238 29.5979 156.97 29.9891 156.635L30.7158 156.065L29.8216 156.601L28.9273 157.138L29.3743 156.434C29.7096 155.964 30.1009 155.763 30.548 155.83C31.4422 155.964 32.0011 156.199 32.0011 156.434C32.0011 156.702 28.033 160.826 27.1388 161.463C26.6917 161.832 26.4682 162.268 26.5799 163.006C26.7476 163.978 26.7478 164.045 27.642 163.811C28.145 163.677 28.536 163.643 28.536 163.71C28.536 163.777 28.8715 163.71 29.3186 163.542C29.7657 163.375 29.9892 163.107 29.8216 162.838C29.6539 162.57 29.7097 162.469 29.9891 162.604C30.2686 162.704 30.7716 162.671 31.1069 162.536C31.4981 162.369 31.6659 162.235 31.4982 162.235C31.3305 162.235 31.4424 162.033 31.8336 161.765C32.2248 161.531 33.0071 160.793 33.6218 160.122C34.2366 159.451 34.6279 159.15 34.5161 159.384C34.1808 160.089 34.9632 159.954 35.3544 159.25C35.5221 158.881 35.522 158.58 35.2425 158.445C34.9631 158.278 35.0751 158.278 35.4663 158.378C36.2487 158.546 37.0311 157.674 36.8075 156.937C36.6399 156.601 36.975 156.333 37.7575 156.031C38.4281 155.83 39.0429 155.729 39.2106 155.796C39.6577 155.964 39.0429 156.668 34.1807 161.43C31.9452 163.643 27.6979 167.097 28.4244 166.158C28.5921 165.923 28.536 165.856 28.2566 165.99C27.5859 166.292 26.3005 168.136 26.3005 168.874V169.545L27.642 169.008C28.4244 168.706 29.2628 168.472 29.5981 168.472C29.9334 168.472 31.1629 167.801 32.3365 167.03C33.5661 166.225 34.5161 165.756 34.572 165.923C34.6279 166.527 36.7515 170.215 37.2545 170.685C37.534 170.92 38.093 171.121 38.4842 171.121C38.8754 171.121 39.2667 171.221 39.3784 171.389C39.7696 171.825 41.3343 171.691 42.2285 171.087C42.7315 170.785 42.8993 170.618 42.6757 170.718C42.3963 170.785 42.1728 170.752 42.1728 170.618C42.1728 170.45 42.4521 170.316 42.8433 170.316C43.1786 170.316 44.0171 170.014 44.6878 169.645C45.3584 169.31 46.0289 169.109 46.1966 169.209C46.3642 169.31 46.3643 169.243 46.2525 169.042C46.0848 168.874 46.1967 168.74 46.3644 168.74C46.5879 168.74 46.7554 168.572 46.6995 168.405C46.6436 168.237 46.8114 168.103 47.0908 168.136C47.3144 168.203 47.5378 168.103 47.5378 168.002C47.5378 167.902 48.1528 167.332 48.8793 166.728C49.6618 166.192 50.5 165.353 50.7795 164.917C51.0589 164.481 51.6177 163.542 52.1207 162.805C52.5678 162.067 53.015 161.43 53.015 161.363C53.0708 161.296 53.1826 161.095 53.2944 160.927C53.5738 160.625 55.474 157.037 55.474 156.802C55.474 156.735 54.5798 156.232 53.5179 155.662C52.4001 155.126 51.1147 154.422 50.7235 154.12C50.1646 153.751 48.8233 153.382 46.7554 153.08C43.1786 152.544 39.4342 152.644 35.6338 153.382C31.2187 154.187 30.9393 154.254 31.1628 153.852C31.2746 153.684 31.5541 153.55 31.7777 153.55C32.0571 153.583 32.1689 153.382 32.113 153.114C32.0571 152.812 32.2807 152.678 32.6719 152.678C33.2308 152.678 33.2865 152.611 32.7835 152.41C32.2805 152.175 32.2805 152.141 32.7835 152.141C33.4542 152.141 34.0691 151.705 35.1869 150.431C35.5781 149.995 37.1988 148.788 38.7636 147.715C41.2227 146.038 41.5021 145.737 41.2786 145.133C41.1668 144.731 40.7196 144.261 40.3843 144.094C39.8813 143.792 35.8574 142.417 35.6338 142.45C35.6338 142.585 34.4044 143.959 32.9513 145.636ZM29.4303 150.767C29.1508 150.934 28.9833 150.968 28.9833 150.834C28.9833 150.465 29.4303 150.163 29.7097 150.331C29.7656 150.398 29.6538 150.599 29.4303 150.767ZM45.2466 155.428C44.8554 155.595 45.1347 155.629 46.2525 155.528C48.5439 155.293 49.2146 155.83 48.5439 157.339C47.1468 160.323 45.9731 161.966 43.7935 163.811C42.1169 165.286 39.4901 166.963 39.043 166.963C38.8195 166.963 37.9252 166.493 36.9751 165.923L35.4103 164.884L37.087 163.241C38.6518 161.732 40.7756 160.189 40.7756 160.558C40.7756 160.86 41.7815 159.988 42.8992 158.68C44.4641 156.937 44.7435 155.696 43.6816 155.394C43.011 155.226 43.1788 155.159 44.4083 155.159C45.4143 155.159 45.6378 155.26 45.2466 155.428Z" fill="black" stroke="black" stroke-width="0.00234841" stroke-miterlimit="10"/>
<path d="M21.6618 145.636C21.1029 146.776 20.5439 148.218 20.4322 148.889C20.1527 150.398 20.041 150.498 18.2526 151.068C16.7995 151.538 16.7436 151.538 16.2965 151.102C16.0171 150.834 15.514 150.129 15.1228 149.459C14.564 148.553 14.2847 148.319 13.67 148.419C13.2788 148.486 12.4963 148.587 11.9933 148.587C11.3227 148.587 11.155 148.654 11.4345 148.889C11.7139 149.09 11.2107 149.593 9.53407 150.733C8.08099 151.705 7.46622 152.275 7.85744 152.275C8.19276 152.275 8.63992 152.141 8.75169 152.007C8.91936 151.84 9.14302 151.84 9.42246 151.907C9.70189 152.041 9.70173 151.974 9.53407 151.772C9.3664 151.571 9.70178 151.135 10.4283 150.632C11.099 150.196 11.602 149.962 11.602 150.129C11.602 150.297 11.2107 150.733 10.6518 151.102C10.1488 151.437 9.70189 151.84 9.70189 151.94C9.64601 152.544 9.19885 153.047 8.5282 153.181C8.13699 153.281 7.85755 153.416 7.96932 153.516C8.02521 153.617 7.68988 153.952 7.13101 154.187C6.34858 154.623 6.23691 154.623 6.40458 154.287C6.79579 153.583 6.23686 153.516 5.51032 154.187C4.56023 155.025 4.61595 155.092 5.90137 155.428C6.51613 155.595 7.01912 155.83 7.01912 155.964C7.01912 156.501 8.63986 157.808 10.0929 158.445C10.8754 158.781 11.6578 159.083 11.7696 159.083C12.2726 159.083 14.9553 157.171 14.7318 156.937C14.4523 156.635 15.6818 155.629 16.073 155.796C16.2407 155.863 16.3524 155.729 16.2965 155.528C16.2965 155.36 16.4642 155.159 16.6319 155.159C16.8555 155.159 17.135 154.891 17.2467 154.556C17.3585 154.22 17.6378 153.986 17.9172 154.019C18.1967 154.086 18.3645 153.986 18.3645 153.885C18.3645 153.751 18.588 153.449 18.8674 153.214C19.2586 152.812 19.3703 153.214 19.3144 155.595V158.445L17.5821 159.854C16.632 160.659 14.5081 162.503 12.8873 164.012C10.54 166.192 10.0372 166.829 10.2048 167.332C10.3725 167.768 10.8197 168.036 11.4345 168.136C11.9933 168.237 12.9991 168.606 13.7256 168.941C14.4522 169.243 15.2907 169.545 15.5701 169.545C15.8495 169.545 16.129 169.645 16.129 169.779C16.129 169.981 16.7996 170.115 20.0411 170.584C22.5561 170.92 22.8913 170.282 22.1647 166.795C21.6059 164.247 21.6059 158.077 22.2207 157.574C22.4442 157.372 22.5002 157.205 22.3326 157.205C22.1649 157.205 22.3883 157.037 22.7796 156.769C23.3943 156.434 23.3944 156.366 22.8355 156.501C22.4443 156.568 22.109 156.568 21.9972 156.434C21.7177 156.132 22.8353 151.337 23.2265 151.068C23.4501 150.901 23.8974 150.767 24.2886 150.767C25.2946 150.699 27.0269 150.062 26.8592 149.861C26.7475 149.727 26.9152 149.593 27.2506 149.492C28.3124 149.224 27.8096 148.922 26.5241 149.023C25.4064 149.09 25.2387 149.056 24.8475 148.252C24.2886 147.111 24.2885 145.938 24.9591 145.066C25.4621 144.429 25.4621 144.261 24.9591 143.926C24.6238 143.725 23.9531 143.523 23.506 143.523C22.7794 143.624 22.5001 143.926 21.6618 145.636ZM24.4002 149.19C24.4561 149.325 24.1767 149.392 23.8414 149.392C23.2825 149.392 23.0589 148.587 23.5619 148.252C23.7855 148.084 24.2885 148.688 24.4002 149.19ZM19.3703 161.53C19.4262 161.832 19.5381 163.375 19.7057 164.884L19.9852 167.667L18.141 167.835C15.5702 168.103 13.5021 168.069 13.2227 167.768C12.8874 167.332 18.6438 160.491 19.0909 160.826C19.2586 160.893 19.3703 161.229 19.3703 161.53Z" fill="black" stroke="black" stroke-width="0.00234841" stroke-miterlimit="10"/>
<path d="M33.7335 160.592C33.51 160.961 33.5658 160.994 33.9011 160.759C34.1805 160.592 34.2923 160.357 34.1805 160.29C34.0688 160.189 33.8453 160.323 33.7335 160.592Z" fill="black" stroke="black" stroke-width="0.00234841" stroke-miterlimit="10"/>
</svg>
